<svg height="512pt" viewBox="0 -18 512 512" width="512pt" xmlns="http://www.w3.org/2000/svg"><path d="m186.179688 339.957031-45.832032-39.019531-41.347656 30.0625-27.363281 38.648438 42.429687 42.425781 40.933594-31.074219zm0 0" fill="#ffbfab"/><path d="m232.011719 378.976562-32.011719 24.023438-22.296875 30.285156 42.425781 42.429688 57.71875-57.714844zm0 0" fill="#ffbfab"/><path d="m94.515625 261.914062-65.304687 65.308594 42.425781 42.425782 68.710937-68.710938zm0 0" fill="#ffcebf"/><path d="m186.179688 339.957031c-7.0625 7.066407-65.050782 65.054688-72.113282 72.117188l42.425782 42.425781 21.210937-21.214844 54.308594-54.308594zm0 0" fill="#ffcebf"/><path d="m365.757812 295.242188-29.757812 15.757812-12.667969 26.667969 25.667969 36.332031 48.738281 38.074219c7.734375-7.730469 30.839844-30.839844 42.425781-42.425781l-39.164062-45.648438zm0 0" fill="#a44f3e"/><path d="m314 395-33.09375-14.90625-28.90625 13.90625-13.421875 28.421875c28.054687 28.046875 49.144531 49.132813 49.144531 49.132813 26.066406-26.066407 31.679688-31.585938 42.398438-42.246094zm0 0" fill="#a44f3e"/><path d="m440.164062 369.648438 42.429688-42.425782-74.40625-74.40625-27.1875 13.183594-15.242188 29.242188zm0 0" fill="#883f2e"/><path d="m280.90625 380.09375 74.40625 74.40625s19.515625-19.511719 42.425781-42.425781l-74.40625-74.40625-28.332031 15.332031zm0 0" fill="#883f2e"/><path d="m241 0h30v90h-30zm0 0" fill="#fff7cc"/><path d="m256 0h15v90h-15zm0 0" fill="#ffe6b3"/><path d="m365.394531 19.390625 21.214844 21.210937-60 60-21.214844-21.214843zm0 0" fill="#ffe6b3"/><path d="m146.605469 19.390625 60 60-21.210938 21.214844-60-60zm0 0" fill="#fff7cc"/><path d="m430 231c-175.46875 175.46875-189.441406 189.441406-191.03125 191.03125-.238281.238281-.1875.1875-.390625.390625-51.488281-51.472656-126.4375-126.390625-137.566406-137.421875h-101.011719v-165h196c8.28125 0 15 6.71875 15 15v132.429688c17.460938-6.191407 30-22.871094 30-42.429688v-45h15l62.191406 22.5zm0 0" fill="#bb5d4c"/><path d="m430 231c-175.46875 175.46875-189.441406 189.441406-191.03125 191.03125-.238281.238281-.1875.1875-.390625.390625-51.488281-51.472656-126.4375-126.390625-137.566406-137.421875h-101.011719v-82.5h318.191406zm0 0" fill="#a44f3e"/><path d="m512 120v165h-71.628906c-28.140625-28.140625-60-60-60-60h-79.371094c-16.648438 0-31.199219-9.050781-38.980469-22.5-3.828125-6.621094-6.019531-14.308594-6.019531-22.5v45c0 33.140625-26.859375 60-60 60 0 0 0-38.941406 0-82.5v-82.5zm0 0" fill="#ffcebf"/><g fill="#ffbfab"><path d="m196 202.5h60v22.5c0 33.140625-26.859375 60-60 60 0 0 0-38.941406 0-82.5zm0 0"/><path d="m512 202.5v82.5h-71.628906c-28.140625-28.140625-60-60-60-60h-79.371094c-16.648438 0-31.199219-9.050781-38.980469-22.5zm0 0"/></g></svg>