<svg height="512pt" viewBox="0 0 512 512" width="512pt" xmlns="http://www.w3.org/2000/svg"><path d="m211 437h90v75h-90zm0 0" fill="#53433f"/><path d="m256 437h45v75h-45zm0 0" fill="#3e322e"/><path d="m331 377v75h-150v-75l74.988281-13h.011719zm0 0" fill="#725d57"/><path d="m331 377v75h-75v-88zm0 0" fill="#53433f"/><path d="m421 165c0 51.179688-23.171875 98.609375-63.550781 130.140625-16.320313 12.730469-26.449219 35.328125-26.449219 58.980469v22.878906h-150v-22.878906c0-23.652344-10.128906-46.25-26.449219-58.980469-40.378906-31.53125-63.550781-78.960937-63.550781-130.140625 0-91.371094 73.980469-165 165-165 90.542969 0 165 73.144531 165 165zm0 0" fill="#ffda2d"/><path d="m421 165c0 51.179688-23.171875 98.609375-63.550781 130.140625-16.320313 12.730469-26.449219 35.328125-26.449219 58.980469v22.878906h-75v-377c90.542969 0 165 73.144531 165 165zm0 0" fill="#fdbf00"/><path d="m79.632812 249.507812 15 25.980469-51.960937 30-15-25.980469zm0 0" fill="#ffda2d"/><path d="m469.335938 24.5 15 25.980469-51.957032 30-15-25.980469zm0 0" fill="#fdbf00"/><path d="m42.664062 24.507812 51.957032 30-15 25.980469-51.957032-30zm0 0" fill="#ffda2d"/><path d="m432.363281 249.503906 51.960938 30-15 25.980469-51.960938-30zm0 0" fill="#fdbf00"/><path d="m0 150h61v30h-61zm0 0" fill="#ffda2d"/><path d="m451 150h61v30h-61zm0 0" fill="#fdbf00"/><path d="m256 60c-24.808594 0-45 20.191406-45 45s20.191406 45 45 45 45-20.191406 45-45-20.191406-45-45-45zm0 0" fill="#fff7cc"/><path d="m301 105c0 24.808594-20.191406 45-45 45v-90c24.808594 0 45 20.191406 45 45zm0 0" fill="#ffe6b3"/><path d="m256 150c-33.078125 0-60 26.921875-60 60v30h120v-30c0-33.078125-26.921875-60-60-60zm0 0" fill="#fff7cc"/><path d="m316 210v30h-60v-90c33.078125 0 60 26.921875 60 60zm0 0" fill="#ffe6b3"/></svg>