<svg height="512pt" viewBox="-64 0 512 512" width="512pt" xmlns="http://www.w3.org/2000/svg"><path d="m267.039062 327v185l-75-37.5-75 37.5v-185zm0 0" fill="#ff637b"/><path d="m267.039062 327v185l-75-37.5v-147.5zm0 0" fill="#e63950"/><path d="m361.929688 206.769531 22.148437-14.769531-22.148437-14.769531c-18.757813-12.5-25.371094-37.179688-15.378907-57.390625l11.800781-23.859375-26.5625-1.710938c-22.5-1.460937-40.558593-19.519531-42.019531-42.019531l-1.710937-26.558594-23.859375 11.796875c-20.230469 10-44.898438 3.410157-57.390625-15.339843l-14.769532-22.148438-14.769531 22.148438c-12.488281 18.75-37.160156 25.339843-57.390625 15.339843l-23.859375-11.796875-1.710937 26.558594c-1.457032 22.5-19.519532 40.558594-42.007813 42.019531l-26.570312 1.710938 11.800781 23.859375c9.988281 20.210937 3.378906 44.890625-15.382812 57.390625l-22.148438 14.769531 22.148438 14.769531c18.761718 12.5 25.371093 37.179688 15.382812 57.390625l-11.800781 23.859375 26.558593 1.710938c22.5 1.460937 40.5625 19.519531 42.019532 42.007812l1.710937 26.570313 23.859375-11.796875c20.222656-9.992188 44.890625-3.382813 57.390625 15.378906l14.769531 22.148437 14.769532-22.148437c12.5-18.761719 37.179687-25.371094 57.390625-15.378906l23.859375 11.796875 1.710937-26.558594c1.460938-22.5 19.519531-40.558594 42.019531-42.019531l26.5625-1.710938-11.800781-23.859375c-9.992187-20.210937-3.378906-44.890625 15.378907-57.390625zm0 0" fill="#ffda2d"/><path d="m346.550781 264.160156 11.800781 23.859375-26.5625 1.710938c-22.5 1.460937-40.558593 19.519531-42.019531 42.019531l-1.710937 26.558594-23.859375-11.796875c-20.210938-9.992188-44.890625-3.382813-57.390625 15.378906l-14.769532 22.148437v-384.039062l14.769532 22.148438c12.492187 18.75 37.160156 25.339843 57.390625 15.339843l23.859375-11.796875 1.710937 26.558594c1.460938 22.5 19.519531 40.558594 42.019531 42.019531l26.5625 1.710938-11.800781 23.859375c-9.992187 20.210937-3.378906 44.890625 15.378907 57.390625l22.148437 14.769531-22.148437 14.769531c-18.757813 12.5-25.371094 37.179688-15.378907 57.390625zm0 0" fill="#fdbf00"/><path d="m192.039062 297c-57.894531 0-105-47.101562-105-105s47.105469-105 105-105c57.898438 0 105 47.101562 105 105s-47.101562 105-105 105zm0 0" fill="#fdbf00"/><path d="m192.039062 87v210c57.898438 0 105-47.101562 105-105s-47.101562-105-105-105zm0 0" fill="#ff9100"/></svg>