<svg height="512pt" viewBox="0 -61 512 512" width="512pt" xmlns="http://www.w3.org/2000/svg"><path d="m150 308.785156v-83.785156h-90v165h120v-51.214844zm0 0" fill="#cd0000"/><path d="m75 90c-41.351562 0-75 33.648438-75 75s33.648438 75 75 75h105v-150zm0 0" fill="#ff637b"/><path d="m180 165v75h-105c-41.351562 0-75-33.648438-75-75zm0 0" fill="#e63950"/><path d="m346 88.230469v153.539062l75-37.5v-78.539062zm0 0" fill="#ffe6b3"/><path d="m421 165v39.269531l-75 37.5v-76.769531zm0 0" fill="#ffca80"/><path d="m451 150h61v30h-61zm0 0" fill="#fff7cc"/><path d="m451 165h61v15h-61zm0 0" fill="#ffe6b3"/><path d="m487.683594 62.539062 16.640625 24.964844-45.003907 30-16.640624-24.964844zm0 0" fill="#fff7cc"/><path d="m459.34375 212.53125 45 30-16.640625 24.964844-45-30zm0 0" fill="#ffe6b3"/><path d="m300.28125 165-14.28125 116.238281-126-41.238281v-150l126-41.238281c.246094 2.011719-2.316406-18.84375 14.28125 116.238281zm0 0" fill="#fff7cc"/><path d="m300.28125 165-14.28125 116.238281-126-41.238281v-75zm0 0" fill="#ffe6b3"/><path d="m341 30.761719v268.476562l-55-18v-232.476562zm0 0" fill="#ffe6b3"/><path d="m341 165v134.238281l-55-18v-116.238281zm0 0" fill="#ffca80"/><path d="m331 0h30v330h-30zm0 0" fill="#ff637b"/><path d="m331 165h30v165h-30zm0 0" fill="#e63950"/></svg>