<svg height="512pt" viewBox="0 0 512 512" width="512pt" xmlns="http://www.w3.org/2000/svg"><path d="m331 392v120l-75-37.5-75 37.5v-120l74-15 1 .199219zm0 0" fill="#e63950"/><path d="m331 392v120l-75-37.5v-97.300781zm0 0" fill="#cd0000"/><path d="m181 272h-181v120h181c8.285156 0 15-6.714844 15-15v-90c0-8.285156-6.714844-15-15-15zm0 0" fill="#fff7cc"/><path d="m331 272c-8.285156 0-15 6.714844-15 15v90c0 8.285156 6.714844 15 15 15h181v-120zm0 0" fill="#ffe6b3"/><path d="m391 18.75v161.25h-90c-16.539062 0-30 13.460938-30 30h-30c0-16.539062-13.460938-30-30-30h-90v-161.25zm0 0" fill="#53433f"/><path d="m391 18.75v161.25h-90c-16.539062 0-30 13.460938-30 30h-15v-191.25zm0 0" fill="#3e322e"/><path d="m421 20.316406h30v189.683594h-30zm0 0" fill="#fdbf00"/><path d="m31 0h450v30h-450zm0 0" fill="#725d57"/><path d="m256 0h225v30h-225zm0 0" fill="#53433f"/><path d="m181 272v120h150v-120zm0 0" fill="#ff637b"/><path d="m256 272h75v120h-75zm0 0" fill="#e63950"/></svg>