<svg height="512pt" viewBox="0 0 512 512" width="512pt" xmlns="http://www.w3.org/2000/svg"><path d="m175.011719 400.628906c1.046875-16.597656-4.761719-33.558594-17.410157-46.21875-12.691406-12.691406-29.601562-18.519531-46.160156-17.488281l56.757813-56.75 63.628906 63.628906zm0 0" fill="#725d57"/><path d="m175.011719 400.628906c1.046875-16.597656-4.761719-33.558594-17.410157-46.21875l42.417969-42.421875 31.808594 31.8125zm0 0" fill="#53433f"/><path d="m113.640625 165.015625-50.117187 50.117187 121.074218 24.210938 58.96875-99.632812c-43.808594-18.578126-95.359375-9.261719-129.925781 25.304687zm0 0" fill="#ff637b"/><path d="m372.289062 268.433594-99.636718 58.972656 24.214844 121.070312 50.117187-50.113281c34.585937-34.589843 43.875-86.144531 25.304687-129.929687zm0 0" fill="#e63950"/><path d="m512 0v30.441406c0 48.308594-12.101562 94.296875-34.089844 135.179688l-79.289062-52.242188c-61.230469-92.933594-51.09375-77.546875-52.242188-79.289062 40.972656-22.03125 86.972656-34.089844 135.179688-34.089844zm0 0" fill="#ff637b"/><path d="m512 0v30.441406c0 48.308594-12.101562 94.296875-34.089844 135.179688l-79.289062-52.242188zm0 0" fill="#e63950"/><path d="m477.910156 165.621094c-13.101562 24.359375-29.640625 46.597656-49.378906 66.347656-32.679688 32.679688-68.75 62.242188-107.203125 87.882812l-17.15625 11.4375-123.460937-123.460937 11.4375-17.15625c25.640624-38.453125 55.210937-74.523437 87.882812-107.203125 19.75-19.738281 41.988281-36.277344 66.347656-49.378906zm0 0" fill="#fff7cc"/><path d="m477.910156 165.621094c-13.101562 24.359375-29.640625 46.597656-49.378906 66.347656-32.679688 32.679688-68.75 62.242188-107.203125 87.882812l-17.15625 11.4375-61.730469-61.730468 169.707032-169.699219zm0 0" fill="#ffca80"/><path d="m304.171875 331.289062-63.640625 42.421876-102.242188-102.242188 42.421876-63.640625zm0 0" fill="#ff637b"/><path d="m304.171875 331.289062-63.640625 42.421876-51.121094-51.121094 53.03125-53.03125zm0 0" fill="#e63950"/><path d="m168.199219 343.800781c-29.320313-29.3125-76.757813-29.3125-106.070313 0-9.21875 9.230469-15.898437 20.710938-19.308594 33.230469l-42.820312 134.96875 134.96875-42.820312c12.519531-3.410157 24-10.089844 33.230469-19.308594 29.3125-29.3125 29.300781-76.761719 0-106.070313zm0 0" fill="#ffda2d"/><path d="m168.199219 449.871094c-9.230469 9.21875-20.710938 15.898437-33.230469 19.308594l-134.96875 42.820312 168.199219-168.199219c29.300781 29.308594 29.3125 76.757813 0 106.070313zm0 0" fill="#fdbf00"/><path d="m337.898438 174.101562c-17.589844-17.589843-46.046876-17.589843-63.636719 0-17.589844 17.589844-17.582031 46.046876 0 63.636719 17.589843 17.589844 46.058593 17.582031 63.636719 0 17.589843-17.589843 17.589843-46.058593 0-63.636719zm0 0" fill="#57d9ad"/><path d="m337.898438 237.738281c-17.578126 17.582031-46.046876 17.589844-63.636719 0l63.636719-63.636719c17.589843 17.578126 17.589843 46.046876 0 63.636719zm0 0" fill="#26bfa6"/><path d="m389.660156 143.550781-21.210937 21.21875-10.609375-10.609375-10.601563-10.609375 21.210938-21.210937zm0 0" fill="#725d57"/><path d="m389.660156 143.550781-21.210937 21.21875-10.609375-10.609375 21.21875-21.210937zm0 0" fill="#53433f"/></svg>