<svg height="512pt" viewBox="0 0 512 512" width="512pt" xmlns="http://www.w3.org/2000/svg"><path d="m390 32h30v45h-30zm0 0" fill="#725d57"/><path d="m405 32h15v45h-15zm0 0" fill="#3e322e"/><path d="m450 62v60c0 8.28125-6.71875 15-15 15h-60c-8.28125 0-15-6.71875-15-15v-60zm0 0" fill="#ff637b"/><path d="m450 62v60c0 8.28125-6.71875 15-15 15h-30v-75zm0 0" fill="#e63950"/><path d="m450 257v60l-45 11-45-11v-60l45-11zm0 0" fill="#725d57"/><path d="m450 257v60l-45 11v-82zm0 0" fill="#3e322e"/><path d="m450 152v105h-90v-105c0-8.28125 6.71875-15 15-15h60c8.28125 0 15 6.71875 15 15zm0 0" fill="#ff637b"/><path d="m450 152v105h-45v-120h30c8.28125 0 15 6.71875 15 15zm0 0" fill="#e63950"/><path d="m420 442.96875v39.03125h-30v-39.03125l15-3.96875zm0 0" fill="#53433f"/><path d="m420 442.96875v39.03125h-15v-43zm0 0" fill="#3e322e"/><path d="m450 317v47.570312c0 29.230469-10.609375 56.820313-30 78.398438h-30c-19.390625-21.578125-30-49.167969-30-78.398438v-47.570312zm0 0" fill="#ff637b"/><path d="m450 317v47.570312c0 29.230469-10.609375 56.820313-30 78.398438h-15v-125.96875zm0 0" fill="#e63950"/><path d="m330 30v482h-330v-482h90c8.28125 0 15 6.71875 15 15v30h120v-30c0-8.28125 6.71875-15 15-15zm0 0" fill="#fff7cc"/><path d="m330 30v482h-165v-437h60v-30c0-8.28125 6.71875-15 15-15zm0 0" fill="#ffe6b3"/><path d="m207.429688 30c-6.191407-17.460938-22.871094-30-42.429688-30s-36.238281 12.539062-42.429688 30h-32.570312v60h150v-60zm0 0" fill="#fdbf00"/><path d="m240 30v60h-75v-90c19.558594 0 36.238281 12.539062 42.429688 30zm0 0" fill="#ff9100"/><path d="m280.609375 199.390625-21.21875 21.21875-19.390625-19.398437v98.789062h-120v75h-30v-105h120v-68.789062l-19.390625 19.398437-21.21875-21.21875 55.609375-55.601563zm0 0" fill="#725d57"/><path d="m280.609375 199.390625-21.21875 21.21875-19.390625-19.398437v98.789062h-75v-30h45v-68.789062l-19.390625 19.398437-21.21875-21.21875 55.609375-55.601563zm0 0" fill="#53433f"/><path d="m105 450c-24.8125 0-45-20.1875-45-45s20.1875-45 45-45 45 20.1875 45 45-20.1875 45-45 45zm0 0" fill="#57d9ad"/><path d="m145.605469 175.605469-21.210938-21.210938-19.394531 19.390625-19.394531-19.390625-21.210938 21.210938 19.390625 19.394531-19.390625 19.394531 21.210938 21.210938 19.394531-19.390625 19.394531 19.390625 21.210938-21.210938-19.390625-19.394531zm0 0" fill="#ff637b"/><path d="m265.605469 385.605469-21.210938-21.210938-19.394531 19.390625-19.394531-19.390625-21.210938 21.210938 19.390625 19.394531-19.390625 19.394531 21.210938 21.210938 19.394531-19.390625 19.394531 19.390625 21.210938-21.210938-19.390625-19.394531zm0 0" fill="#e63950"/><path d="m512 167v75h-30v-75c0-8.269531-6.730469-15-15-15h-107v-30h107c24.808594 0 45 20.191406 45 45zm0 0" fill="#725d57"/><path d="m512 167v75h-30v-75c0-8.269531-6.730469-15-15-15h-62v-30h62c24.808594 0 45 20.191406 45 45zm0 0" fill="#3e322e"/></svg>