<svg height="512pt" viewBox="0 0 512 512" width="512pt" xmlns="http://www.w3.org/2000/svg"><path d="m60 391.058594v120.941406h90v-85.28125zm0 0" fill="#bb5d4c"/><path d="m240 426.71875v85.28125h90v-120.941406zm0 0" fill="#a44f3e"/><path d="m150 0h90v79.5h-90zm0 0" fill="#bb5d4c"/><path d="m195 0h45v79.5h-45zm0 0" fill="#a44f3e"/><path d="m195 62c-107.523438 0-195 87.476562-195 195s87.476562 195 195 195c98.753906 0 182.410156-74.34375 193.714844-172.5625v-44.875c-11.289063-98.089844-94.832032-172.5625-193.714844-172.5625zm0 0" fill="#ff637b"/><path d="m195 62v390c98.753906 0 182.410156-74.34375 193.714844-172.5625v-44.875c-11.289063-98.089844-94.832032-172.5625-193.714844-172.5625zm0 0" fill="#e63950"/><path d="m195 122c-74.441406 0-135 60.558594-135 135s60.558594 135 135 135 135-60.558594 135-135-60.558594-135-135-135zm0 240c-57.898438 0-105-47.101562-105-105s47.101562-105 105-105 105 47.101562 105 105-47.101562 105-105 105zm0 0" fill="#fff7cc"/><path d="m195 182c-41.359375 0-75 33.648438-75 75s33.640625 75 75 75 75-33.648438 75-75-33.640625-75-75-75zm0 120c-24.808594 0-45-20.191406-45-45s20.191406-45 45-45 45 20.191406 45 45-20.191406 45-45 45zm0 0" fill="#fff7cc"/><path d="m195 332v-30c24.808594 0 45-20.191406 45-45s-20.191406-45-45-45v-30c41.359375 0 75 33.648438 75 75s-33.640625 75-75 75zm0 0" fill="#ffe6b3"/><path d="m330 257c0 74.441406-60.558594 135-135 135v-30c57.898438 0 105-47.101562 105-105s-47.101562-105-105-105v-30c74.441406 0 135 60.558594 135 135zm0 0" fill="#ffe6b3"/><path d="m210 242h150v30h-150zm0 0" fill="#53433f"/><path d="m512 317h-130.027344l-40-60 40-60h130.027344l-40 60zm0 0" fill="#57d9ad"/></svg>