<svg height="512pt" viewBox="0 0 512 512" width="512pt" xmlns="http://www.w3.org/2000/svg"><path d="m392 210h-30l-60-90h-122l-40-50 40-40h122l90-30h45l43 74-43 106h-45zm0 0" fill="#bb5d4c"/><path d="m210 120v30l-90 60v122l-54 73-36-73v-122l-30-90v-45l99-33 81 33v45zm0 0" fill="#ffcebf"/><path d="m120 302h30l60 90h122l69 33-69 57h-122l-90 30h-45l-41-93 41-87h45zm0 0" fill="#bb5d4c"/><path d="m302 392v-30l90-60v-122h90v122l30 90v45l-89 46-91-46v-45zm0 0" fill="#ffcebf"/><path d="m512 60-42 25-33-25v-60h75zm0 0" fill="#a44f3e"/><path d="m512 120-38 33-37-33v-60h75zm0 0" fill="#bb5d4c"/><path d="m437 120h75v60h-75zm0 0" fill="#a44f3e"/><path d="m0 332h75v60l-44 26-31-26zm0 0" fill="#a44f3e"/><path d="m0 392h75v60l-41 28-34-28zm0 0" fill="#bb5d4c"/><path d="m0 452h75v60h-75zm0 0" fill="#a44f3e"/><path d="m332 512v-75h60l22 35-22 40zm0 0" fill="#ffbfab"/><path d="m392 512v-75h60l16 31-16 44zm0 0" fill="#ffcebf"/><path d="m452 437h60v75h-60zm0 0" fill="#ffbfab"/><path d="m180 0v75h-60l-34-29 34-46zm0 0" fill="#ffbfab"/><path d="m120 0v75h-60l-21-44 21-31zm0 0" fill="#ffcebf"/><path d="m0 0h60v75h-60zm0 0" fill="#ffbfab"/></svg>