<?xml version="1.0" encoding="iso-8859-1"?>

<svg version="1.1" id="Capa_1" xmlns="http://www.w3.org/2000/svg" xmlns:xlink="http://www.w3.org/1999/xlink" x="0px" y="0px"
	 viewBox="0 0 512 512" style="enable-background:new 0 0 512 512;" xml:space="preserve">
		 
<symbol id="icon-user" viewBox="0 0 24 24">
<title>user</title>
<path stroke="#26a69a" fill="#26a69a" d="M21 21v-2c0-0.675-0.134-1.322-0.379-1.912-0.254-0.613-0.625-1.163-1.085-1.623s-1.011-0.832-1.623-1.085c-0.591-0.246-1.238-0.38-1.913-0.38h-8c-0.675 0-1.322 0.134-1.912 0.379-0.613 0.254-1.163 0.625-1.623 1.085s-0.832 1.011-1.085 1.623c-0.246 0.591-0.38 1.238-0.38 1.913v2c0 0.552 0.448 1 1 1s1-0.448 1-1v-2c0-0.408 0.081-0.795 0.227-1.147 0.152-0.366 0.375-0.697 0.652-0.974s0.608-0.5 0.974-0.652c0.352-0.146 0.739-0.227 1.147-0.227h8c0.408 0 0.795 0.081 1.147 0.227 0.366 0.152 0.697 0.375 0.974 0.652s0.5 0.608 0.652 0.974c0.146 0.352 0.227 0.739 0.227 1.147v2c0 0.552 0.448 1 1 1s1-0.448 1-1zM17 7c0-0.675-0.134-1.322-0.379-1.912-0.254-0.613-0.625-1.163-1.085-1.623s-1.011-0.832-1.623-1.085c-0.591-0.246-1.238-0.38-1.913-0.38s-1.322 0.134-1.912 0.379c-0.613 0.254-1.163 0.625-1.624 1.085s-0.831 1.011-1.085 1.624c-0.245 0.59-0.379 1.237-0.379 1.912s0.134 1.322 0.379 1.912c0.254 0.613 0.625 1.163 1.085 1.623s1.011 0.832 1.623 1.085c0.591 0.246 1.238 0.38 1.913 0.38s1.322-0.134 1.912-0.379c0.613-0.254 1.163-0.625 1.623-1.085s0.832-1.011 1.085-1.623c0.246-0.591 0.38-1.238 0.38-1.913zM15 7c0 0.408-0.081 0.795-0.227 1.147-0.152 0.366-0.375 0.697-0.652 0.974s-0.608 0.5-0.974 0.652c-0.352 0.146-0.739 0.227-1.147 0.227s-0.795-0.081-1.147-0.227c-0.366-0.152-0.697-0.375-0.974-0.652s-0.5-0.608-0.652-0.974c-0.146-0.352-0.227-0.739-0.227-1.147s0.081-0.795 0.227-1.147c0.152-0.366 0.375-0.697 0.652-0.974s0.608-0.5 0.974-0.652c0.352-0.146 0.739-0.227 1.147-0.227s0.795 0.081 1.147 0.227c0.366 0.152 0.697 0.375 0.974 0.652s0.5 0.608 0.652 0.974c0.146 0.352 0.227 0.739 0.227 1.147z"></path>
</symbol>

<symbol id="icon-image" viewBox="0 0 24 24">
<title>image</title>
<path stroke="#d81b60" fill="#d81b60" d="M11 8.5c0-0.337-0.067-0.66-0.19-0.956-0.127-0.307-0.313-0.582-0.543-0.811s-0.504-0.416-0.811-0.543c-0.296-0.123-0.619-0.19-0.956-0.19s-0.66 0.067-0.956 0.19c-0.307 0.127-0.582 0.312-0.812 0.542s-0.415 0.505-0.542 0.812c-0.123 0.296-0.19 0.619-0.19 0.956s0.067 0.66 0.19 0.956c0.127 0.307 0.313 0.582 0.543 0.811s0.505 0.415 0.811 0.543c0.296 0.123 0.619 0.19 0.956 0.19s0.66-0.067 0.956-0.19c0.307-0.127 0.582-0.313 0.811-0.543s0.415-0.505 0.543-0.811c0.123-0.296 0.19-0.619 0.19-0.956zM9 8.5c0 0.070-0.014 0.133-0.037 0.191-0.025 0.060-0.063 0.116-0.109 0.163s-0.103 0.084-0.163 0.109c-0.058 0.023-0.121 0.037-0.191 0.037s-0.133-0.014-0.191-0.037c-0.060-0.025-0.116-0.063-0.163-0.109s-0.084-0.103-0.109-0.163c-0.023-0.058-0.037-0.121-0.037-0.191s0.014-0.133 0.037-0.191c0.025-0.060 0.063-0.116 0.109-0.163s0.102-0.084 0.163-0.109c0.058-0.023 0.121-0.037 0.191-0.037s0.133 0.014 0.191 0.037c0.060 0.025 0.116 0.063 0.163 0.109s0.084 0.102 0.109 0.163c0.023 0.058 0.037 0.121 0.037 0.191zM7.414 20l8.586-8.586 4 4v3.586c0 0.137-0.027 0.266-0.075 0.382-0.050 0.122-0.125 0.232-0.218 0.325s-0.203 0.167-0.325 0.218c-0.116 0.048-0.245 0.075-0.382 0.075zM5.001 22h13.999c0.405 0 0.793-0.081 1.148-0.228 0.368-0.152 0.698-0.375 0.974-0.651s0.499-0.606 0.651-0.974c0.146-0.354 0.227-0.742 0.227-1.147v-14c0-0.405-0.081-0.793-0.228-1.148-0.152-0.368-0.375-0.698-0.651-0.974s-0.606-0.499-0.974-0.651c-0.354-0.146-0.742-0.227-1.147-0.227h-14c-0.405 0-0.793 0.081-1.148 0.228-0.367 0.152-0.697 0.375-0.973 0.651s-0.499 0.606-0.651 0.973c-0.147 0.355-0.228 0.743-0.228 1.148v14c0 0.405 0.081 0.793 0.228 1.148 0.152 0.368 0.375 0.698 0.651 0.974s0.606 0.499 0.974 0.651c0.354 0.146 0.742 0.227 1.146 0.227 0 0 0.001 0 0.001 0zM20 12.586l-3.293-3.293c-0.391-0.391-1.024-0.391-1.414 0l-10.644 10.644c-0.010-0.004-0.021-0.008-0.031-0.012-0.122-0.050-0.232-0.125-0.325-0.218s-0.167-0.203-0.218-0.325c-0.048-0.116-0.075-0.245-0.075-0.382v-14c0-0.137 0.027-0.266 0.075-0.382 0.050-0.122 0.125-0.232 0.218-0.325s0.203-0.167 0.325-0.218c0.116-0.048 0.245-0.075 0.382-0.075h14c0.137 0 0.266 0.027 0.382 0.075 0.122 0.050 0.232 0.125 0.325 0.218s0.167 0.203 0.218 0.325c0.048 0.116 0.075 0.245 0.075 0.382z"></path>
</symbol>

<symbol id="icon-book" viewBox="0 0 24 24">
<title>book</title>
<path stroke="#ba68c8" fill="#ba68c8" d="M6.5 1c-0.472 0-0.925 0.094-1.339 0.265-0.429 0.178-0.814 0.438-1.136 0.76s-0.582 0.707-0.76 1.136c-0.171 0.414-0.265 0.867-0.265 1.339v15c0 0.472 0.094 0.925 0.265 1.339 0.178 0.429 0.438 0.814 0.76 1.136s0.707 0.582 1.136 0.76c0.414 0.171 0.867 0.265 1.339 0.265h13.5c0.552 0 1-0.448 1-1v-20c0-0.552-0.448-1-1-1zM19 18v3h-12.5c-0.205 0-0.398-0.041-0.573-0.113-0.183-0.076-0.348-0.187-0.487-0.326s-0.25-0.305-0.326-0.487c-0.073-0.176-0.114-0.369-0.114-0.574s0.041-0.398 0.113-0.573c0.076-0.183 0.187-0.348 0.326-0.487s0.305-0.25 0.487-0.326c0.176-0.073 0.369-0.114 0.574-0.114zM6.5 3h12.5v13h-12.5c-0.472 0-0.925 0.094-1.339 0.265-0.054 0.023-0.108 0.047-0.161 0.072v-11.837c0-0.205 0.041-0.398 0.113-0.573 0.076-0.183 0.187-0.349 0.326-0.488s0.305-0.25 0.487-0.326c0.176-0.072 0.369-0.113 0.574-0.113z"></path>
</symbol>

<symbol id="icon-store" viewBox="0 0 24 24">
<title>store</title>
<path stroke="#d4e157" fill="#d4e157" d="M19 5h-14l1.5-2h11zM21.794 5.392l-2.994-3.992c-0.196-0.261-0.494-0.399-0.8-0.4h-12c-0.326 0-0.616 0.156-0.8 0.4l-3 4c-0.042 0.056-0.077 0.114-0.105 0.175-0.065 0.136-0.096 0.282-0.095 0.425v14c0 0.405 0.081 0.793 0.228 1.148 0.152 0.368 0.375 0.698 0.651 0.974s0.606 0.499 0.974 0.651c0.354 0.146 0.742 0.227 1.147 0.227h14c0.405 0 0.793-0.081 1.148-0.228 0.368-0.152 0.698-0.375 0.974-0.651s0.499-0.606 0.651-0.974c0.146-0.354 0.227-0.742 0.227-1.147v-14c0-0.219-0.071-0.422-0.189-0.585-0.004-0.005-0.007-0.010-0.011-0.015zM4 7h16v13c0 0.137-0.027 0.266-0.075 0.382-0.050 0.122-0.125 0.232-0.218 0.325s-0.203 0.167-0.325 0.218c-0.116 0.048-0.245 0.075-0.382 0.075h-14c-0.137 0-0.266-0.027-0.382-0.075-0.122-0.050-0.232-0.125-0.325-0.218s-0.167-0.203-0.218-0.325c-0.048-0.116-0.075-0.245-0.075-0.382zM15 10c0 0.408-0.081 0.795-0.227 1.147-0.152 0.366-0.375 0.697-0.652 0.974s-0.608 0.5-0.974 0.652c-0.352 0.146-0.739 0.227-1.147 0.227s-0.795-0.081-1.147-0.227c-0.366-0.152-0.697-0.375-0.974-0.652s-0.5-0.608-0.652-0.974c-0.146-0.352-0.227-0.739-0.227-1.147 0-0.552-0.448-1-1-1s-1 0.448-1 1c0 0.675 0.134 1.322 0.379 1.912 0.254 0.613 0.625 1.163 1.085 1.623s1.011 0.832 1.623 1.085c0.591 0.246 1.238 0.38 1.913 0.38s1.322-0.134 1.912-0.379c0.613-0.254 1.163-0.625 1.623-1.085s0.832-1.011 1.085-1.623c0.246-0.591 0.38-1.238 0.38-1.913 0-0.552-0.448-1-1-1s-1 0.448-1 1z"></path>
</symbol>

<symbol id="icon-eye" viewBox="0 0 24 24">
<title>eye</title>
<path d="M0.106 11.553c-0.136 0.274-0.146 0.603 0 0.894 0.015 0.029 0.396 0.789 1.12 1.843 0.451 0.656 1.038 1.432 1.757 2.218 0.894 0.979 2.004 1.987 3.319 2.8 0.876 0.542 1.849 1 2.914 1.302 0.871 0.248 1.801 0.39 2.784 0.39s1.913-0.142 2.784-0.39c1.065-0.302 2.037-0.76 2.914-1.302 1.315-0.813 2.425-1.821 3.319-2.8 0.718-0.786 1.306-1.562 1.757-2.218 0.724-1.054 1.106-1.814 1.12-1.843 0.136-0.274 0.146-0.603 0-0.894-0.015-0.029-0.396-0.789-1.12-1.843-0.451-0.656-1.038-1.432-1.757-2.218-0.894-0.979-2.004-1.987-3.319-2.8-0.876-0.542-1.849-1-2.914-1.302-0.871-0.248-1.801-0.39-2.784-0.39s-1.913 0.142-2.784 0.39c-1.065 0.302-2.037 0.76-2.914 1.302-1.315 0.813-2.425 1.821-3.319 2.8-0.719 0.786-1.306 1.561-1.757 2.218-0.724 1.054-1.106 1.814-1.12 1.843zM2.141 12c0.165-0.284 0.41-0.687 0.734-1.158 0.41-0.596 0.94-1.296 1.585-2.001 0.805-0.881 1.775-1.756 2.894-2.448 0.743-0.459 1.547-0.835 2.409-1.079 0.703-0.2 1.449-0.314 2.237-0.314s1.534 0.114 2.238 0.314c0.862 0.245 1.666 0.62 2.409 1.079 1.119 0.692 2.089 1.567 2.894 2.448 0.644 0.705 1.175 1.405 1.585 2.001 0.323 0.471 0.569 0.873 0.734 1.158-0.165 0.284-0.41 0.687-0.734 1.158-0.41 0.596-0.94 1.296-1.585 2.001-0.805 0.881-1.775 1.756-2.894 2.448-0.743 0.459-1.547 0.835-2.409 1.079-0.704 0.2-1.45 0.314-2.238 0.314s-1.534-0.114-2.238-0.314c-0.862-0.245-1.666-0.62-2.409-1.079-1.119-0.692-2.089-1.567-2.894-2.448-0.644-0.705-1.175-1.405-1.585-2.001-0.323-0.471-0.569-0.874-0.733-1.158zM16 12c0-0.54-0.108-1.057-0.303-1.53-0.203-0.49-0.5-0.93-0.868-1.298s-0.809-0.666-1.299-0.869c-0.473-0.195-0.99-0.303-1.53-0.303s-1.057 0.108-1.53 0.303c-0.49 0.203-0.93 0.5-1.298 0.868s-0.666 0.809-0.869 1.299c-0.195 0.473-0.303 0.99-0.303 1.53s0.108 1.057 0.303 1.53c0.203 0.49 0.5 0.93 0.868 1.298s0.808 0.665 1.298 0.868c0.474 0.196 0.991 0.304 1.531 0.304s1.057-0.108 1.53-0.303c0.49-0.203 0.93-0.5 1.298-0.868s0.665-0.808 0.868-1.298c0.196-0.474 0.304-0.991 0.304-1.531zM14 12c0 0.273-0.054 0.53-0.151 0.765-0.101 0.244-0.25 0.464-0.435 0.65s-0.406 0.334-0.65 0.435c-0.234 0.096-0.491 0.15-0.764 0.15s-0.53-0.054-0.765-0.151c-0.244-0.101-0.464-0.25-0.65-0.435s-0.334-0.406-0.435-0.65c-0.096-0.234-0.15-0.491-0.15-0.764s0.054-0.53 0.151-0.765c0.101-0.244 0.25-0.464 0.435-0.65s0.406-0.334 0.65-0.435c0.234-0.096 0.491-0.15 0.764-0.15s0.53 0.054 0.765 0.151c0.244 0.101 0.464 0.25 0.65 0.435s0.334 0.406 0.435 0.65c0.096 0.234 0.15 0.491 0.15 0.764z"></path>
</symbol>

<symbol id="icon-home" viewBox="0 0 24 24">
<title>home</title>
<path stroke="#1976d2" fill="#1976d2" d="M2.386 8.211c-0.236 0.184-0.386 0.469-0.386 0.789v11c0 0.405 0.081 0.793 0.228 1.148 0.152 0.368 0.375 0.698 0.651 0.974s0.606 0.499 0.974 0.651c0.354 0.146 0.742 0.227 1.147 0.227h14c0.405 0 0.793-0.081 1.148-0.228 0.368-0.152 0.698-0.375 0.974-0.651s0.499-0.606 0.651-0.974c0.146-0.354 0.227-0.742 0.227-1.147v-11c-0.001-0.3-0.134-0.593-0.386-0.789l-9-7c-0.358-0.275-0.861-0.285-1.228 0zM16 21v-9c0-0.552-0.448-1-1-1h-6c-0.552 0-1 0.448-1 1v9h-3c-0.137 0-0.266-0.027-0.382-0.075-0.122-0.050-0.232-0.125-0.325-0.218s-0.167-0.203-0.218-0.325c-0.048-0.116-0.075-0.245-0.075-0.382v-10.511l8-6.222 8 6.222v10.511c0 0.137-0.027 0.266-0.075 0.382-0.050 0.122-0.125 0.232-0.218 0.325s-0.203 0.167-0.325 0.218c-0.116 0.048-0.245 0.075-0.382 0.075zM10 21v-8h4v8z"></path>
</symbol>

<symbol id="icon-layers" viewBox="0 0 24 24">
<title>layers</title>
<path stroke="#ffa000" fill="#ffa000" d="M12 3.118l7.764 3.882-7.764 3.882-7.764-3.882zM11.553 1.106l-10 5c-0.494 0.247-0.694 0.847-0.447 1.341 0.101 0.203 0.261 0.356 0.447 0.447l10 5c0.292 0.146 0.62 0.136 0.894 0l10-5c0.494-0.247 0.694-0.848 0.447-1.342-0.101-0.202-0.262-0.355-0.447-0.447l-10-5c-0.292-0.146-0.62-0.136-0.894 0zM1.553 17.894l10 5c0.292 0.146 0.62 0.136 0.894 0l10-5c0.494-0.247 0.694-0.848 0.447-1.342s-0.848-0.694-1.342-0.447l-9.552 4.777-9.553-4.776c-0.494-0.247-1.095-0.047-1.342 0.447s-0.047 1.095 0.447 1.342zM1.553 12.894l10 5c0.292 0.146 0.62 0.136 0.894 0l10-5c0.494-0.247 0.694-0.848 0.447-1.342s-0.848-0.694-1.342-0.447l-9.552 4.777-9.553-4.776c-0.494-0.247-1.095-0.047-1.342 0.447s-0.047 1.095 0.447 1.342z"></path>
</symbol>

</svg>
