<svg xmlns="http://www.w3.org/2000/svg" viewBox="0 0 85.04 32.31"><defs><style>.cls-1uma,.cls-2uma{fill:#666666;}.cls-2uma,.cls-4uma,.cls-5uma{fill-rule:evenodd;}.cls-3uma,.cls-4uma{fill:#fff;}.cls-5uma,.cls-6{fill:#666666;}</style></defs><title>logo-uma</title><g id="Capa_2" data-name="Capa 2"><g id="Capa_1-2" data-name="Capa 1"><circle class="cls-1uma" cx="17.74" cy="13.02" r="8.52"/><path class="cls-2uma" d="M7.89,2.11A1.73,1.73,0,0,0,8.41.72.37.37,0,0,1,8.2.8,2.14,2.14,0,0,1,7.82,1a2.21,2.21,0,0,0-1,.46c-.11.11-.11.3-.28.33a.45.45,0,0,0-.21.3c-.48.37-.38,1-.63,1.41,0,.08-.13,0-.08.15l.17-.13c.58-.26.06-.87.47-1.16l0,0a.48.48,0,0,0-.09.54l.25-.27a1.16,1.16,0,0,1,.36-.95s.11-.11.14,0c-.21.25-.49.53-.38.86l.3-.18c.09-.16.22-.33.17-.51s.09-.19.09-.27l.25-.36s.09-.08.13,0a1.49,1.49,0,0,0-.36.74A3.42,3.42,0,0,1,8,1.19c.1,0,.18-.22.29-.18s-.08.11-.12.18a2.7,2.7,0,0,0-1.1,1.07c-.05.1-.19.18-.23.27l.17,0c.23-.25.56-.27.76-.55l0,0c-.11.31-.44.3-.62.53s-.41,0-.59.13-.32.22-.29.35A.8.8,0,0,1,6.68,3V3c-.53,0-.69.49-1.05.76l-.09,0c-.11.18-.34.36-.36.56.31-.54.92-.7,1.35-1,.25-.18.37-.44.62-.57s.66-.23.74-.61Zm1.33.47A2.22,2.22,0,0,1,8,3c-.2.39-.67.27-.9.6a2.24,2.24,0,0,1-1,.08,3.73,3.73,0,0,0,.74-.48c.2.09.33-.17.51-.11.16-.16.33,0,.48-.09a.66.66,0,0,0-.33-.08,1.22,1.22,0,0,1,.78-.32.43.43,0,0,0,.48.12s.05,0,0-.08-.24.09-.34,0,.34.08.19-.17c-.18.09-.41,0-.59.06,0-.11.17-.1.21-.18s-.18,0-.25.06c-.1.23-.37.24-.51.4s-.35.29-.59.3C6.93,3,7,3.06,7,3c.2-.1.26-.4.51-.38s.4-.21.47-.42a1.35,1.35,0,0,1,1.22.34ZM6.79.8v.45c-.15.14-.22.39-.42.44a1.89,1.89,0,0,0,.25-.57l-.07-.06a2.3,2.3,0,0,1-.33.63c0-.33.25-.58.27-.91a.3.3,0,0,0,0-.3l0,0a1.28,1.28,0,0,1-.24.8C6,1.21,6.28,1,6.09,1c-.2.28.16.57,0,.84.08.39-.3.57-.25,1a1.13,1.13,0,0,0-.14.35,3.61,3.61,0,0,0,0-1.41A1.78,1.78,0,0,1,6,1c0-.35.47-.44.44-.78.06.25.37.33.34.61ZM5.12,3a.26.26,0,0,0-.5,0c-.06.08,0,.17,0,.25A.25.25,0,0,0,5,3.31c.15,0,.15-.18.17-.3ZM4.89,4.35c.16-.22.08-.63,0-.87v0h0s0,.08,0,.1a1.86,1.86,0,0,1,0,.59.13.13,0,0,0,0,.13ZM6,4.3c-.46.5-.27,1.27-1,1.66-.33.16-.37.61-.69.76a1.51,1.51,0,0,0-.74.5c.07-.16,0-.39.11-.56s0-.09,0-.11-.09-.28,0-.36a1.83,1.83,0,0,1,.21-.3c-.07-.43.23-.63.4-1s.51-.39.84-.45a3.58,3.58,0,0,1,.72-.32c0,.06.19,0,.11.13Zm.9,1.2c-.11,0-.22-.15-.32-.13A1.06,1.06,0,0,0,6,5.31c-.28,0-.38.26-.53.44S5,6,5.1,6.28c.32-.12.39-.46.53-.71.07,0,.05-.18.15-.09-.1.12-.25.29-.19.46.17-.18.32-.41.57-.42,0,0,.06.07,0,.1-.22-.05-.34.26-.53.36,0,.17.18-.09.27,0s-.08,0-.1.11A1.32,1.32,0,0,0,5,6.54V6.6a2.59,2.59,0,0,1,.48-.11l0,0c-.61,0-.93.66-1.54.63a.22.22,0,0,0-.15.19c.19,0,.38-.11.55,0s.31-.34.61-.24c.4-.32,1-.47,1.16-1.05.18-.39.65-.25.87-.56ZM4.13,3.61l-.18-.19c-.1,0-.16-.19-.25-.06.1.16-.12.3-.15.47s-.25.23-.23.4a1.37,1.37,0,0,0,0,1.16c-.16.43.3.67.17,1.12,0,0,0,.05.07,0a1,1,0,0,1,.06-.46c.21-.22.13-.49.06-.76-.1-.11-.21-.32-.38-.23,0,0,0-.06.06-.09a.45.45,0,0,1,.32.15c0-.33.23-.75-.09-1,0-.05-.14,0-.14-.06.18-.16.25.12.35.17s.11-.1.11-.17-.05-.38-.11-.55c0,0,0,0,0,0A.58.58,0,0,1,4,4.17c-.21.18,0,.51-.15.72A.83.83,0,0,0,4,4.58c0-.14,0-.23.11-.33.12.32-.19.61-.38.88.09.08,0,.25.08.3.11-.27.39-.48.48-.75.17-.42-.28-.62-.21-1.05ZM3.31,8.22c0-.31,0-.66-.24-.86-.09.11-.25.2-.33.32,0,.4-.35.61-.54.92A7.64,7.64,0,0,0,2,9.53c.16.33-.12.52-.11.84s.25.41.15.68c.22.25.18.58.23.88.08-.14,0-.34.13-.48a1,1,0,0,1,.5-.69c0-.11,0-.23.13-.32.25-.09.3-.4.35-.61a3.77,3.77,0,0,0-.08-1.61ZM5,9.06h.19c0,.09-.07.11-.13.15a1.76,1.76,0,0,0-.47,1.07.51.51,0,0,1-.29.28c-.13.15-.22.47-.48.35a.76.76,0,0,1-.61.34c-.19.07-.24.39-.48.42a.27.27,0,0,0-.19.11c-.08-.21.19-.34.34-.46.18-.4.61-.14.84-.48v0c-.18,0-.29.19-.47.19a.88.88,0,0,1,.65-.57,2.39,2.39,0,0,0,.63-.66l0,0c-.22.25-.47.62-.82.63A3,3,0,0,0,4,9.85a2.62,2.62,0,0,1,.59-.51c-.15-.11-.25.16-.4.18s-.32.3-.36.5l-.08,0a.7.7,0,0,1,.08-.62l0,0-.15.21c.12.17-.16.28,0,.44a2.54,2.54,0,0,1-.87,1.2c-.08,0-.11.11-.18.12,0-.35.55-.42.5-.78.07-.08.27-.06.21-.23a.1.1,0,0,0,.11,0,3,3,0,0,0,.15-.63.7.7,0,0,1,0-.38A1.47,1.47,0,0,1,5,9.06ZM1.63,7.69c0,.21.25.25.33.42a1,1,0,0,0,.13.42c-.11.26,0,.53-.19.76a1.88,1.88,0,0,0,0,.54c-.06,0-.05-.12-.11-.17-.27-.46.33-.73.12-1.14a2.46,2.46,0,0,1-.14.53c-.13-.07,0-.18,0-.27a1.18,1.18,0,0,0-.29-.93l0,0a2,2,0,0,1,.24.76l0,0c-.12,0-.15-.29-.32-.19a.92.92,0,0,1,.34.91.36.36,0,0,0-.3-.15l0,0c.34.08.38.47.51.72a1.05,1.05,0,0,0,.08.82c0,.05,0,.11,0,.15-.18-.54-.92-.9-.61-1.58a1,1,0,0,1-.12-.82c.13-.33.3-.76,0-1.08a1,1,0,0,1,.45.21Zm.86,5.38a1.19,1.19,0,0,0-.61-1,2,2,0,0,1-.21.54c-.16.36-.05.75-.18,1.12s.19.61.09.95a1.29,1.29,0,0,0,0,.61c0,.31.36.52.46.8a1.15,1.15,0,0,1,.44.89,4.48,4.48,0,0,1,0-.57,2.48,2.48,0,0,1,.18-.54,1.08,1.08,0,0,0,.08-.8,1.9,1.9,0,0,0-.21-1.62c-.06-.11,0-.25-.11-.36Zm1.69,0c-.08.13-.19.26-.17.4a7.4,7.4,0,0,0-.17,1.26c0,.24-.18.46-.32.63s-.15.54-.42.74c-.07.16-.27.11-.36.25-.07-.3.3-.58.25-.9s.46-.18.53-.46c-.12,0-.25.16-.38.21a.58.58,0,0,1,.11-.4c.26-.05.41-.32.53-.54a.26.26,0,0,0,0-.25s-.06,0-.09.06,0,.2,0,.3l0,0,0,0c-.11.07-.13.23-.27.23.13-.39.06-.79.4-1.09l0,0-.17.19,0,0a.54.54,0,0,0-.21.39c-.11-.07-.09-.3-.06-.39s.13-.23.12-.34a.68.68,0,0,0-.21.3.62.62,0,0,0,.13.59c0,.34-.27.62-.32.95-.13-.16.06-.32,0-.48a1.64,1.64,0,0,0-.13-1.1.86.86,0,0,1,.83-.39,1,1,0,0,1,.48-.18Zm-3.12.11a1,1,0,0,1,.33.39c-.08.18,0,.36-.06.56a1,1,0,0,1,.1.72c-.09-.09-.08-.25-.17-.36a4.4,4.4,0,0,0,0-.95c-.05,0,0-.1-.11-.11a7,7,0,0,1,.06.87c-.3-.15-.08-.59-.29-.84s-.16-.4-.36-.42c.05.08.14.18.21.27a.84.84,0,0,1,.15.61l-.36-.25,0,0a2,2,0,0,1,.83,1.14c-.14-.05-.35,0-.42-.15-.1,0,0,.11,0,.15.18.13.5.07.57.33s.26.57.44.81c0,.05,0,.09,0,.14A3.89,3.89,0,0,1,1,15.43a1.42,1.42,0,0,1-.32-.89c0-.39-.43-.58-.36-1,0-.28.14-.54,0-.8a.8.8,0,0,1,.75.46Zm1.64,4c.28.09.3.42.59.48s.19.48.39.68c.16.37.47.69.38,1.14.36.39.13,1.05.5,1.45h0c-.34-.58-1.06-.6-1.37-1.16-.11-.11-.29-.11-.4-.23a1.63,1.63,0,0,1-.48-1.14c-.33-.26-.29-.66-.32-1.07,0-.13.05-.36-.06-.48a1.83,1.83,0,0,0,.82.33ZM5,18.13A1.22,1.22,0,0,0,4.62,17a.91.91,0,0,1-.34.54c.06.42-.56.33-.54.75a3.57,3.57,0,0,1,.48,1c.39-.45-.29-.79-.15-1.26,0,0,0-.05.06,0a.91.91,0,0,0,.21.63s0,0,0,0a1.69,1.69,0,0,0,.06-.8c0-.05-.1-.16,0-.21.17.11.12.33.17.48,0,0,.13-.11.09-.18.14-.19,0-.37,0-.57h0a.52.52,0,0,1,0,.48c.05.26-.33.47-.27.69a1,1,0,0,0,.38-.27l0,.06a.44.44,0,0,1-.23.21c-.28.06-.25.37-.27.57.16.13.33-.12.42-.17a.19.19,0,0,1-.09.21c-.11,0-.23.12-.36.06l-.12.27c-.1.19.09.33.15.47l.21-.29c.09-.51.76-.9.4-1.46Zm-3.54.21-.38,0a.66.66,0,0,0-.76-.06c.39.14.33.58.57.84a1.06,1.06,0,0,0,.76.61,1,1,0,0,0,.69.42c.25,0,.56,0,.76-.11C3,20,3,19.8,2.85,19.86c-.18-.16-.22.18-.38.21s-.18,0-.24,0,.15,0,.21-.06.13-.13.18-.21c-.16,0-.33-.15-.46-.21s-.23-.19-.34-.11l-.27-.15c-.14,0-.32-.14-.44,0s-.05,0,0-.07c.21-.21.5,0,.72.11a1.31,1.31,0,0,0-.25-.38c-.24-.11-.43-.32-.68-.42.08-.09.16.05.25,0,.47.18.64.71,1.1.89a.4.4,0,0,0-.13-.19c-.08-.25-.31-.36-.48-.57.1,0,.19.07.27.15l0,0c.27.24.34.68.67.84-.14-.25-.25-.46-.38-.72a.88.88,0,0,0-.69-.59Zm3.79,1c-.24,0-.28.28-.51.27,0,0,0,.09,0,.12h.06s0,0,0,.07c-.23-.09-.18.22-.38.27a1.63,1.63,0,0,0,.26.86c.15-.11.51-.08.47-.36A1.65,1.65,0,0,0,5.37,20c-.05,0-.09.1-.15.13-.1-.13.18-.18.17-.34h0c-.1.05-.18.3-.3.19.05-.19.31-.23.36-.38H5.36a.33.33,0,0,0-.15.14c-.08.06-.17.14-.25.11a2.18,2.18,0,0,1,.4-.4l0,0c-.18.08-.27.23-.44.32l0,0a1,1,0,0,1,.42-.36Zm-1.9,1c-.12.19-.33.24-.51.38a.61.61,0,0,0,.49.33c.15.13.39.08.54.21a.42.42,0,0,0,.51,0l-.1,0,.08-.09a.12.12,0,0,0-.11,0l0,0c0-.08.06-.06.06-.13s-.12.11-.17,0l.06-.08c-.06,0-.1.08-.15,0S4,21,4,20.85s0-.07.08-.07-.1.16-.18,0L4,20.7c-.09-.07-.15.11-.24,0s.07-.09.11-.13-.14.07-.21.11l0-.06.15-.12c-.11,0-.17.15-.27.08s.17-.08.15-.17a.39.39,0,0,1-.19.12c-.1-.09.11-.1.06-.14l-.14.06c-.11-.05,0-.13,0-.17Zm.83,1.16c-.46-.29-1.16-.19-1.44-.72-.12,0-.13.15-.12.25.25.29.61.2.9.39,0,0,0,.05,0,.07a2.34,2.34,0,0,0-.69-.18c.07.2.32,0,.4.21s-.18,0-.27,0c-.12.2.19,0,.27.19s-.18,0-.27,0l0,.11c.18.09.42,0,.57.19l0,0C3.39,22,3.13,22,3,22c.09.07.21,0,.3.11s-.17,0-.25,0a.47.47,0,0,0,.32.12c-.07.12-.17,0-.27,0s.17.12.27.15a1.7,1.7,0,0,0,.69.29c.28.15.65.16.9.3a9,9,0,0,0,2.21.21c.18,0,.45,0,.51-.19-.13,0-.32.07-.42,0,.06-.1.14,0,.23,0s.24,0,.18-.09-.05,0-.09,0-.1,0-.09-.06.1,0,.15,0-.1-.09-.15-.13.1,0,.13-.06l-.09-.08s0,0,0,0v-.08s-.11,0-.15,0,.14,0,.13-.11H7.5c0-.09,0-.11,0-.18s0,0,0,0-.21,0-.27-.06,0,0,0-.06.05,0,.07,0,.15.05.18,0-.15-.16-.25-.21a12.08,12.08,0,0,0-1.49,0,7.21,7.21,0,0,1-1.49-.29ZM5.75,19.6a2.5,2.5,0,0,1,0,.42c.15,0,.06-.17.09-.3.09,0,0,.15.11.19a.1.1,0,0,0,0-.11c.09.06.09.14.18.21s.05,0,0-.09l0,0c.09,0,.1.1.15.15s0,.08,0,.11h0V20a.79.79,0,0,1,.3.75,1.23,1.23,0,0,1-.57-.54c0-.06,0-.1,0-.15-.24.07-.06.35-.23.51,0,.16-.15.23-.19.35s0,.3-.11.4c.07.11-.05.21,0,.32-.18,0-.41,0-.63,0,0-.35.24-.66.32-1a1.81,1.81,0,0,0,.24-1.14.39.39,0,0,1,.23.15Zm1.12,1.63.3.39c0,.11-.16,0-.23,0s-.29.08-.4,0a.64.64,0,0,0,0-.59c-.09.1,0,.26-.06.38s-.17-.19-.19-.32.06-.4-.15-.27a2.76,2.76,0,0,0,.25.8c-.16.07-.27-.08-.32-.21S6,21.28,6,21.2L6,21.27a1.9,1.9,0,0,1,.13.33c-.13,0-.38.09-.39-.11s.18-.39.13-.61c.18-.13.15-.36.27-.53.15.41.73.4.76.87Zm-3,1.55s-.05,0-.06,0,.2.1.29.17.08.11.15.1,0,0,0,0c-.54,0-.94-.39-1.54-.3-.08.05-.18.07-.23.15s.17,0,.25-.06a1.75,1.75,0,0,1,1,.23c-.14,0-.35.06-.44.19.28,0,.61-.24.9-.11a.87.87,0,0,1-.44.4c-.33,0-.51-.39-.89-.29A3.73,3.73,0,0,1,2.36,23c0,.07-.07,0-.1,0,0-.19.27-.16.39-.25s.36-.42.57-.19c.21.06.4.19.61.25Zm.48.24,0,0-.19-.15c.08,0,.25,0,.21.13Zm.27,0c0,.06-.1.08,0,.13s0-.15.15-.11-.1.1,0,.14l.12-.14c.08.07-.08.13,0,.21s.07-.14.13-.18l0,.19c.06,0,.07-.12.12-.15s-.07.15.07.13,0-.08,0-.11h0c0,.06-.09.11,0,.17s.1-.12.15-.15-.11.15,0,.21l.1-.19c.1.06-.1.15,0,.19l.11-.17s-.06.11,0,.17l.06-.11a.32.32,0,0,0,0,.19c.09,0,0-.17.08-.21s0,.09,0,.14l.06-.08c.1.37-.32.7-.63,1-.12.17-.23.44-.47.4,0-.08.18-.12.11-.21s-.12.18-.23.17l.18-.19,0,0c-.06,0-.15.18-.25.12a2.33,2.33,0,0,0,.27-.23c-.16,0-.26.23-.42.14a.47.47,0,0,0,.18-.18l0,0a.3.3,0,0,1-.25.17c.06-.08.19-.14.18-.25-.07,0-.16.16-.27.17s.21-.14.17-.25l-.25.17c0-.09.11-.17.18-.23s0,0,0-.07l0,0c-.15,0-.18.26-.36.19.06-.06.2-.1.18-.17s-.25.2-.32,0c.13,0,.2-.13.33-.18-.14-.1-.25.1-.4.12,0-.21.33-.25.47-.44a4.33,4.33,0,0,1,.3-.4s0,.05,0,.06,0-.18.11-.11Zm2,.76c-.17-.18-.32-.42-.59-.45,0,.12-.11.22-.09.36l.3.09c.11.1.44.07.33.32a.83.83,0,0,0-.44-.24c-.23-.13-.3,0-.47.19s-.21.11-.23.25c.15,0,.4,0,.48-.13.26-.11.4.11.63.09s.33.1.47.21,0,.18.15.15c-.19-.3-.35-.55-.55-.84Zm.24-.39a1.77,1.77,0,0,1,0,.53c-.2-.16-.3-.45-.51-.59a1.28,1.28,0,0,1,.49.06Zm.38.34a1.52,1.52,0,0,1-.19.42c-.13-.18,0-.54-.11-.76v0c.34-.16.25.18.3.38Zm2.7.75c-.28-.29-.49-.77-1-.82.11.37-.25.92.14,1.26.54,0,.88.53,1.26.84l0,0a.17.17,0,0,0-.06-.15c0-.16-.2-.27-.32-.38a.56.56,0,0,0-.57-.33c-.07,0-.14-.1-.19-.09s-.13-.12-.06-.21l.12.13c.11.05.25.15.36.08a1.84,1.84,0,0,1-.5-.74s0,0,.06,0c.14.4.51.62.76,1,0-.14-.08-.25,0-.38.18.08.11.35.13.51s.24.19.33.27-.08-.12,0-.17l.06.08c0,.08,0,.17-.06.19,0,.35.34.5.5.69,0,0,0,0,0,0a.43.43,0,0,1,0-.21c-.42-.47-.32-1.17-.95-1.5Zm-1.48-.15c-.05-.1-.07-.25-.15-.29,0,.22.11.38.13.59s.09.25.23.27a3.75,3.75,0,0,0-.21-.57Zm0-.74c-.06-.11-.18-.11-.27-.12a.26.26,0,0,0-.17.11c-.11.1,0,.21,0,.3s.25.11.3,0-.26-.06-.19-.21.2,0,.28.06,0-.07,0-.1Zm-.17.09,0,0v0Zm-1.62,2a.28.28,0,0,0-.3-.13.26.26,0,0,0-.12.34.34.34,0,0,0,.25.11c.13-.06.23-.18.17-.32Zm.63-.15v-.06a.89.89,0,0,0-.48.14c.15,0,.31-.08.48-.08Zm1.35-.46a1.77,1.77,0,0,1,1.64.83A5.31,5.31,0,0,1,11.38,27a1.31,1.31,0,0,1-.27-.11c-.48-.08-.84.15-1.25-.11a1.5,1.5,0,0,1-1.43-.6c-.71,0-.84-.82-1.35-1.16.22-.11.44.14.66,0s.61-.07.89.06ZM8.41,26.3c.17.17.38.43.65.45l0,.06c-.47.16-.62-.46-1.05-.48l0,0a1.38,1.38,0,0,1,.54.36l.09.09c-.47,0-1-.37-1.52-.36.06.09.14,0,.24.06s.49.18.74.27c-.14.1-.49,0-.45.21a1.16,1.16,0,0,1,.89-.06c.27-.12.52.07.78-.08a1.6,1.6,0,0,0,.36,0,1.49,1.49,0,0,1-.66.21v0c.42.16.72-.42,1.1-.13l.23,0a1.18,1.18,0,0,1-.74.27.77.77,0,0,0-.65,0,.92.92,0,0,1-.84-.19c-.28-.05-.68.06-.89-.25s-.38-.46-.65-.54c.18-.12.52,0,.69-.19A1.62,1.62,0,0,1,7.89,26a1,1,0,0,0,.53.25Zm3.37-.48c-.06-.09-.2-.09-.32-.09a.24.24,0,0,0-.11.32c.05.16.24.06.32.09s.14-.21.11-.32Zm.33,1.1c-.11-.23-.11-.54-.36-.68l0,0a4.35,4.35,0,0,1,.33.68l0,0Zm-1.54,1.26h0v.08h0s0-.05,0-.08Zm.06,0c0,.09,0,.15-.09.19s-.11-.06-.14-.1a.16.16,0,0,1,.11-.13s.1,0,.12,0Zm.09,0a.39.39,0,0,1-.07.25.22.22,0,0,1-.27.06c-.07,0-.13-.09-.17-.15a.3.3,0,0,1,.17-.33.43.43,0,0,1,.34.17Zm.92-.32a1.17,1.17,0,0,0-.8.19s0,.05,0,.06c.2-.17.53-.17.78-.25Zm2.3-2c-.49-.42-1.22-.18-1.71,0,.07,0,.12.11.21.11.24.28.38.56.61.82a3.51,3.51,0,0,1,1.91.57c-.07-.12-.19-.18-.25-.32s-.44-.16-.7-.15a.4.4,0,0,1-.25-.11,2.53,2.53,0,0,1,.63,0,2.64,2.64,0,0,0-.32-.14c-.28-.31-.68-.2-1.05-.19,0,0-.11-.05-.09-.11a5.79,5.79,0,0,0,.68,0,1.09,1.09,0,0,0-.57-.25c-.11-.1-.32-.06-.38-.19a1.75,1.75,0,0,1,.71.21c.29,0,.44.4.72.45L14,26.09c-.05-.19-.27-.18-.36-.32l0,0a.88.88,0,0,1,.53.62c.06.31.46.25.61.54s.34.56.69.6c-.1-.33-.41-.56-.44-.91s-.47-.22-.57-.5c-.21-.1-.32-.3-.54-.34ZM14.27,27l-.19,0a2.53,2.53,0,0,0-1.24-.12c-.3.23-.65.15-1,.32-.12.21-.42,0-.57.17.47,0,.67.62,1.14.63.18,0,.25.26.44.27a1.09,1.09,0,0,0,.68.21c0-.07.11,0,.17,0,.32-.05.65,0,.93-.15.09-.06.22.05.32,0,.42.08.64-.38,1.07-.21s.4.43.78.4l0-.15c-.47-.18-.92-.47-1.35-.68A6.13,6.13,0,0,1,14.27,27Zm1.85,1.22a1.69,1.69,0,0,0-.48.11c-.4.39-1.05.41-1.43.9a2.89,2.89,0,0,1-1.16.24c-.19-.08-.39,0-.55.11a1.61,1.61,0,0,1-1.07-.32h-.09c0-.32.32-.49.53-.74a1.28,1.28,0,0,1,.59-.21c.12-.14.23,0,.32.06a1.35,1.35,0,0,0,1.16.17c-.11.1-.31.07-.44.17-.19-.07-.33.15-.48,0s-.37-.2-.53-.09c.05.09.18,0,.25.06s.21,0,.23.15c-.25,0-.45.17-.68.06a.72.72,0,0,0-.74.28c.14,0,.19-.15.34-.17l.46,0a2.24,2.24,0,0,0-.27.23l.06.06a1.18,1.18,0,0,1,.68-.35.85.85,0,0,1,.38-.07c0,.05,0,.23,0,.34s0,.05.06,0,0-.24.08-.39a8.43,8.43,0,0,0,.95-.33c0,.15-.28.34-.11.53.05-.05,0-.08,0-.15.2-.81,1.15-.35,1.63-.78a1.44,1.44,0,0,1,.33.09Zm1,1.43c-.2,0,.05-.16,0-.21L17,29.6l-.06-.07s-.09.08-.11.13.09,0,.11,0c-.2.2-.23.47-.36.69l0,0a.58.58,0,0,1,.11-.3.82.82,0,0,0-.18.3c-.32.68-1,.74-1.62,1v0a.55.55,0,0,1,.38,0c.11,0,.22,0,.27.11l-.51.46v0a.58.58,0,0,1,.4-.15,3.22,3.22,0,0,0,.93-.33c.33-.41.78-.72.95-1.2a.88.88,0,0,1,.1-.78c-.09,0-.08.11-.15.15a.46.46,0,0,1-.11.25c-.1-.05,0-.13,0-.19Zm1,.17c-.06-.13-.11-.33-.25-.38.32.29,0,.71.21,1,.47.43.85,1.19,1.58,1.18.19.18.43,0,.61.24a1.89,1.89,0,0,0-.48-.45c-.05-.09,0-.14.12-.15a1,1,0,0,1,.51,0L20,31.15A1.72,1.72,0,0,1,18.59,30a.4.4,0,0,0,.1.25s0,.08,0,.11-.05,0-.08,0l0,0a1.82,1.82,0,0,0-.32-.57c0-.1.11,0,.11-.06-.07-.25-.19,0-.29-.17l0,0c0,.06.14.11.06.19s0-.05-.06,0,.1.14,0,.18Zm.47-1a0,0,0,0,0,.06.06h.06v0l.15,0s-.07,0-.06.06.11-.05.17,0,0,0,0,0,.08,0,.12,0,.07,0,.11,0,.17,0,.17.1,0,0,0,0,0,.05,0,.06.1-.07.17,0-.05.07-.08.11.11-.07.21,0v0s-.07,0-.09,0v0c.06.05.27-.11.23.06.07,0,.18,0,.24.09s-.05,0,0,.06.18,0,.25,0l-.1.08c.07.07.18,0,.23,0s-.05,0-.06,0,.15,0,.21,0-.11.06,0,.12a.17.17,0,0,1,.24,0s-.08,0-.07.06.17-.06.24,0-.09,0-.06.09.13-.09.21,0l-.13.08c.06.07.18,0,.27,0s-.13,0-.14.08.21-.07.32,0-.11.05-.18.08.21,0,.34,0c-.05,0-.11,0-.15.09s.27-.08.38,0a.44.44,0,0,0-.21.11c.11,0,.25,0,.36,0s-.16,0-.19.08c.12.09.25-.07.4,0,0,.13-.48,0-.17.17.13,0,.26-.13.4-.11-.11.1-.29.06-.42.15.25.08.44-.14.69-.11-.14,0-.25.13-.39.17v0c.33,0,.63-.26,1-.17-.33.06-.6.3-.93.3a.72.72,0,0,0-.44.29l0,.09a.09.09,0,0,1-.11,0,.17.17,0,0,0,0-.19c-.07,0,0,.17-.12.12s0-.13,0-.19l-.09.11c0-.08,0-.14-.06-.21l0,0s0,0,0,0h-.11c0-.05,0-.12,0-.17s-.09.11-.18,0,0-.1,0-.13-.1,0-.15,0,0-.08,0-.12l-.06.08c-.11,0,0-.21-.11-.12v0c-.05,0-.07-.06-.11-.09s0-.1,0-.12,0,.05-.08.06,0-.25-.18-.15c.08-.18-.18,0-.14-.18a.05.05,0,0,0-.11,0l0-.13c-.05,0-.08,0-.13,0s0-.15-.06-.19,0,.09-.11.06,0-.12-.06-.15l0,0c-.1-.05-.09-.16-.15-.23s0,0,0,0-.05-.23-.15-.09-.05-.32-.17-.15c-.06,0-.09-.07-.11-.12a.13.13,0,0,1-.19-.13l0,0s-.05,0,0,.09,0,0-.06,0,0-.08,0-.11l-.07.06c-.07,0,0-.11-.11-.14s0,0,0,.06-.07-.2-.19-.13c.1-.11,0-.23,0-.35s.05.16.17.06Zm-1.6.06c0-.09-.1-.17-.19-.1s-.11,0-.15.12c0,0,0,0-.06,0s-.13,0-.15.09l.06,0c-.05.07-.12,0-.17,0v.07c-.11-.08-.13.13-.25.06s0,0,0,.06l-.17,0c.11.18-.1,0-.15.07s.11.06.08.11l-.18,0c0,.07.05.05.08.08s-.17,0-.23,0c.05.19-.17,0-.21.12s-.17,0-.23.13l.08.08c0,.07-.17,0-.21,0s.05,0,.06.06-.15,0-.23,0l.09.06c-.1.1-.18-.06-.28.06l.09.06c-.06.11-.16,0-.23,0v0h0s0,0,0,0l-.21,0v0c0-.05.09,0,.12,0s-.18,0-.29,0c.05,0,.12,0,.17.08-.11.1-.24-.1-.34,0l0,0c.43.06-.18,0-.15,0l.12.09c-.1.06-.28-.1-.38,0l.21.06c-.06.11-.27,0-.36,0s.18,0,.18.11-.32-.08-.39,0c.09.08.18,0,.28.09-.14.09-.37-.08-.51,0l.17.06c.09.06.2,0,.24.09-.22.11-.49-.19-.63-.11.1.07.26.09.35.17s-.16,0-.23,0a.65.65,0,0,0-.47-.12l0,0c-.08-.06-.18,0-.25,0a1,1,0,0,1,.35.13c.23-.06.33.28.55.17.18,0,.42.13.44.36.16,0,0-.16.09-.21s0,.11.06.14,0,0,0,0l0-.21c.06,0,.06.07.09.11s0-.17.06-.19a.12.12,0,0,1,0,.11c.11,0,.06-.11.11-.17l.06.06c.12,0,.05-.09.11-.17s.06,0,.09,0,0-.11.08-.15l.09,0,0-.15c.06,0,0,.07.06.09s0-.26.23-.19,0-.11,0-.15l.09,0s0-.1.06-.12,0,0,.06,0,0-.15.09-.15a0,0,0,0,1,0,0h.06c0-.05,0-.12,0-.15l0,0c.11,0,.1-.12.12-.19l.09.06c.1,0,0-.1.06-.15s.08-.12.19-.18,0,0,0,.06.07-.21.18-.12.1-.09,0-.13,0,0,.07,0,0,0,0,0h.06s0-.07,0-.11l.18,0s0-.12.06-.13a.07.07,0,0,1,0,.07c.08,0,.08-.08.11-.13a.32.32,0,0,1,.08.06l0-.12.11,0s0-.13.06-.11a0,0,0,0,1,0,0h.06v-.07s.05,0,.09,0v-.21Zm1.19-.78c.11.16,0,.38,0,.57a.56.56,0,0,1,0,.38c-.11,0-.13.23-.27.13s-.16-.34-.24-.49a.51.51,0,0,0,.09.42c-.28-.12-.42.42-.69.15.08-.4-.34-.68-.13-1.05a1.29,1.29,0,0,1,.18-.21c.17-.08.37.07.5,0a.41.41,0,0,1,.48.15Zm2.39.34c.33,0,.43.4.54.65.12-.19-.13-.33-.15-.53.24,0,.37.24.61.21a1.31,1.31,0,0,0,.33.1,1,1,0,0,0,.12.42c.1-.05,0-.16,0-.21l0-.19c.35.08.8.06,1,.42,0,0,.07,0,.09,0s-.28-.19-.24-.3c.26,0,.54,0,.74.21,0,0,.05,0,0-.06-.27-.29-.63-.24-1-.21a2.28,2.28,0,0,0-.42-.1.76.76,0,0,1,.47-.17s0-.06,0-.09a1.45,1.45,0,0,1-1.12.09.56.56,0,0,1-.27-.09,1.91,1.91,0,0,0,1-.08c.18-.06.31-.33.51-.13a1.4,1.4,0,0,1,1.07.93c-.1,0-.17.06-.21.11a1.39,1.39,0,0,1-1.28.09,2.17,2.17,0,0,1-1.64-.42,1.26,1.26,0,0,0-.7-.4c-.25-.1-.46-.39-.74-.38l-.21-.06c.49-.19.81.23,1.31.21Zm2.25-1.33a1.18,1.18,0,0,0-.53-.23,2.16,2.16,0,0,0-.89.06,3.83,3.83,0,0,0-1.41.63c-.6.1-1.05.62-1.62.72v.18c.16-.18.47,0,.57-.33a1,1,0,0,1,1,.09c.11.07.22-.06.32,0,.24-.07.41.13.63.15.52,0,1,.2,1.48-.12.18-.28.51-.27.76-.4s.39-.58.82-.5l-.15,0c-.37.06-.63-.31-1-.24ZM17.56,26s.18,0,.25,0a1,1,0,0,1,1,.11c.3.08.28.45.42.67a.86.86,0,0,1-.47.78c-.19.07-.32.28-.5.4a1,1,0,0,1,.23-.47l0,0a1,1,0,0,0,.21-1.1.14.14,0,0,0-.13-.06c-.05.07-.28-.05-.29.14a.37.37,0,0,1,.36.07.54.54,0,0,0-.46.17c.11.13.33-.18.48,0v.12c-.35-.08-.65.41-1,.09a1.82,1.82,0,0,0-.61-.19.63.63,0,0,0-.53.11c-.05-.25.12-.4.12-.63-.06.07-.18.15-.21.25l0-.19a.09.09,0,0,0-.11.06l.11.74a9.57,9.57,0,0,0,.53.83V28c-.21-.05-.28-.3-.42-.42-.1.1.09.17.11.27s.21.16.27.28c-.31-.11-.44-.49-.76-.55l-.08-.08s0,0,.06,0-.1-.21-.12-.33,0-.24-.09-.28l0,.13a1.68,1.68,0,0,1,0-.42.59.59,0,0,1,0-.4.51.51,0,0,1,.42-.29c.43.08.87.1,1.34.14Zm.11,1.05a.62.62,0,0,0,.72-.08h.21a9.14,9.14,0,0,1-.45.86c-.13,0-.28-.14-.44-.08l-.12.06h-.53c-.19-.27-.33-.51-.51-.78s.14-.14.21-.21.37.08.57.09a.68.68,0,0,0,.33.14Zm4.8-1.51c.14.12.34.09.48.18-.46.15-.45.68-.84.95a3,3,0,0,0-1.87.53c.11-.1.24-.48.54-.46a1.48,1.48,0,0,0,.66-.08.62.62,0,0,0-.36,0,.87.87,0,0,0-.3,0c.33-.1.65-.48,1.1-.33a.38.38,0,0,0,.36-.06s0,0,0-.06c-.19.16-.39-.05-.63,0a3.7,3.7,0,0,1,.93-.4s0-.07,0-.08-.32.07-.47.17c-.36.05-.56.38-.9.51a.81.81,0,0,1,.47-.63,0,0,0,0,0,0,0,1.78,1.78,0,0,0-.33.18c-.22.26-.11.68-.54.72a2.4,2.4,0,0,0-.55.61c-.13.05-.15.24-.33.17,0,0,0,.05-.06,0,0-.28.38-.4.35-.7s.46-.43.66-.71a4.8,4.8,0,0,1,.57-.36,1.37,1.37,0,0,1,1.19-.12ZM11.85,31.11c0-.07.06-.18,0-.23s-.08.18,0,.23Zm.15-.17a1,1,0,0,1,0,.27c-.09-.05,0-.21,0-.27Zm.12.06c0,.09,0,.18-.06.28a.83.83,0,0,1,0-.28Zm0,.36c0-.09-.05-.24.06-.33a.65.65,0,0,1-.06.33Zm.12-.11,0-.18v.17l0,0Zm.15-.15c0,.11-.09.23,0,.34h0c0-.11.05-.25.07-.34Zm.1,0c0,.1-.07.18-.06.3,0-.12.09-.2,0-.3Zm.11.09a.4.4,0,0,1-.06.25.37.37,0,0,1,.06-.25Zm.17.25a.19.19,0,0,1,0-.21.47.47,0,0,1,0,.21Zm.13,0a.44.44,0,0,1,0-.21c0,.07,0,.12,0,.21Zm.18-.07,0,.13c-.11-.07,0-.17,0-.25s0,.1.06.12Zm.15,0c0,.05,0,.07,0,.11h0v-.17s.06,0,.09.06Zm-1.52-.65h0v.12a.16.16,0,0,0,0-.12ZM23.48,31v-.17h0l0,.17Zm-.08.13,0-.24h0l0,.24Zm-.13.11A.34.34,0,0,0,23.2,31c0,.11.08.18.06.27Zm-.11.08c0-.05,0-.24-.06-.32,0,.13.08.18.06.32Zm-.11.07c0-.08,0-.27-.08-.34a.81.81,0,0,0,.08.34Zm-.14-.28h0l.06.19c0-.08,0-.11,0-.19Zm-.07.36c0-.12,0-.29-.08-.33s0,.26.08.33Zm-.11,0c0-.11,0-.21-.06-.32a.54.54,0,0,0,.06.32Zm-.08,0c-.06-.07-.05-.18-.09-.25v.18s0,.09.09.07Zm-.38,0a.64.64,0,0,0,0-.25c0,.06,0,.19,0,.25Zm.14,0c0-.07,0-.18-.08-.21l0,.21Zm.07,0,0,0,0-.15,0,.17Zm-.32.09a1.36,1.36,0,0,0,0-.24c-.08,0,0,.11,0,.18s0,.09.09.06Zm-.19,0c.17,0,0-.1,0-.19l-.06.06s0,.1,0,.12Zm1.6-.74s0,0-.06,0l0,0,0,0Zm4.92-29c-.33-.72-1.17-.76-1.79-1A1.74,1.74,0,0,0,27,1.94c.27.14.21.49.5.61s.41.39.74.48c.26.42.76.56,1.14.82s.42.45.61.6a3.09,3.09,0,0,0-.46-.63l-.07.06-.33-.34a.69.69,0,0,0-.42-.38c-.1-.05-.25,0-.27-.11a.88.88,0,0,1,.39.06l-.21-.27a.42.42,0,0,0-.46-.12,3.78,3.78,0,0,1-.78-.51c0-.05-.12-.12,0-.17s.11.15.19.21c.29.05.41.38.72.38V2.58c-.38-.32-.58-.85-1-1.16a.71.71,0,0,1-.4-.3l0,0c.08,0,.13.11.19.17A2.79,2.79,0,0,1,28,2l0,0c-.09-.15-.06-.37-.21-.48s-.25-.15-.12-.27a1.47,1.47,0,0,1,.39.59c0,.09,0,.12,0,.19-.11.3.24.46.42.63l0-.11a.89.89,0,0,0-.38-.76c.18-.14.18.18.32.21.05.19.26.37.15.57s.2.29.3.46c0-.13.1-.27,0-.42s-.15-.14-.06-.19c.34.21,0,.54.17.82a2.24,2.24,0,0,0,.44.48,3.13,3.13,0,0,1-.32-1c0-.34-.4-.44-.44-.78-.08,0-.13-.12-.23-.12Zm.67-.68a1.12,1.12,0,0,1,.25,1.08,1.52,1.52,0,0,0,0,.82c0,.1,0,.2,0,.27h0c-.05-.59-.48-1-.44-1.66-.08-.12.15-.27,0-.4s.05-.2-.06-.21,0,.11,0,.17,0,.18,0,.25a1.47,1.47,0,0,1-.27-.89c-.11.08-.05.28,0,.4a4.37,4.37,0,0,1,.3.83l0-.09,0,0c-.18-.07-.17-.42-.34-.54a1.41,1.41,0,0,0,.24.62,1.11,1.11,0,0,1-.45-.55.91.91,0,0,1,.3-.84L28.68.3c0,.35.48.49.48.86Zm-2,1.31c.19.35.65.18.78.59a.33.33,0,0,1,.19.15c-.22,0-.39-.24-.61-.3a7.29,7.29,0,0,1-.63-.5s-.08,0-.1,0,.18.07.21.19c-.26,0-.42-.11-.65,0,0,.11.18,0,.25.13s-.17.08-.25,0,0,0,0,0,0,0-.06,0a.2.2,0,0,0,.21.13c.08-.08.22,0,.27-.15a1.15,1.15,0,0,1,.83.29,1.34,1.34,0,0,0-.34.09c.16.17.4-.09.55.12.12-.07.15.08.25.09.38,0,.58.41.92.48v0a1.78,1.78,0,0,1-1.26-.33c-.45,0-.57-.61-1.1-.46-.27,0-.45-.33-.71-.38a1.27,1.27,0,0,1,1.2-.36l.08.17Zm2.66,2.11c.35.07.77.14.92.53.07.23.32.33.36.57s.18.44.23.68a2.23,2.23,0,0,0,.36,1.3h0c-.14-.72-1-.59-1.26-1.19-.26-.42-.76-.62-.92-1.1a2.44,2.44,0,0,0-.42-1,.33.33,0,0,1,.29,0c.18.07.33.18.49.25Zm2,0c0-.47-.49-.7-.51-1.19a.73.73,0,0,0-.35.24c-.11.13,0,.34-.15.48-.38.54.1,1,.38,1.39A.73.73,0,0,0,31,4.89c0-.19-.21-.33-.09-.53l0,0a1.11,1.11,0,0,0,.27.65c-.09-.25,0-.57-.17-.78a.58.58,0,0,1,.13-.61c.18,0-.06.1,0,.18s0,.27,0,.4c.13.35.18-.17.39-.09,0,0,.05,0,0,.07s-.22.14-.29.23c-.11.27.09.55.08.83.06,0,.08-.11.13-.15a.19.19,0,0,1,.23,0s0,0,0,.06-.07-.06-.13,0c-.31.18-.29.49-.29.8a1.3,1.3,0,0,1,.23.68v0c-.12-.44.32-.63.19-1.07a1.92,1.92,0,0,0,.12-.95Zm-2.42.9a1.29,1.29,0,0,0-1.25.09,1.34,1.34,0,0,0,.57.29c.43.21.45.87,1,1,.19,0,.29.21.44.32s.35,0,.44.19.55,0,.76,0l-.15-.18-.06.08a6.5,6.5,0,0,1-.66-.27c-.21-.35-.63-.23-.88-.47.16,0,.38.09.53.09a1.79,1.79,0,0,0-.57-.42c-.13,0-.31,0-.38-.15s0-.05,0-.06.12.11.21.11a0,0,0,0,0,0,0,.94.94,0,0,1-.3-.32c-.1-.11-.18,0-.29-.11s.12,0,.21,0,.25.34.44.4c-.08-.15-.09-.32-.23-.44l0,0c.3.17.17.57.47.74.06,0,.13.12.19.08s-.08-.11,0-.17a2.3,2.3,0,0,1-.54-.69Zm.83-2.26s0-.09-.09-.06v.09s.07,0,.09,0Zm.08-.06a.17.17,0,0,1-.06.17.16.16,0,0,1-.21-.12c0-.06,0-.11.06-.13a.2.2,0,0,1,.21.09Zm.11-.12a.3.3,0,0,1-.08.35A.41.41,0,0,1,30,3.36a.44.44,0,0,1,0-.3c.08-.21.4-.14.47,0Zm-.27.54,0,0v.76c.06,0,0,.13.09.14a2,2,0,0,1,0-.86ZM28.11,4.7s0-.09-.06-.06l0,.09s0,0,0,0Zm.24-.12s0,.11,0,.15-.2.2-.33.12v0s.08,0,.12,0,.1-.16,0-.24a.13.13,0,0,0-.23,0c-.1.06,0,.15,0,.23-.13-.08-.11-.25-.09-.38s.4,0,.47.15Zm.8.12h-.57l0,0c.18,0,.42.08.59,0Zm2,2.47a2.14,2.14,0,0,1-1-.9l0,.19a1.47,1.47,0,0,0,1,.71Zm.47,2.32c-.11-.07-.16-.22-.3-.25A2.33,2.33,0,0,0,30,9.17l.23.24c.33.34.24.83.54,1.19.24,0,.17.31.36.39.42-.11.47.54.93.4.11.28.4.36.63.53,0-.18-.13-.24-.21-.38s-.29-.25-.45-.36a.59.59,0,0,1-.54-.27c.18,0,.28.2.47.17v0c-.06,0-.06-.09-.09-.13-.15-.32-.47-.35-.74-.5-.11-.18-.35-.33-.47-.53,0,0,0-.05,0-.06.2.17.35.4.59.59.11-.05.18.09.23,0-.29-.33-.49-.84-.95-1,0-.05.06,0,.09-.06a2.84,2.84,0,0,1,.57.46c.08.1.11.25.21.3l0-.36c0-.11-.16-.2-.08-.29a.5.5,0,0,1,.14.25c.09.19-.08.41.07.57s.3.38.38.59.19.21.27.27.25.17.36.32a.59.59,0,0,0-.36-.44.8.8,0,0,1-.17-.29c0-.15-.21-.19-.3-.32a2.63,2.63,0,0,1-.17-1Zm.89-1.33c0-.3-.25-.54-.45-.69a.86.86,0,0,0-.18.42c.1.44-.27.78-.17,1.2s-.1,1.2.5,1.54c0,.31.33.35.45.59s.17.56.25.84a1.36,1.36,0,0,1,0-.48c0-.14.14-.25.17-.39-.11-.38.27-.65.11-1-.2-.18,0-.52-.08-.74A3.35,3.35,0,0,0,33,9c0-.36-.32-.58-.5-.84Zm1.48-.53c-.24.18-.18.45-.13.69s.05.26.15.36a1.11,1.11,0,0,1-.11.8c.32.7-.49,1.06-.65,1.6a1.4,1.4,0,0,1,.12-.52c.06-.24-.13-.52.09-.74,0-.15.13-.4.33-.42v0c-.11,0-.21.05-.29.15a.89.89,0,0,1,.33-.91c0-.1-.11,0-.17,0l-.15.17A1,1,0,0,1,33.68,8s-.05,0-.09,0a1.9,1.9,0,0,0-.23,1.19c-.15-.12-.08-.37-.19-.53-.2.4.39.68.15,1.07l-.08.23c-.13-.17.11-.44-.07-.61A1.85,1.85,0,0,0,33,8.67c.14-.25.12-.6.42-.76a.58.58,0,0,1,.51-.27Zm-1.1-.23a2.57,2.57,0,0,0-.21.74c-.07-.1,0-.25.06-.36a1.7,1.7,0,0,1,.11-.38ZM31.53,8.64c-.09,0-.16-.19-.27-.21.09,0,.17.18.27.21Zm-.9-.57c0-.11-.09-.23-.23-.21a.25.25,0,0,0-.24.28.44.44,0,0,0,.19.21c.05,0,.12,0,.17,0s.14-.17.11-.25ZM33.14,7c-.08-.11-.3-.18-.39,0s0,.19.11.27a.33.33,0,0,0,.24,0,.22.22,0,0,0,0-.23Zm.8,5.09h-.06l-.18.38c0,.15-.14.37,0,.49.06-.12-.06-.25.06-.34a.88.88,0,0,1,.19-.53Zm.47-.42c0-.28-.43-.19-.53,0s.08.24.17.33a.43.43,0,0,0,.33-.08.7.7,0,0,0,0-.24Zm.33,1.46a1.31,1.31,0,0,1-.21,1.26,3.66,3.66,0,0,0-.1.63,1.51,1.51,0,0,1-.44.68,1.9,1.9,0,0,1-.72.48s0,.06-.06.08h0c.18-.32.55-.66.53-1.07.13-.25.59,0,.57-.36-.1.18-.28.11-.42.17a1,1,0,0,1,.27-.61c.08-.25.33-.34.51-.51,0,0,0-.07,0-.08a1.47,1.47,0,0,1-.33.23c-.1-.3.13-.6.33-.84l0,0a1.32,1.32,0,0,0-.42,1,.78.78,0,0,1-.17.3,2.91,2.91,0,0,1,.06-.87c-.22.13-.09.44-.18.63s0,.57-.13.78a1,1,0,0,1,.09-.69c.09-.27-.19-.61.09-.83s.31-.48.63-.54a1.07,1.07,0,0,1,.33,0l-.11.25Zm-1.39-.66a2.31,2.31,0,0,1,.23,1.23.73.73,0,0,1,0,.8c0,.48.12,1.17-.39,1.49-.11.34-.56.6-.51,1v.12c-.11-.05,0-.15,0-.25a1.9,1.9,0,0,0-.28-1s0-.1,0-.12a2.8,2.8,0,0,1,0-.66,1.21,1.21,0,0,1-.08-.42c-.12-.6.38-1,.38-1.55a1.07,1.07,0,0,1,.57-.83c.1-.21.07.17.15.23Zm-1.12,1.23c-.29-.47-.83-.24-1.22-.51l0,0a2.59,2.59,0,0,1,.3,1.48c-.07.54.53.69.54,1.2a1.46,1.46,0,0,0,.61.59c0-.35-.33-.59-.3-1-.08-.05-.11-.18-.25-.17s-.31-.11-.24-.27c.09.14.25.16.38.23l0-.18c0-.17-.16-.24-.3-.27a.87.87,0,0,1-.33-.7s.07-.06.11,0a.64.64,0,0,0,.32.63s0,0,0,0c-.15-.25,0-.64-.27-.84,0-.11-.13-.2-.11-.3.13.12.16.29.29.4s0,.19.09.21c.12-.14,0-.35,0-.51s-.17-.15-.06-.23a1,1,0,0,1,.17.27.62.62,0,0,1-.11.62A1,1,0,0,0,32,15c.07.11,0,.28.12.36.05-.27-.07-.46-.06-.75a1.14,1.14,0,0,1,.11-.66c0-.1.14-.17,0-.25Zm.24-.49c-.07-.35-.34-.5-.61-.71.17.23.48.43.61.71Zm-.61-1.09a.2.2,0,0,1-.11.27c-.07.07-.13,0-.23,0a.45.45,0,0,1-.17-.3.33.33,0,0,1,.18-.19s.07,0,.09,0l.06-.06c.08,0,.13.13.17.21ZM33.24,17h0c-.29.42-.93.18-1.16.7a.74.74,0,0,0-.44.56c-.19.45-.64.86-.51,1.35,0,.1-.12.15-.12.25-.2.35-.08.86-.38,1.22a4,4,0,0,1,1.05-.78c.11-.07.21-.19.33-.26L32,20c.06-.13.21-.17.33-.21a1.42,1.42,0,0,0,.47-.69c.11-.11.07-.32.08-.44a1.52,1.52,0,0,0,.32-1.34c0-.1,0-.24.07-.32Zm-2.39.57c0,.45.61.4.53.83l0,0a.79.79,0,0,1-.11.21,2.1,2.1,0,0,0-.3.75c0-.18-.19-.33-.1-.53s.34-.52.19-.8h0a1.56,1.56,0,0,1,0,.39s-.1.18-.14.25a1.33,1.33,0,0,1-.11-.9s.05-.09.08-.12,0,0-.06,0a.72.72,0,0,0-.12.45c-.12-.05-.11-.23-.18-.34s.13-.31,0-.4,0,.11,0,.17.05.31,0,.48a1.94,1.94,0,0,1,.29.51.45.45,0,0,1-.38-.25h0c-.06.07,0,.13.06.18s.38.15.4.34v.33a.68.68,0,0,1-.27,0c0-.07-.09-.09-.13-.17s0,.11,0,.15a.49.49,0,0,0,.45.15c.06.19.25.42,0,.61a.15.15,0,0,1,0,.13c-.15,0-.13-.21-.25-.3-.13-.48-.74-.9-.42-1.45a1.36,1.36,0,0,1,.4-1.2.92.92,0,0,0,.33.54Zm3.94.84c0,.09-.1.05-.15.1-.33.42-.33.93-.82,1.25-.14.14-.42.06-.48.29a1,1,0,0,1-.93.21.79.79,0,0,1-.4-.06.49.49,0,0,1,.15-.21l.25-.08a.53.53,0,0,0,.44.27s.05,0,0-.06a.45.45,0,0,1-.36-.25c.25-.11.48-.25.72-.38s.45-.17.72-.17c0,0,0,.05.06,0l0,0c-.07-.15-.28-.06-.4-.06s-.24.09-.33.17c.15-.42.61-.56.92-.8-.47.07-.79.5-1.1.84-.07,0-.15,0-.21.09a1.49,1.49,0,0,1,.6-.74v0c-.25,0-.44.31-.6.51a.63.63,0,0,1-.4.47,1.16,1.16,0,0,1,.18-.27l0,0c.25-.26.18-.66.54-.89s.76.07,1.08-.23a1.18,1.18,0,0,1,.44.06Zm-3.13-1a.56.56,0,0,1,0,.4,6.3,6.3,0,0,0-.17-.74c.11.07.12.22.15.34Zm-.07-.83a.3.3,0,0,1-.17.38c-.1,0-.16,0-.23-.08a.35.35,0,0,1,0-.3.34.34,0,0,1,.42,0Zm2.13,1.1.08-.09h-.06c-.15.17-.4.34-.44.51a1.74,1.74,0,0,1,.44-.41l0,0Zm.65-.51C34.31,17,34.21,17,34,17s-.15.23-.17.36.23.18.38.19a.45.45,0,0,0,.12-.4Zm-4.64,3.22a1.6,1.6,0,0,1-.12-.86l-.17.12c-.13.15,0,.33-.11.49a1.44,1.44,0,0,1-.09-.32c-.08,0,0,.13,0,.17s-.05-.14-.17,0l0,0c-.05,0,0,.14-.11.15s0-.07,0-.1-.12.21-.19.27,0-.14,0-.21h0a.82.82,0,0,0-.28.74,1.13,1.13,0,0,0,.61-.67c.18-.07.05.14.15.18-.06.38.38.54.29.93.12.11.1.32.07.46a4.09,4.09,0,0,0,.65-.09c0-.24-.16-.41-.19-.63a3.89,3.89,0,0,1-.27-.62Zm2.78.6a.32.32,0,0,1-.25.33,1.22,1.22,0,0,0-.65.23c.11.09.22-.08.36-.06s.25,0,.33-.1,0,0,0,.06c-.08.18-.32,0-.38.19l.32,0c-.06.14-.29,0-.33.18l.27,0c-.06.18-.3.18-.47.21s-.08.05-.15.09a2,2,0,0,0,.55-.07.5.5,0,0,1-.3.13c.07.14.2,0,.27,0s-.24.06-.32.14l.25,0a.22.22,0,0,1-.23.11c-.46.38-1.12.37-1.64.61a7.37,7.37,0,0,1-2.63.13c0-.1-.07-.09-.11-.13.15,0,.34.08.46,0L27.46,23c0-.1.31,0,.17-.12h-.11c-.07-.15.35-.14,0-.19v0s0,0,.06,0-.07,0,0-.11.13.05.17,0-.08,0-.12,0,0,0,0,0l.09,0,0-.06c.09,0,.05-.09.06-.11s.18,0,.28,0,0,0,0-.06-.22.11-.27,0c.12,0,.1-.19.24-.19s.38,0,.59,0a8.82,8.82,0,0,0,1.66-.11c.1,0,.25.11.24,0,.26-.06.51-.17.78-.21a6.21,6.21,0,0,1,.69-.28.57.57,0,0,0,.47-.35s.11,0,.12.11Zm-1.73.5-.17-.12a1.61,1.61,0,0,1-.21.23,1.17,1.17,0,0,0,.38-.11Zm-.42-.32s0,.08-.06.11-.11-.12-.12-.21.11.09.19.1Zm.09-1.33s-.06,0-.09,0,0,0,0,.06.1.09.15,0l.23.27a2.15,2.15,0,0,1-.25.84c-.12-.19-.53,0-.47-.38-.14-.11-.11-.33-.23-.46v-.11c.07,0,.11.14.19.06s-.27-.17-.21-.3c.11.08.17.18.29.25.1-.15-.17-.22-.25-.33h0v-.11c.18,0,.22.26.4.29l0,0c-.14-.12-.24-.31-.42-.39.22-.1.33.35.53.24a1.72,1.72,0,0,0-.44-.36,1,1,0,0,1,.59.42Zm1.81,1c0,.18-.2.23-.32.32l-1,.32-.21-.17s0,0,.09,0l0,0-.06-.08s.08.08.12,0l-.06-.1c.05-.06.23.1.15-.06h0v0l.12,0,0-.06s.06,0,.08,0l-.08-.11.17.06s0-.12-.09-.13.11,0,.18,0l0,0,0,0s-.1-.08-.11-.13a1.06,1.06,0,0,1,.21.13s0,0,0-.06-.11-.07-.15-.13.21.15.28,0a.29.29,0,0,1-.15-.11c.1,0,.2.2.23,0a.47.47,0,0,1-.1-.09s.11,0,.1,0,0,0,0,0,0-.12,0-.17c.11.18.35.21.5.38ZM29.34,21c0,.15,0,.29.11.38l0,.32h-.36c0-.11.11-.26.11-.38-.1.06-.14.23-.21.33a.25.25,0,0,1-.21.07c0-.12.12-.23.13-.36s.19-.35.06-.51c-.12.06,0,.14-.06.24s-.07.3-.19.42c-.06-.11,0-.33-.11-.4-.13.17,0,.41.06.54s-.08.06-.12.09H28a1.24,1.24,0,0,1,.25-.4c.05-.47.6-.48.78-.88.12.17.1.42.3.54Zm-.51,2.47c-.14-.06-.29,0-.44,0-.15.16-.08.37-.07.54.2-.18.28-.39.51-.54Zm.42.27c0-.09-.11-.16-.09-.27s-.14.07-.23.06a5,5,0,0,0-.51.54,4.23,4.23,0,0,1-.44.7c.22-.21.46-.54.8-.4.36-.37.62.25,1,0-.14-.18-.36-.31-.48-.48a.84.84,0,0,0-.66.27l0,0c0-.18.26-.2.4-.27s.3,0,.25-.15Zm1.37-.62h0v.15c-.09,0,0-.1-.11-.12s.08.11,0,.17,0-.14-.12-.15,0,.16,0,.21a1.51,1.51,0,0,1-.11-.17s0,0-.06,0,0,.09,0,.13,0-.06-.1,0,0,.1-.11.06a.1.1,0,0,1,0-.11h-.06c0,.06.09.11,0,.17s0-.18-.18-.14.11.09.07.17,0-.14-.15-.17.14.13,0,.21,0-.16-.13-.18l0,0c.06,0,0,.11,0,.12s0-.1-.11-.11,0,.17,0,.19-.05,0,0-.09,0-.15-.09-.11.1.12,0,.15,0-.1-.06-.12c-.13.63.61.8.82,1.33.1,0,.2.18.27.06l-.12-.15c.1,0,.17.19.25.11-.07-.05-.22-.13-.17-.23s.16.22.27.17c-.08-.09-.21-.16-.27-.27l0,0a1,1,0,0,0,.36.24c.07-.11-.1-.11-.13-.19s0,0,0-.06.14.17.25.15l-.21-.21,0,0c.1.09.14.17.25.19s-.15-.13-.21-.24l0,0c.08.08.15.19.27.15,0-.13-.25-.15-.21-.29.11,0,.21.23.34.19,0,0-.11-.12-.18-.15l0,0c.11,0,.18.27.3.08-.1-.07-.26-.11-.34-.23.15,0,.27.22.42.12l-.17-.18,0,0a2.29,2.29,0,0,1-.61-.69s0,0,0,.06,0,0,0,0a.1.1,0,0,1,0-.11Zm2.21-.17c-.31,0-.48-.31-.75-.4l0,.06c-.29,0-.46.28-.72.27l.06,0c0,.11-.14,0-.14.15a.36.36,0,0,0-.32.19,2.45,2.45,0,0,0,.75-.19c.11-.06.25,0,.36-.1s.49-.06.65.15c-.12,0-.26-.16-.4,0a1.78,1.78,0,0,0-.57.06c-.08.1-.2.1-.27.15l.17,0c.08.08.25,0,.27.14-.31.05-.57-.28-.9-.11a1.23,1.23,0,0,0,.38.39c.26.09.44-.14.65-.24.43.12.54-.36.93-.4l-.11-.13Zm-4.58.51c-.07,0-.16,0-.25,0-.05.22-.09.54.11.69s0,.13.07.11a4.1,4.1,0,0,1,.08-.8ZM27,23.8c0-.09-.05,0-.08,0l0,0s.05,0,.06,0Zm.24-.11c.11.09,0,.17,0,.27a.93.93,0,0,1-.27,0s-.06-.05,0-.1.1,0,.15,0,.12-.11.06-.17-.15-.16-.21-.06l-.06.14s0-.08,0-.12.39-.24.45,0Zm-.27.46-.07,0a4.17,4.17,0,0,1-.33.86c.11,0,.14-.14.21-.21a5,5,0,0,0,.19-.63Zm1,.87a.52.52,0,0,1,.24,0c-.54.2-.53.95-1.12,1.09-.47,0-.57.62-1.05.57-.28.09-.63,0-.87.17-.42.07-.91-.15-1.31.13l0,0c.48-.39.76-.95,1.33-1.18a1.3,1.3,0,0,1,1.1-.68c.42.08.85-.32,1.22-.06.18.07.33,0,.48-.06Zm-1.64-1.26c-.41,0-.69.42-.89.74a1.21,1.21,0,0,0-.35.23c-.44.28-.34.86-.72,1.2a1.32,1.32,0,0,0,0,.36c.14-.12.32-.26.45-.4-.06-.12.22-.26,0-.38,0-.05,0-.13.06-.17s0,.1,0,.17l.14-.12c.42-.09,0-.56.3-.68,0,.11,0,.25,0,.36l.48-.49c.1-.15.13-.37.29-.46s-.07.09,0,.14l-.06,0a1.23,1.23,0,0,1-.42.57.47.47,0,0,0,.48-.21c0,.35-.47.27-.69.44-.07.34-.54.35-.5.74h0c.38-.39.69-.82,1.27-.82.24-.19.18-.56.13-.83a.91.91,0,0,1,0-.44Zm2.15,2c-.08-.14-.25-.08-.36-.15s-.19,0-.27,0a2.21,2.21,0,0,1,.63.15Zm0,.63a1.76,1.76,0,0,1-.78-.21c-.36-.22-.56.21-.89.21a1.48,1.48,0,0,1-.74.51.71.71,0,0,0,.47-.09,1.44,1.44,0,0,1,.57-.38s.09,0,.08,0c-.27,0-.42.26-.63.42l.07,0a8.09,8.09,0,0,0,1-.33.8.8,0,0,1,.45,0,3.55,3.55,0,0,0-1,.34c.09,0,.18,0,.25,0s.22,0,.23.17,0,0-.06,0-.05,0,0-.07a1.2,1.2,0,0,0-.32,0c-.22-.18-.41.07-.65,0s-.4,0-.6,0l0,0c-.09-.11-.26-.06-.36-.06.11,0,.2.12.32.15s.28,0,.36.11-.06,0-.09,0c-.28,0-.52-.18-.78-.25a1.15,1.15,0,0,1-.47.13,1.21,1.21,0,0,0,.78.27c.39-.29.62.22,1,0,.22,0,.28-.17.47-.21.67.24,1-.54,1.45-.76l-.12-.06Zm.5-.59a.22.22,0,0,1-.17.32c-.1-.08-.22,0-.25-.17s.08-.23.19-.28.17.06.23.13ZM24.34,28a1.93,1.93,0,0,0-.87-.24l0,0c.11-.05.22,0,.32,0a1.37,1.37,0,0,1,.53.18v0Zm-.89-1.71a1.94,1.94,0,0,0-.33.66h0a2.55,2.55,0,0,1,.29-.68s.07,0,.09,0Zm.4-.38c-.05-.17-.22-.15-.34-.15s-.15.14-.12.21.14.14.23.19.21-.12.24-.25Zm1.07,2.13c0-.09-.19-.09-.27-.08s-.17.16-.21.25.11.26.25.25a.47.47,0,0,0,.27-.17c.05-.09,0-.18,0-.25ZM3.63,17a.83.83,0,0,0-.17.71A4,4,0,0,1,3.63,17Zm-1.82,1a1.77,1.77,0,0,0-.46-.46c.1.16.4.38.46.46ZM4,16.53c0-.23-.25-.11-.4-.11a.25.25,0,0,0,0,.29.34.34,0,0,0,.23.13c.18,0,.13-.19.18-.32ZM1.22,17c-.07-.14-.18-.09-.32-.13a.31.31,0,0,0-.15.34.26.26,0,0,0,.28.21c.25,0,.17-.24.18-.42Zm.25-4.22c0-.18-.15-.35-.12-.57S1.2,12.08,1.2,12a1.26,1.26,0,0,1,.27.83Zm1.84-.38a2.53,2.53,0,0,0-.63.67,1.21,1.21,0,0,1,.61-.69l0,0Zm-2.06-.91c-.1-.15-.3-.11-.42-.12s-.12.09-.09.12a.25.25,0,0,0,.09.32c.1.09.2,0,.32,0s.14-.17.11-.32Zm2.23.3c0,.08.15,0,.21.09s.06.25,0,.38-.22,0-.32,0A.29.29,0,0,1,3.28,12c.07-.05.08-.18.19-.17ZM4.53,6.88c.17-.21.54-.41.47-.7a5,5,0,0,1-.53.6c-.11.07-.29.09-.34.23a.81.81,0,0,0,.4-.12ZM3.75,8.37,4.3,8.1H4.23l-.48.27ZM2.49,8c0-.25-.17-.46-.21-.69.08.21.3.51.21.69ZM5,7.93c-.09-.11-.26-.26-.4-.11s-.12.18-.06.29a.27.27,0,0,0,.25.15A.39.39,0,0,0,5,7.93ZM2.32,6.83c-.05-.14-.27-.1-.36,0a.32.32,0,0,0,0,.3s.16.05.17,0l0,0L2.34,7c0-.05.06-.14,0-.17ZM6.6,4.62v0a.83.83,0,0,0-.57,0Zm.66-.24c0,.14,0,.32-.18.39s-.21,0-.29-.09,0-.19,0-.3a.25.25,0,0,1,.42,0ZM6.83.51c.11.18,0,.45.12.65C7.4.88,8,.83,8.41.57c.06,0,0-.14.12-.12.18.24-.08.44,0,.74a3.59,3.59,0,0,1-.36.88,1.8,1.8,0,0,1,1.33.55v.06c-.52-.07-.75.54-1.31.44-.28.14-.45.41-.78.42-.23.29-.61.23-.95.28s-.83-.06-1,.33c.09.05.21-.06.32-.09a.52.52,0,0,1,.48.15c0,.11-.18.13-.18.24.18.12.42,0,.61,0A.55.55,0,0,1,7,4.11a.63.63,0,0,1,.38.13.55.55,0,0,1,0,.48.4.4,0,0,1-.47.17c-.24-.33-.66-.09-1-.12a.81.81,0,0,0-.13.44,1.72,1.72,0,0,1,1.1.15c.13,0,.19.13.33.11s0,.07,0,.11c-.35,0-.55.37-.9.36-.28.39-.53.95-1.05,1-.16.14-.32.39-.57.32a.78.78,0,0,1-.78.17,1.63,1.63,0,0,0-.36.15c-.2.14-.15.33-.12.53s0,.22.15.3c.24-.31.64-.3.86-.57l0,0a.39.39,0,0,1,.32-.18.37.37,0,0,1,.33.19c.11.13,0,.26,0,.4s-.23.19-.38.12-.26-.25-.44-.15l-.57.32a1.22,1.22,0,0,0-.09.59l0,0A1.63,1.63,0,0,1,5.06,9a1,1,0,0,1,.33,0c0,.36-.49.39-.56.74s0,.46-.19.66a.61.61,0,0,1-.36.42A.44.44,0,0,1,4,11c-.18-.1-.28.18-.4.25s-.51.1-.61.39-.4,0-.46.29-.19.15-.21.27a1.44,1.44,0,0,1,.33.57c.16-.33.72-.39.51-.84.08-.12.16-.26.32-.29a.7.7,0,0,1,.35.12.43.43,0,0,1,.09.33c-.07.12-.11.3-.27.32s-.34.16-.51.24c-.2.24-.48.52-.33.82.09-.13.29-.11.33-.27.32-.19.73-.13,1.05-.29.06.05.24,0,.17.17-.58.62-.05,1.68-.69,2.29-.25.34-.3.88-.78,1-.25.09-.2.39-.21.54s.4.28.49.53l.14.06a7.37,7.37,0,0,1,.21-.74c-.06-.15-.15-.32,0-.47a.51.51,0,0,1,.51,0,.45.45,0,0,1,0,.53c-.07.15-.36.11-.38.33A3.27,3.27,0,0,0,3.6,18l0,0c0-.05.13-.09.13-.17s.4-.16.38-.38.32-.31.32-.59a.44.44,0,0,1,0-.3c.11,0,.13.08.18.15a1.73,1.73,0,0,1,.51,1.43c.23.41-.07.83-.27,1.16l0,0a.4.4,0,0,1,.45-.15c.45.18.74.61,1.22.69a1.1,1.1,0,0,1,.27.95c.11.09.1.23.15.33.28.15.2.54.48.7.28.33.24.78.36,1.18,0,.08-.09.11-.13.17s-.33.07-.42.17a2,2,0,0,1,0,.63c-.05,0-.09.07-.13.11-.09.29.25.46.27.72.08.11.25.06.34,0A.77.77,0,0,1,8,24.83l.38,0a5.17,5.17,0,0,1-.25-.74c-.12,0-.25-.09-.27-.24s0-.25.09-.35.24-.07.36-.11.3.25.23.42c-.28.34.06.74.19,1.07l.12.11c.11-.09,0-.17,0-.25-.1-.4.21-.79-.11-1.13a1.05,1.05,0,0,1,1,.53c.08.12.14.3.32.29a1.76,1.76,0,0,1,.74,1.16,1.15,1.15,0,0,1,.3.89,3.41,3.41,0,0,0,.72.65c0-.07.2,0,.17-.14a.66.66,0,0,1-.09-.25c-.11-.23-.26-.5-.54-.51-.05-.13-.18-.31,0-.44a.4.4,0,0,1,.4-.15c.13,0,.19.16.25.27s-.18.27,0,.4a2.72,2.72,0,0,1,.34.65c.24,0,.41-.17.63-.23a0,0,0,0,0,0,0,1.58,1.58,0,0,1-.27-.38c0-.35-.5-.27-.53-.62.1-.06.25,0,.36-.11a1.54,1.54,0,0,1,1.7.13c.32.1.51.51.87.59.11.18.29.38.27.59.16.23.38.38.38.68a3.35,3.35,0,0,0,.87.48l0,0c-.17-.29-.48-.25-.63-.53a2.42,2.42,0,0,1-.19-.93.52.52,0,0,1,0-.48.55.55,0,0,1,.61-.25l1.13.12A1.41,1.41,0,0,1,19,26c.1,0,.17.15.23.23.1.34.31.71,0,1s-.67.45-.9.83c.06.06.18,0,.27,0a10,10,0,0,0,.92-.53c0-.33.37-.49.4-.8.07-.54.7-.61,1-1,.29-.14.5-.41.84-.38a2.77,2.77,0,0,1,.75.09,4.7,4.7,0,0,0,.59.21c0,.3-.5.3-.5.65-.17.1-.19.29-.3.4.24,0,.41.26.63.18.18-.26.18-.51.4-.76a.39.39,0,0,1,0-.34c0-.12.17-.16.27-.21a.47.47,0,0,1,.38.19c0,.14,0,.27-.06.38s-.49.23-.53.51c0,.12-.16.25-.09.36.24.18.34-.18.55-.24l.33-.38a1.06,1.06,0,0,1,.3-.9,1.48,1.48,0,0,1,.33-.76c.25-.3.68-.36.78-.77a1.27,1.27,0,0,1,.89-.39c0,.16-.21.32-.11.53s.1.48,0,.7c0,.05-.14.1-.06.17.24-.08.23-.37.35-.55s.18-.31.09-.46a.59.59,0,0,1-.09-.36.54.54,0,0,1,.25-.21.4.4,0,0,1,.36.12c.07.19.15.32,0,.48a.53.53,0,0,1-.19.09c-.13.23-.06.47-.23.68v.08a1,1,0,0,1,.76.11c.1,0,.21,0,.25-.12s.42-.39.21-.67-.11-.49-.15-.74-.28,0-.38-.15-.12-.05-.15-.11c-.13-.25.15-.4.09-.65a1.05,1.05,0,0,1,.39-.74.24.24,0,0,0,.06-.21c.24-.33.53-.67.4-1.12.09-.21.14-.49.4-.57.48,0,.66-.52,1.12-.61,0-.06.15,0,.21,0s.13.13.21.17c0-.24-.28-.4-.3-.65-.2-.4.2-.69.06-1.14,0-.36.41-.66.6-1,0,0,0,0,0,0,.13.16-.08.44.11.6.36.13.16.59.57.65.06.07.1.18.19.21l0,0a2,2,0,0,0-.21-1,.46.46,0,0,1-.28-.11.59.59,0,0,1,.07-.55c.11-.13.29,0,.4,0a.12.12,0,0,0,.11,0,.58.58,0,0,1,0,.56c.17.17.11.42.17.63l.07,0c.25-.32.83-.46.63-.95-.18-.24-.49-.25-.63-.5s-.1-.57-.39-.72a1.3,1.3,0,0,1-.33-.63c-.07-.54.05-1.26-.38-1.69,0-.12.15-.09.23-.12a3.39,3.39,0,0,0,.83.21,1.7,1.7,0,0,1,.5.35.23.23,0,0,0,.07-.27,2.4,2.4,0,0,0-.61-.75c-.17-.08-.44,0-.51-.24s-.11-.19,0-.32.29-.25.48-.25a.5.5,0,0,1,.25.38c-.2.33.37.41.44.69,0,0,0,.06.09.06s0-.1,0-.15.32-.32.25-.54c-.24,0-.18-.41-.47-.33-.31-.1-.3-.55-.69-.47s-.25-.39-.54-.3c-.24-.09-.21-.39-.45-.48-.3-.27-.2-.65-.4-1s-.56-.38-.53-.68a3.54,3.54,0,0,1,1.6.12l.24.15V8.81a1.71,1.71,0,0,0-.83-.5c-.11.12-.23.26-.4.17s-.26-.1-.27-.25a.34.34,0,0,1,0-.32c.08-.19.32-.15.48-.12s.13.16.17.25c.27.17.63.23.83.5a1,1,0,0,0,.14-.71c-.29-.45-.83-.11-1.18-.34-.06-.17-.25-.1-.38-.17-.24-.35-.69-.33-.93-.68s-.31-.7-.74-.71c-.11,0-.2-.17-.32-.21s-.25,0-.25-.13c.44-.18,1-.47,1.44-.23a.88.88,0,0,0-.13-.51c-.24,0-.5,0-.76,0A.37.37,0,0,1,28,5c-.15,0-.21-.2-.27-.3a.76.76,0,0,1,.06-.38.4.4,0,0,1,.45-.06c.14.06.17.21.25.32s.35,0,.54,0c.06-.15-.14-.18-.17-.32a.62.62,0,0,1,.69,0c.05.05.12.05.17.12l0,0c-.31-.55-.91-.35-1.41-.42s-.61-.33-.95-.39-.41-.46-.71-.35-.64-.46-1-.42l0,0A2,2,0,0,1,27,2.15l0,0A1.93,1.93,0,0,1,26.6,1c-.11-.14,0-.32,0-.45s.13.15.24.19a7.75,7.75,0,0,1,1.37.54c.09-.33,0-.7.35-.92.07-.11.11-.33.3-.21,0,.17,0,.4.17.53s.21.28.27.44a1.79,1.79,0,0,1,.21,1.58,4.7,4.7,0,0,1,.11,1c0,.1.21.17.21.29s.12.14.19.19c0-.2.13-.55,0-.68s-.16-.42,0-.57.32-.09.48,0,.18.35.15.54-.19.11-.27.21c0,.33-.14.87.27,1,0-.14.07-.36.06-.47l0,0c.29-.15,0-.44.27-.61l0,0c.16-.18.38-.19.54-.36.11.12,0,.25,0,.4s.33.4.39.65a1.61,1.61,0,0,1,0,1.31c.08.4-.24.63-.15,1a.94.94,0,0,0,0,.8l.11.11c.15-.07.07-.2.15-.32s.1.11.13.17a4.24,4.24,0,0,1,.44.48,3.61,3.61,0,0,1,.21-.5c-.05-.14-.16-.31-.09-.45a.41.41,0,0,1,.45-.12.52.52,0,0,1,.17.25c0,.39-.49.33-.44.71s-.23.59.11.78c.09-.05.08-.2.08-.29.18-.27.42-.65.76-.72.06-.06.21,0,.23-.09h0c0,.33-.29.62-.11,1s.29.76,0,1.05c.24.71-.4,1.09-.63,1.66-.05.32-.61.66-.25,1,.1-.08.06-.25.21-.27s0,.16,0,.23l.21.47c.09,0,0-.11.06-.17,0-.25.43-.46.13-.7a.33.33,0,0,1,.18-.29c.15-.11.29-.05.45,0a.42.42,0,0,1,.12.47c-.09.35-.59.06-.61.48a3.39,3.39,0,0,0-.1,1c.05-.1.17-.14.25-.21l0,0c.19-.41.72-.42,1.1-.4,0,.21-.27.11-.25.32,0,.47.15,1-.25,1.4a2.32,2.32,0,0,1-.18.78c0,.11-.15.21-.19.33-.38.54-1,.6-1.33,1.18,0,.14-.22.22-.09.34.22-.1.4-.31.66-.3,0,.11-.12.15-.11.25l0,0v.71c.21-.21.6-.35.5-.75,0-.11.12-.17.21-.21a.42.42,0,0,1,.45.19c0,.22.06.44-.17.56a.33.33,0,0,1-.36,0A3.61,3.61,0,0,0,33,18.66l0,0c.31-.53.89-.19,1.31-.44a1.19,1.19,0,0,1,.69.15c-.11.18-.39.18-.44.42-.16.46-.43,1-.95,1.16-.19.13-.4.38-.68.39a.83.83,0,0,1-.63,0,.46.46,0,0,1-.4-.11l0,0a1.14,1.14,0,0,0,.53.35c.12.11.33.24.25.45a3.82,3.82,0,0,0-.48,1.33c.23.1.4.33.66.36a.54.54,0,0,1,.29.4c-.38-.11-.52.34-.86.36s-.34.19-.55.19a.14.14,0,0,1-.14.06c-.06.08.05.13,0,.23-.25.26-.57.46-.83.7a.59.59,0,0,1-.48.17,1.48,1.48,0,0,1-.39-.42c-.34.13-.6-.15-.89-.13-.23.24-.64,0-.76.32-.09,0-.12.14-.17.21a.62.62,0,0,0,.3.11c0,.16-.25.1-.34.24a.7.7,0,0,0-.14.18,2.59,2.59,0,0,1,.63.19.42.42,0,0,1,.39-.06.44.44,0,0,1,.17.48c-.09.06-.2.2-.33.15s-.17,0-.23-.09a.28.28,0,0,1-.09-.23.87.87,0,0,0-.69-.17c-.1,0-.16.17-.24.25s.17.08.21.09a2.84,2.84,0,0,0,.87.23c.11.06.34.07.32.28-.49-.15-.66.48-1.05.65s-.73-.07-.95.27c-.44.19-.83-.18-1.22,0A1.57,1.57,0,0,1,24.57,27a1,1,0,0,0-.82.21.74.74,0,0,1,.42.21v.09a.53.53,0,0,0-.39,0c-.1,0-.17,0-.23.1.21.14.53.08.72.21s.12.12.18.09a.39.39,0,0,1,.4,0,.47.47,0,0,1,.23.34c0,.13-.14.29-.27.35a.44.44,0,0,1-.42-.14A.66.66,0,0,0,24,28a1.16,1.16,0,0,0-1,.06c-.05,0-.17,0-.12.07v0a.3.3,0,0,0-.24.09c0,.11.21.09.32.11a1.68,1.68,0,0,1,1,1.12,8.19,8.19,0,0,1-.9.32c-.25-.07-.49.05-.7-.1A2.29,2.29,0,0,1,20.49,29a1.73,1.73,0,0,0-.53-.23,1.7,1.7,0,0,0-.69-.34c-.11-.11-.28,0-.39,0-.1.17-.29.11-.42.21.13.21.39.19.55.36a3.17,3.17,0,0,1,.76.45c.17.05.34.22.53.29a10.18,10.18,0,0,0,.89.59c.18,0,.33.17.53.21.42.35,1,.12,1.49.28.21,0,.48-.13.59.08-.18,0-.18.23-.27.34s-.27.37-.53.35l-.08.07c-.49-.12-1,.33-1.35-.07-.21-.2-.49-.33-.71-.54a2.67,2.67,0,0,1-.6-.44c-.7-.35-1.16-1.15-2-1.26,0,.24.3.33.32.56.26.47.61,1.14,1.22,1.19.32.11.72.17.83.53-.2,0-.45-.22-.69-.09a2.09,2.09,0,0,1,.61.8s0,0-.06,0-.29-.34-.5-.39a5.42,5.42,0,0,1-.95-.28c-.45-.24-.74-.75-1.12-1.09,0-.11-.11-.21-.08-.32s0-.18,0-.28-.05-.38-.25-.5c-.53.26,0,.91-.42,1.22-.54.54-1,1.19-1.77,1.2-.32,0-.49.28-.74.42a1,1,0,0,1,.27-.55c.12-.05.18-.2.27-.27s-.17,0-.25,0-.31,0-.42.15c0-.32.42-.4.68-.5a1.46,1.46,0,0,0,1.1-.74c.22-.34.32-.79.69-1v0a2.46,2.46,0,0,0-1.05.44c-.72.69-1.63,1.23-2.42,1.86-.32.26-.63-.06-1,0-.08.05-.22,0-.32,0s0,0,0,0a.9.9,0,0,1-.63-.57c-.05-.09-.16-.08-.19-.17a.49.49,0,0,1,.49,0c.31,0,.69-.06,1,0,.11-.06.27,0,.38-.12,1.13-.32,2-1.26,3.06-1.69.12-.18.37-.1.48-.27-.25,0-.45-.28-.71-.21-.46-.07-.74.43-1.19.46a2.57,2.57,0,0,1-1.39.71c-.33.21-.75-.15-1,.15a1.78,1.78,0,0,1-1.12-.32c-.07,0-.17,0-.21,0a1.79,1.79,0,0,1,.44-.74,1.48,1.48,0,0,1,.91-.42c-.09-.13-.29-.17-.45-.21a1.35,1.35,0,0,0-1.1.09c-.19.14-.17.47-.46.48s-.25-.11-.36-.17a.33.33,0,0,1,0-.3c.07-.11.1-.21.23-.25s.17,0,.28,0,.35-.11.54-.12a1.83,1.83,0,0,0,.44-.1c-.15-.18-.32-.13-.53-.17l0,0s0-.07,0-.11.31-.13.42-.24A1.12,1.12,0,0,0,10.6,27a1.21,1.21,0,0,1-1.26.36,1.79,1.79,0,0,1-1,.08c-.15-.05-.3-.24-.44-.17-.58,0-.91-.52-1.33-.8-.07-.06-.31.14-.25-.1s.21-.05.29-.15A1.05,1.05,0,0,0,7.36,26c.11,0,.33-.05.32-.18s-.15-.25-.32-.21a.83.83,0,0,0-.6.18.2.2,0,0,1-.08.21.49.49,0,0,1-.27.12.43.43,0,0,1-.32-.21.7.7,0,0,1,.14-.42.47.47,0,0,1,.36,0c.24.09.45-.17.69-.1,0-.12-.16-.24-.25-.32s-.16,0-.24-.07c0-.19.48,0,.25-.29s-.62-.21-.89-.42c-.15-.05-.27.07-.4.15l-.47,0c-.13.15-.25.4-.46.42-.47,0-.74-.52-1.16-.74a.39.39,0,0,1-.11-.23s.09-.05.06-.11c-.27-.07-.47-.39-.78-.3s-.48-.47-.8-.33c-.06-.13.08-.24.15-.34A3.68,3.68,0,0,0,3,22.34a5.42,5.42,0,0,1-.17-.65c0-.35-.52-.61-.25-1,.12-.16.37-.1.47-.29.1,0,.16-.11.21-.17-.36.05-.83.2-1.16,0s-.4-.35-.61-.4a1.71,1.71,0,0,1-.89-1.14c-.07-.22-.32-.31-.47-.44a1,1,0,0,1,.76-.15c.18.22.49,0,.71.09s.42.13.51.35a.6.6,0,0,0-.19-.33,3,3,0,0,0-.69-.72c-.11,0-.24.08-.36,0s-.18-.17-.21-.27a.51.51,0,0,1,0-.36c.08-.2.35-.15.48-.13a.53.53,0,0,1,.19.53l.44.45,0-.06c0-.29.1-.72-.18-.91v0a.4.4,0,0,1,.32,0,.5.5,0,0,0,.38.25s0-.07,0-.11a3.79,3.79,0,0,0-.5-.66A2.13,2.13,0,0,1,.54,14.46c-.06-.22-.29-.38-.29-.63s.12-.66,0-1c-.05-.1-.2,0-.23-.17s.31,0,.42-.06.36.05.53.21a1.88,1.88,0,0,0,.4.44,1.24,1.24,0,0,0,0-.51c-.08-.1,0-.25-.11-.35A.45.45,0,0,0,1,12c-.16.06-.28-.1-.39-.18a.38.38,0,0,1,0-.35.8.8,0,0,1,.15-.19c.07,0,.15,0,.18-.06s.38.12.42.32-.18.35,0,.47.16.27.18.46a1.09,1.09,0,0,0,.25-.65c.18-.11.25.49.34.06s-.34-.5-.34-.82a.78.78,0,0,1-.08-.24c-.33-.4-.79-.85-.57-1.45-.47-.59.39-1.25-.09-1.84,0-.05,0-.07,0-.12s.42,0,.59.14a2.25,2.25,0,0,1,.55.89c.33-.3.08-.79,0-1.1-.1-.14-.31-.12-.32-.32A.34.34,0,0,1,2,6.64c.17,0,.35,0,.42.15a.48.48,0,0,1-.08.42,5.62,5.62,0,0,0,.23.53l.13-.17,0,0a1.08,1.08,0,0,0,.42-.44c.1.07.06.25.19.32.36-.4,0-.88,0-1.33-.2-.24-.05-.62-.21-.87a1.67,1.67,0,0,1,.33-1.49.7.7,0,0,0,.12-.54V3.12c.11,0,.2.12.32.13.53.14.21.71.57,1l0,.3c.08,0,.13-.1.21-.11a2.24,2.24,0,0,0,0-.91c-.07-.13-.28-.08-.27-.25a.47.47,0,0,1,.06-.42A.45.45,0,0,1,5,2.7a.44.44,0,0,1,.24.15.45.45,0,0,1-.09.53h0a5.44,5.44,0,0,0,0,.66c.19-.25.53-.54.42-.91A2.16,2.16,0,0,0,5.54,2,1.43,1.43,0,0,1,5.9.91c-.05-.32.41-.37.42-.69-.08,0,0-.11,0-.17a.11.11,0,0,1,.09,0h0a.27.27,0,0,1,.11,0C6.55.23,6.73.33,6.83.51Z"/><rect class="cls-3uma" x="6.09" y="1.32" width="0.03" height="0.04"/><path class="cls-4uma" d="M29,2.09c-.06,0,0-.1-.08-.13S28.94,2.07,29,2.09Z"/><path class="cls-2uma" d="M4.94,3.14c0-.1-.11-.08-.11,0s.06,0,.11,0ZM5,3.06c.07.11,0,.19-.13.19a.18.18,0,0,1-.12-.06A.16.16,0,0,1,4.85,3C4.9,3,5,3,5,3.06Z"/><path class="cls-2uma" d="M30.29,3.27s0-.09-.09-.06v.09s.07,0,.09,0Zm.08-.06a.17.17,0,0,1-.06.17.16.16,0,0,1-.21-.12c0-.06,0-.11.06-.13A.2.2,0,0,1,30.37,3.21Z"/><path class="cls-2uma" d="M5.67,4.45c-.46.23-.55.81-1,1.12l0,0c.3.08.47-.21.68-.36L5.42,5c0,.23-.25.43-.45.57s-.48,0-.54.32S3.9,6.6,3.73,7c0-.44.77-.57.48-1.08,0-.22-.08-.45.09-.63a.9.9,0,0,0,0,.72c.11-.44.72-.69.55-1.22,0-.05,0-.18.12-.15-.13.12-.09.33-.11.48.16.08.2-.18.3-.27a.89.89,0,0,1,.42-.42Z"/><path class="cls-2uma" d="M7.08,4.53s0,0-.06,0a.05.05,0,0,0,0,.11s.08,0,.06-.09Zm.09,0c0,.08-.08.06-.11.12a.16.16,0,0,1-.15-.11c0-.11.09-.08.13-.14A.13.13,0,0,1,7.17,4.58Z"/><path class="cls-2uma" d="M30.16,5.3c0-.2.09-.4-.06-.55l0,0c.22.25,0,.63.28.84a2.21,2.21,0,0,1,.4.57c0-.11,0-.3.11-.4-.06-.1,0-.23-.12-.32s.11.11.12.17a4.61,4.61,0,0,1,0,.78c.13.26.54.42.53.74,0-.34-.48-.44-.59-.74a1.57,1.57,0,0,0-.08-.21c-.06-.13-.1-.3-.24-.36-.32,0-.54-.25-.76-.47,0-.06-.06-.09-.06-.14s0,0,0,0a1.08,1.08,0,0,0,.74.62l0,0a7.61,7.61,0,0,1-.74-1c-.11-.1-.19-.16-.29-.24C29.83,4.59,29.9,5.07,30.16,5.3Z"/><path class="cls-2uma" d="M2.2,6.91c0-.06-.11,0-.09.07s0,0,0,0,.05,0,0-.09Zm.06,0c0,.14-.11.18-.21.12a.13.13,0,0,1,.08-.18A.16.16,0,0,1,2.26,6.9Z"/><path class="cls-2uma" d="M33,7h-.06v.06s.07,0,.08,0,0,0,0,0Zm.08,0a.1.1,0,0,1,0,.11c-.1,0-.21,0-.19-.11S32.9,7,32.94,7A.23.23,0,0,1,33.07,7.09Z"/><polygon class="cls-2uma" points="3.63 7.15 3.65 7.02 3.71 7.02 3.63 7.15"/><path class="cls-2uma" d="M3,8.41a1.44,1.44,0,0,1-.23.89,1,1,0,0,0,0,.4c.21-.31.58-.58.53-1h0c.06.47-.38.82-.62,1.18,0,.07,0,.14,0,.19a1,1,0,0,0,.59-.36c0,.28-.43.36-.61.55a5.92,5.92,0,0,0-.28,1h0c-.15-.34.41-.69-.09-1-.12-.28.09-.56-.11-.8l0,0c.22.29-.1.78.27,1,.2-.29.14-.72.21-1.08s-.29-.66-.1-1a5.41,5.41,0,0,0,.13.69c0,.05.09,0,.12,0,.18-.41,0-.88.21-1.25C3,8,2.86,8.23,3,8.41Z"/><path class="cls-2uma" d="M4.65,8V8h0V8Zm.13,0a.15.15,0,0,1-.19,0,.19.19,0,0,1,0-.11C4.62,7.86,4.84,7.89,4.79,8Z"/><path class="cls-2uma" d="M32.4,9.28c.1-.16.05-.31.17-.47a1.1,1.1,0,0,0,0-.25l0,0a.62.62,0,0,1,0,.55,1.31,1.31,0,0,0,0,.8,1.25,1.25,0,0,0,.12.74c.35-.25.12-.68.28-1h0c-.18.25.1.67-.14.92s.08.59,0,.86h0c-.11-.51-.13-1.21-.74-1.36-.05-.1-.17-.11-.15-.24a1.72,1.72,0,0,0,.54.4c.1-.07,0-.16,0-.25a1.8,1.8,0,0,1-.61-1.18h0a1.25,1.25,0,0,0,.36.84c.05.06.08.16.17.18l0,0a1,1,0,0,1-.09-.33c-.39-.39,0-1-.32-1.43l0,0C32.35,8.36,32.06,8.87,32.4,9.28Z"/><path class="cls-2uma" d="M30.37,8.2l0,0-.09,0,0,.06Zm.13,0c0,.1-.11.17-.21.11a.15.15,0,0,1,0-.21C30.39,8,30.43,8.1,30.5,8.16Z"/><path class="cls-2uma" d="M21.41,9c.1,0,.2.11.13.23s-.16,0-.21.07-.16-.06-.15-.15.19-.11.25-.17Z"/><path class="cls-2uma" d="M22.28,9.09s-.08,0-.1.06S22.2,9.06,22.28,9.09Z"/><path class="cls-2uma" d="M21.08,9.17s-.05,0,0,.09l0,0,0-.06a.09.09,0,0,1,0,.11s0,0,0,0l0,0L21,9.23c.09,0,0-.06.07-.11S21.07,9.16,21.08,9.17Z"/><path class="cls-2uma" d="M22.34,9.23c.1,0,.06,0,.12.09a0,0,0,0,0,0,0s.09,0,.11.11-.18,0-.3-.06,0,0,0-.06l-.08,0,0,0-.06-.08C22.21,9.19,22.27,9.35,22.34,9.23Z"/><polygon class="cls-2uma" points="21.23 9.36 21.2 9.3 21.23 9.3 21.23 9.36"/><rect class="cls-1uma" x="22.4" y="9.27" width="0.04" height="0.04"/><path class="cls-4uma" d="M22.11,11.28c-.13.08-.08-.12-.12-.19a.65.65,0,0,1-.09-.27A.81.81,0,0,1,22.11,11.28Z"/><path class="cls-4uma" d="M22.09,11.34s0,0,0,0,0,.11,0,.15l0-.19Z"/><path class="cls-2uma" d="M1.05,11.64a.08.08,0,0,0-.11-.06v.08a.07.07,0,0,0,.11,0Zm.09,0c0,.1,0,.12-.09.17s-.15,0-.21-.11,0-.12.09-.17S1.13,11.48,1.14,11.59Z"/><path class="cls-2uma" d="M34.19,11.76c0-.08-.05-.09-.11-.08s-.06.11,0,.14.06,0,.09-.06Zm.06-.11a.24.24,0,0,1-.06.21s-.1,0-.13,0-.12-.18,0-.25S34.18,11.57,34.25,11.66Z"/><polygon class="cls-4uma" points="22.11 12 22.09 11.89 22.11 11.93 22.11 12"/><path class="cls-2uma" d="M3.57,12.08v.09h0v-.09Zm.12,0c0,.07,0,.18-.11.19s-.15,0-.15-.09A.37.37,0,0,1,3.54,12,.16.16,0,0,1,3.69,12Z"/><path class="cls-2uma" d="M31.62,12.21l-.09,0v.11s.06,0,.09-.06Zm.06,0c.06.07,0,.15-.09.17s-.15-.09-.17-.18S31.67,12.09,31.68,12.18Z"/><path class="cls-2uma" d="M2,12.6c-.12.41.31.69.14,1.1a1.16,1.16,0,0,0,.07.65c.15-.16.13-.4.27-.56s-.12-.37-.09-.55c.11,0,.05.2.13.27.06.35-.18.52-.21.83-.19.18,0,.42,0,.62v.5A.93.93,0,0,0,2.62,15l0-.44a.93.93,0,0,1-.27,1,.67.67,0,0,0,0,.45c0,.12.07.28,0,.36a3.43,3.43,0,0,1-.15-1.12,1.05,1.05,0,0,1-.54-.92c.11,0,0,.22.11.29,0,.24.24.38.42.49a4.05,4.05,0,0,0-.19-.83c-.06-.36-.4-.57-.36-.95.07,0,0,.12,0,.19A3.14,3.14,0,0,0,2,13.9a.88.88,0,0,0-.08-.84V12.6Z"/><path class="cls-2uma" d="M33.21,12.9c0,.37-.33.64-.15,1l0,.07c.1-.2.33-.36.27-.6h0c.1.27-.25.48-.27.72s-.11.54-.25.8c0,.07-.08.17,0,.24a1,1,0,0,0,.47-.78h0c-.07.22,0,.42-.21.59a1.66,1.66,0,0,1-.36.33,2.91,2.91,0,0,1-.06.89c0,.07,0,.15-.06.21a1.54,1.54,0,0,1,.11-.69c0-.11-.11-.11-.15-.17a1.09,1.09,0,0,1-.17-.93,1.2,1.2,0,0,0,.27.95c.13-.13-.08-.31,0-.48.46-.61-.52-1.09-.06-1.73,0,.21-.18.64.09.84,0,.1,0,.2.12.27.25-.4-.14-.95.17-1.26a3.23,3.23,0,0,0,0-.48C33.24,12.73,33.16,12.85,33.21,12.9Z"/><path class="cls-2uma" d="M21.71,12.81l0,0Z"/><path class="cls-2uma" d="M21.65,12.9l0,.1Z"/><path class="cls-2uma" d="M14.38,12.95h0Z"/><polygon class="cls-2uma" points="14.18 13.01 14.18 12.98 14.24 12.98 14.18 13.01"/><rect class="cls-1uma" x="14.02" y="13.03" width="0.04" height="0.04"/><path class="cls-2uma" d="M13.91,13.13s-.06,0-.09,0l0,0c0,.07-.11,0-.15.11s-.08,0-.12,0l0,0,0,0s.17,0,.13-.06S13.82,13.13,13.91,13.13Z"/><rect class="cls-1uma" x="21.35" y="13.22" width="0.02" height="0.02"/><path class="cls-2uma" d="M13.43,13.4a.05.05,0,0,0,0,0s0,0,0-.06l0,0,0,0,.17-.09S13.43,13.37,13.43,13.4Z"/><path class="cls-2uma" d="M13.51,13.3l0,.07Z"/><rect class="cls-1uma" x="13.07" y="13.44" width="0.04" height="0.04"/><polygon class="cls-2uma" points="13.53 13.7 13.55 13.68 13.6 13.68 13.53 13.7"/><path class="cls-2uma" d="M12.8,14s.23-.07.25-.19c0,.1.13,0,.18,0a.68.68,0,0,1,.21-.11Z"/><path class="cls-2uma" d="M13.07,13.75h0Z"/><path class="cls-2uma" d="M20.82,13.83s-.06.05-.06.09l0,0,0,0c-.08.09-.18.1-.27.15s.06-.11.12-.15l0,0,0,0,0,0,.11,0,0,0,0,0,.06-.06S20.79,13.82,20.82,13.83Z"/><rect class="cls-1uma" x="12.96" y="13.8" width="0.04" height="0.03"/><polygon class="cls-2uma" points="15.09 13.97 15.09 13.93 15.13 13.97 15.09 13.97"/><path class="cls-2uma" d="M15.26,14h-.09l0,0A.07.07,0,0,0,15.26,14Z"/><path class="cls-4uma" d="M11.8,14.21l-.06.06Z"/><path class="cls-2uma" d="M14.74,14.27a.22.22,0,0,1-.24,0v0A.62.62,0,0,1,14.74,14.27Z"/><path class="cls-4uma" d="M13.64,14.25c-.08,0,0,.11-.13.09S13.54,14.2,13.64,14.25Z"/><path class="cls-2uma" d="M16.67,14.25h0Z"/><rect class="cls-1uma" x="13.79" y="14.32" width="0.02" height="0.04"/><rect class="cls-3uma" x="15.91" y="14.44" width="0.02" height="0.02"/><path class="cls-4uma" d="M13.22,14.46h0Z"/><path class="cls-4uma" d="M15.64,14.46h0Z"/><path class="cls-4uma" d="M16,14.46h0Z"/><path class="cls-4uma" d="M15.3,14.48s-.11.1-.12,0Z"/><polygon class="cls-4uma" points="13.17 14.54 13.23 14.53 13.3 14.54 13.17 14.54"/><rect class="cls-3uma" x="13.3" y="14.55" width="0.04" height="0.04"/><path class="cls-2uma" d="M19.2,14.71c-.06,0-.2.14-.32.06s-.05.11-.12.11l0,0,0,0v0c.07,0,.11,0,.17-.06l0,0c.05.07.09-.09.14,0A.19.19,0,0,1,19.2,14.71Z"/><path class="cls-2uma" d="M19.54,14.69c0,.07-.06.05-.09.08h-.06l.09,0,0,0Z"/><path class="cls-2uma" d="M19.6,14.69h0Z"/><path class="cls-2uma" d="M15.54,14.77c.1,0,.09.13,0,.19s-.09-.05-.07,0h0a.07.07,0,0,0,0,0s0,0,.06,0-.1,0-.08-.18C15.46,14.77,15.51,14.8,15.54,14.77Z"/><path class="cls-2uma" d="M15.9,14.74l0,0Z"/><path class="cls-2uma" d="M18.55,14.74s-.05,0-.06,0v0Z"/><path class="cls-2uma" d="M14.29,14.76c0,.07-.07,0-.11,0l0,0Z"/><polygon class="cls-2uma" points="15.76 14.77 15.75 14.76 15.79 14.76 15.76 14.77"/><path class="cls-2uma" d="M14.53,14.84c.08,0-.12,0,0,.11s.11,0,.17-.07-.07.1,0,.18l0,0s0,0,0,0h.06c-.2.07-.53-.07-.61.19,0,0-.05,0-.07,0l0,0,0,0c0-.09.12-.15.13-.27s.26,0,.33,0a.17.17,0,0,0-.17-.11c0-.07,0,0,0-.09s.09,0,.12,0S14.49,14.85,14.53,14.84Z"/><path class="cls-4uma" d="M19.65,14.82h0Z"/><rect class="cls-3uma" x="17.62" y="14.83" width="0.04" height="0.04"/><path class="cls-4uma" d="M19.29,14.88h0Z"/><path class="cls-4uma" d="M17.22,14.91h0Z"/><path class="cls-2uma" d="M13.7,14.92h0Z"/><rect class="cls-1uma" x="14.39" y="14.93" width="0.04" height="0.04"/><path class="cls-4uma" d="M13.37,15h0Z"/><path class="cls-2uma" d="M16.35,15l.07,0Z"/><rect class="cls-1uma" x="13.66" y="15" width="0.04" height="0.03"/><rect class="cls-1uma" x="13.47" y="15.08" width="0.03" height="0.03"/><path class="cls-2uma" d="M13.16,15.28c0,.1-.18,0-.18.12,0,0,0,0,0-.08l.12,0h0v0h0v0Z"/><path class="cls-2uma" d="M16.46,15.54a.1.1,0,0,0,0,.11l-.18.17s0,0,0-.06l0,0A1.25,1.25,0,0,1,16,16l-.15,0c.11-.11.13-.26.24-.38l0,0c.09,0,.11-.16.13-.25S16.41,15.42,16.46,15.54Z"/><rect class="cls-3uma" x="17.41" y="15.32" width="0.03" height="0.03"/><polygon class="cls-4uma" points="17.43 15.45 17.43 15.41 17.45 15.43 17.43 15.45"/><path class="cls-4uma" d="M17.87,15.49l.13.17a0,0,0,0,0,0,0s0,.05.08,0l0,0s0,.08,0,.11l0,0c-.08,0,.06.17,0,.25l0,0s0,0,0,.06l0,0,0,0c-.06,0-.16-.11-.24-.08l0,0s0,.06.06,0c-.16-.19-.3-.25-.21-.53.07,0,.18-.11.21,0Z"/><polygon class="cls-2uma" points="11.57 15.64 11.61 15.62 11.64 15.64 11.57 15.64"/><path class="cls-4uma" d="M21.83,15.62s0,0,0,.07v-.07Z"/><path class="cls-4uma" d="M10.92,15.64l0,.08Z"/><path class="cls-4uma" d="M23.05,15.72c.07,0,.18.08.24,0,.16.14.4.12.53.3a.22.22,0,0,1-.17,0c-.11.09-.36,0-.47.08l.15.06c-.34.05-.66.15-1,.17a3.66,3.66,0,0,1,.87-.36s0,0,0,0,.07-.17,0-.21a1.74,1.74,0,0,1-.57.12l-.06.06s.07,0,.11,0-.18.13-.3.17l0,0s-.06,0-.09,0,0,0,0,0l0,0s0-.11.08-.06,0,.05.06,0l0,0a.1.1,0,0,0-.11-.07,1.26,1.26,0,0,1,.63-.21l0,0Z"/><rect class="cls-1uma" x="13.74" y="15.67" width="0.03" height="0.04"/><path class="cls-2uma" d="M13.7,15.83l0,0s0,0,0,0,0,0-.06,0l0,0,.06.07Z"/><polygon class="cls-4uma" points="21.73 15.77 21.75 15.72 21.75 15.75 21.73 15.77"/><rect class="cls-3uma" x="16.76" y="15.71" width="0.04" height="0.04"/><path class="cls-4uma" d="M11.07,15.87l0,0,.08,0S11.11,15.88,11.07,15.87Z"/><rect class="cls-1uma" x="13.59" y="15.8" width="0.04" height="0.03"/><path class="cls-4uma" d="M16.84,15.85l0,.06Z"/><path class="cls-2uma" d="M18,16s0-.09-.08-.07l0,0A.08.08,0,0,1,18,16Z"/><rect class="cls-1uma" x="11.7" y="15.91" width="0.03" height="0.03"/><path class="cls-4uma" d="M20,16s0,.05-.06.08a.71.71,0,0,0,.25.11c0,.09-.1,0-.09.09s.18,0,.15.09.19,0,.26,0a0,0,0,0,1,0,0c.05-.07.18.07.21-.06h.09c0,.14-.15.16-.25.24s-.37-.18-.63-.13l-.11-.17c.16,0,0-.15.19-.12v0Z"/><path class="cls-2uma" d="M22.15,16c.1,0,0,0,0,0Z"/><path class="cls-4uma" d="M19.79,16.08l0,0,0,0,0-.06S19.82,16.07,19.79,16.08Z"/><polygon class="cls-2uma" points="21.94 16.13 22.11 16.04 22.13 16.06 21.94 16.13"/><polygon class="cls-2uma" points="16.67 16.13 16.71 16.06 16.71 16.08 16.67 16.13"/><rect class="cls-1uma" x="13.19" y="16.09" width="0.04" height="0.04"/><path class="cls-2uma" d="M15.72,16.13s-.05,0-.08,0S15.69,16.13,15.72,16.13Z"/><path class="cls-4uma" d="M11.58,16.28c.07,0-.13,0-.07.06s0-.1,0-.1l0-.06S11.53,16.25,11.58,16.28Z"/><polygon class="cls-2uma" points="15.45 16.21 15.43 16.17 15.49 16.17 15.45 16.21"/><path class="cls-4uma" d="M23.9,16.29c-.22,0-.32.12-.53.11,0,0,.14,0,.15.11l0,0c.05.12.17,0,.23.09s.1,0,.13-.06-.13.07-.19.12l0,0s0,0,0,0l-.06-.08c-.05.06-.17,0-.25.06s0-.05,0-.06l0,0,0,0h0v0c-.11-.06-.24,0-.33,0s-.14-.07-.23,0l.06.06,0,0a.25.25,0,0,0,.28,0c-.07.1-.3,0-.3.13a.09.09,0,0,0-.11-.07l0,0s0,0,.06,0-.06,0-.09,0-.07.1-.15.12l0,0c0,.09,0,0,0,0s-.08.1,0,.13a1.85,1.85,0,0,1-.65.08c.06.06.21.06.27.09l-.48.11c0-.06-.13,0-.11,0s.35-.15.33-.32c.18,0,.11-.23.3-.15,0-.07.05-.06.06-.11a.16.16,0,0,0,.24-.08.21.21,0,0,0,.14-.09s0,0,0,0l.06-.06c0-.08-.1.07-.11,0s.05-.06.11-.08.11.17.13,0a1.38,1.38,0,0,0,.74-.14s0-.05-.06,0A1.15,1.15,0,0,1,23.9,16.29Z"/><rect class="cls-1uma" x="23.52" y="16.16" width="0.04" height="0.03"/><path class="cls-2uma" d="M20,16.21h0Z"/><path class="cls-4uma" d="M15.13,16.4l-.53.11c0-.07.17,0,.24-.11h-.24c.16-.07.34-.07.47-.17S15.11,16.34,15.13,16.4Z"/><path class="cls-4uma" d="M12.95,16.35l0,0Z"/><path class="cls-4uma" d="M24.45,16.42l0,0,0,0,.06.08,0,0s0,0,0,0l.11,0a1.73,1.73,0,0,0-.36,0c0,.05,0-.12-.08,0s0,.05,0,.06h.06a.1.1,0,0,0-.11.06,0,0,0,0,0,0,0c-.06.05-.12,0-.19-.08l0,0s0,0,0,0h-.06c0-.07.19,0,.17-.09,0,0,0,.07,0,.09s0,.05.06,0,.14-.12.09-.21l0,0C24.24,16.42,24.36,16.32,24.45,16.42Z"/><path class="cls-4uma" d="M20.17,16.56l-.1-.06s.05.06.08,0,0-.05,0-.08l.08,0Z"/><path class="cls-4uma" d="M13.05,16.44,13,16.5Z"/><rect class="cls-1uma" x="23.33" y="16.41" width="0.03" height="0.03"/><polygon class="cls-4uma" points="20.4 16.48 20.32 16.46 20.38 16.46 20.4 16.48"/><path class="cls-4uma" d="M22.13,16.49c-.06.05.08.11,0,.17s-.42.16-.61.27a3.7,3.7,0,0,1-.59-.11c.11-.11.18.08.3,0s-.22,0-.3,0l0,0c-.1,0-.13,0-.21-.08.37.06.7,0,1.07.1,0-.08,0-.16-.08-.18s-.18,0-.24,0A1.89,1.89,0,0,1,22.13,16.49Z"/><rect class="cls-3uma" x="22.34" y="16.46" width="0.02" height="0.05"/><path class="cls-4uma" d="M22.21,16.59l0,0s.11,0,.09-.08A.09.09,0,0,1,22.21,16.59Z"/><path class="cls-2uma" d="M3.84,16.61s0,0,0,0v.08s0,0,0,0v0Zm.11,0c0,.09-.1.08-.13.15a.15.15,0,0,1-.12-.06c0-.09,0-.15.09-.19A.17.17,0,0,1,3.94,16.61Z"/><rect class="cls-3uma" x="20.64" y="16.48" width="0.03" height="0.03"/><polygon class="cls-2uma" points="23.4 16.55 23.37 16.5 23.4 16.5 23.4 16.55"/><path class="cls-2uma" d="M23.44,16.5h0Z"/><polygon class="cls-4uma" points="14.39 16.56 14.48 16.53 14.56 16.53 14.39 16.56"/><path class="cls-4uma" d="M21.35,16.55h-.17S21.31,16.52,21.35,16.55Z"/><path class="cls-2uma" d="M31.38,16.71s0-.05-.08,0,0,.09.08.09v0Zm.07,0c0,.05,0,.12-.07.12a.16.16,0,0,1-.14,0c-.05,0,0,0,0,0s0-.15,0-.12l0,0C31.27,16.53,31.43,16.62,31.45,16.7Z"/><path class="cls-2uma" d="M22,16.64s-.11,0-.11,0Z"/><rect class="cls-1uma" x="12.39" y="16.6" width="0.04" height="0.04"/><polygon class="cls-2uma" points="22.74 16.76 22.72 16.71 22.74 16.71 22.74 16.76"/><rect class="cls-3uma" x="23.98" y="16.74" width="0.02" height="0.02"/><path class="cls-4uma" d="M21.89,16.85s0,0,0,0h0v0Z"/><path class="cls-4uma" d="M23.2,16.88s.05,0,.09,0,0,0,0,.06.09.11,0,.15l-.06.06.08.09c.08,0,0-.12.11-.17l0,0,0,0,0,0s0,0,0,0c0,.15.08,0,.12.11s0,0,0,0l0,0a.08.08,0,0,1,0,.13,0,0,0,0,0,0,0l0,0s.08.07.11,0h0l-.06,0,0,0s-.05-.08-.09,0-.12,0-.11.09,0,.08-.1,0,0,0-.06,0l0,0s0-.07,0-.12,0,0-.06,0l0,0-.07.06,0,0c-.13-.05-.14.18-.3.12l.06,0c-.09,0,0-.08-.08-.08l0,.06-.09-.11c0,.08-.09.06-.14.06l0,0s.07,0,.09,0l0,0a.93.93,0,0,1,.27,0s0-.06,0-.11-.35,0-.19-.18l0,0s0,0,0,0,0-.05,0-.06h-.06s0,0,0,0l0,0a.07.07,0,0,0,0-.06,4.07,4.07,0,0,1,.44-.11Z"/><path class="cls-4uma" d="M23.56,16.91c-.08,0-.1.07-.15.11l0-.11C23.44,16.9,23.51,16.83,23.56,16.91Z"/><path class="cls-4uma" d="M24.15,16.86s-.07.05-.12,0S24.11,16.86,24.15,16.86Z"/><rect class="cls-3uma" x="19.41" y="16.9" width="0.04" height="0.03"/><path class="cls-2uma" d="M22.36,16.92h0Z"/><polygon class="cls-2uma" points="23.05 16.99 23.05 16.93 23.08 16.99 23.05 16.99"/><path class="cls-2uma" d="M23,17.07h0s0,0,0,0h-.08L23,17l0,0C22.95,17,23,17,23,17.07Z"/><path class="cls-4uma" d="M23.56,17l.11,0Z"/><rect class="cls-1uma" x="22.36" y="16.99" width="0.03" height="0.04"/><path class="cls-4uma" d="M21.17,17h0l0,0c.05.05.14.05.21.08a1,1,0,0,1-.4.13s0-.05,0-.07,0,.05,0,0,0,0,0,0l.25-.06c-.05-.06-.14,0-.21,0s.13-.16.18,0Z"/><path class="cls-4uma" d="M21.58,17c0,.07,0,0-.06,0Z"/><path class="cls-4uma" d="M22.61,17h-.06s0,0,.06,0Z"/><path class="cls-2uma" d="M23.25,17l0,0Z"/><polygon class="cls-4uma" points="21.44 17.12 21.52 17.07 21.47 17.12 21.44 17.12"/><path class="cls-2uma" d="M22.95,17.16s-.09-.07,0-.09Z"/><path class="cls-2uma" d="M1,17.2H1v0H1a0,0,0,0,0,0,0Zm.08-.06a.19.19,0,0,1-.08.19.18.18,0,0,1-.18-.06.35.35,0,0,1,.1-.18C1,17.11,1.09,17.07,1.12,17.14Z"/><rect class="cls-3uma" x="22.57" y="17.08" width="0.04" height="0.04"/><path class="cls-4uma" d="M22.68,17.12l.06,0Z"/><polygon class="cls-2uma" points="23.04 17.14 22.99 17.12 23.02 17.12 23.04 17.14"/><path class="cls-4uma" d="M24.39,17.22s-.11,0-.18,0l-.11-.08C24.24,17.15,24.33,17.11,24.39,17.22Z"/><path class="cls-2uma" d="M34.19,17.33s0-.06-.09,0v.06s.07,0,.09,0Zm0,0c0,.06.08.11,0,.15s-.18-.07-.19-.17,0-.06.07-.09A.23.23,0,0,1,34.22,17.29Z"/><rect class="cls-1uma" x="22.93" y="17.17" width="0.04" height="0.03"/><path class="cls-2uma" d="M23.56,17.3H23.5l0,0S23.57,17.29,23.56,17.3Z"/><path class="cls-4uma" d="M22,17.3l0,0Z"/><path class="cls-4uma" d="M22.4,17.3h0Z"/><path class="cls-2uma" d="M23,17.33h0Z"/><polygon class="cls-4uma" points="22.53 17.41 22.53 17.35 22.57 17.35 22.53 17.41"/><rect class="cls-1uma" x="23.04" y="17.36" width="0.03" height="0.04"/><path class="cls-2uma" d="M3,18.61a1.17,1.17,0,0,0-.27-1.07v0c.12,0,.15.2.25.3.27.33-.14,1,.33,1.2.25.22.2.52.44.72.1-.11.06-.18.07-.32a1,1,0,0,0-.21-.61c.14,0,.15.2.23.3.22.37-.28.73.19,1,.06.22.19.35.27.57-.3-.18-.29-.77-.69-1,0-.27-.31-.33-.51-.45A.59.59,0,0,1,2.57,19a.87.87,0,0,1-.11-.3c.08.07.09.21.17.3s.26.19.44.12c.09.11.18.08.28.13A.74.74,0,0,0,3,18.82a5,5,0,0,1-.74-1.37C2.49,17.82,2.62,18.35,3,18.61Z"/><rect class="cls-3uma" x="22.57" y="17.44" width="0.04" height="0.04"/><path class="cls-4uma" d="M22.89,17.54l0,0,0,0-.06-.06s0,0,0-.06S22.83,17.55,22.89,17.54Z"/><path class="cls-2uma" d="M23.12,17.51l-.07,0s0,0,.07,0Z"/><path class="cls-2uma" d="M32.64,18.15a3.07,3.07,0,0,1-.82,1.05c0,.07-.08.1-.09.15.18.06.32-.19.51-.11s.35-.25.42-.44a.61.61,0,0,1-.26.44c-.24.11-.47.05-.68.21-.08.33-.51.53-.57.87a1.07,1.07,0,0,0-.18.38h-.11c.2-.25.25-.59.5-.83a1.59,1.59,0,0,1,0-.61c0-.16.09-.36.25-.4a.92.92,0,0,0-.18.93c.19,0,.22-.32.29-.49a1.22,1.22,0,0,1,.45-.46,1.29,1.29,0,0,1,.29-1.25c0,.08-.12.1-.08.19a1,1,0,0,0-.17.95,1.51,1.51,0,0,0,.46-.81,4.07,4.07,0,0,1,.21-.38C32.82,17.72,32.68,17.93,32.64,18.15Z"/><path class="cls-4uma" d="M23.5,17.71h0s0,0,0,0Z"/><path class="cls-2uma" d="M4.87,19.83s0,.06,0,.09-.07,0-.09,0Z"/><path class="cls-2uma" d="M30.4,20c0,.05-.13,0-.11-.06S30.37,19.93,30.4,20Z"/><polygon class="cls-2uma" points="4.91 20.07 4.91 20.02 5 20.02 4.91 20.07"/><path class="cls-2uma" d="M5,20.19s0-.1.09-.11S5.07,20.17,5,20.19Z"/><path class="cls-2uma" d="M30.26,20.11h-.11v0S30.25,20.07,30.26,20.11Z"/><path class="cls-2uma" d="M30.14,20.25c-.06,0-.06-.05-.09-.08S30.14,20.2,30.14,20.25Z"/><path class="cls-4uma" d="M5,21c0,.08-.06.14-.08.21s-.07-.05-.11-.09S4.89,21,5,21Z"/><path class="cls-4uma" d="M4.74,21.48c-.11,0-.25-.08-.38-.09C4.48,21.17,4.62,21.4,4.74,21.48Z"/><polygon class="cls-2uma" points="29.36 21.59 29.38 21.52 29.4 21.54 29.36 21.59"/><path class="cls-2uma" d="M5.75,21.88c.05,0,.18,0,.24,0v0a8.36,8.36,0,0,1-1.62-.27l0,0A8.25,8.25,0,0,0,5.75,21.88Z"/><path class="cls-2uma" d="M30.79,21.73c-.05.11-.23.07-.33.13-.4.05-.84.14-1.29.17.06-.17.33,0,.45-.12a8.15,8.15,0,0,0,1-.13S30.74,21.76,30.79,21.73Z"/><path class="cls-2uma" d="M27.9,22l0,0,.06,0S27.93,22,27.9,22Z"/><path class="cls-4uma" d="M30.88,23.13s-.06,0,0-.09S31,23,31.09,23Z"/><path class="cls-2uma" d="M7,23c-.07.06-.2.05-.3.08H6.38A4.84,4.84,0,0,1,7,23Z"/><path class="cls-2uma" d="M28.81,23.17a3.5,3.5,0,0,1-.68,0v0C28.38,23.1,28.59,23.13,28.81,23.17Z"/><polygon class="cls-2uma" points="4.44 24.01 4.49 23.94 4.51 23.97 4.44 24.01"/><path class="cls-2uma" d="M4.55,24.07h0s0-.06,0,0Z"/><polygon class="cls-2uma" points="30.75 24.09 30.67 24.05 30.71 24.05 30.75 24.09"/><path class="cls-2uma" d="M4.94,24.13s0,0,0,0l0-.06S4.92,24.13,4.94,24.13Z"/><rect class="cls-1uma" x="4.65" y="24.12" width="0.03" height="0.06"/><path class="cls-2uma" d="M30.64,24.13s0,0,0,0l0,0Z"/><polygon class="cls-2uma" points="30.25 24.22 30.25 24.18 30.29 24.22 30.25 24.22"/><path class="cls-2uma" d="M30.54,24.24v0l0,0S30.53,24.23,30.54,24.24Z"/><path class="cls-2uma" d="M4.89,24.33l0,0s.07,0,.11-.06Z"/><path class="cls-2uma" d="M30.31,24.39l0,0-.09-.08C30.25,24.3,30.27,24.36,30.31,24.39Z"/><path class="cls-2uma" d="M5,24.36s0,0,0,.07S5,24.36,5,24.36Z"/><path class="cls-2uma" d="M30.25,24.47v0l0-.06S30.24,24.46,30.25,24.47Z"/><path class="cls-2uma" d="M8.37,25.49c.35.17.62.39,1,.56.05-.07,0-.21,0-.32l-.24-.35c.2.07.22.29.32.44s0,.25.15.3a6,6,0,0,1,.68.21c.1-.05,0-.13,0-.19-.16-.2-.39-.22-.48-.44.17.13.4.3.54.44,0,.38.4.31.59.51a1.07,1.07,0,0,1,.15.12c-.51-.17-1-.8-1.6-.32-.12.08-.25,0-.36,0v0c.08,0,.16.11.27.07l.38-.19c-.18-.14-.46-.12-.65-.27a2.42,2.42,0,0,1-.93-.11v0a1.47,1.47,0,0,0,.78.06,2.38,2.38,0,0,0-1.1-.47.93.93,0,0,1-.25-.21c.11,0,.22.13.33.19S8.22,25.51,8.37,25.49Z"/><path class="cls-2uma" d="M27.61,25.25c0,.11-.13.15-.21.19a2.17,2.17,0,0,0-1.12.5,1.44,1.44,0,0,0,.77-.06c-.26.25-.71.05-1,.17a3.17,3.17,0,0,1-.57.21c.1.1.29.13.42.24s.17-.1.24-.06a.4.4,0,0,1-.42,0,.67.67,0,0,0-.53-.14c-.25.1-.49.22-.74.33a.48.48,0,0,1-.3.12c.21-.16.49-.26.72-.42-.05-.33.38-.45.59-.61-.16.23-.52.3-.53.59.2,0,.39-.14.62-.15s.2-.6.54-.78a1.45,1.45,0,0,0-.3.66c.3,0,.49-.28.78-.38a1.06,1.06,0,0,1,.69-.24Z"/><path class="cls-2uma" d="M6.52,25.78s0,0-.07,0v.08h0s0,0,0-.06Zm0,0c0,.07-.05.1-.06.15s-.11-.05-.12-.11-.05-.11,0-.12S6.56,25.7,6.55,25.78Z"/><path class="cls-2uma" d="M28.73,25.88v0s-.05,0,0,0Zm.09-.08s0,.17-.07.17-.1,0-.12,0,0-.07,0-.11S28.75,25.72,28.81,25.8Z"/><path class="cls-2uma" d="M11.65,26s0,0-.06,0v0Zm0-.09c0,.06,0,.14,0,.17A.12.12,0,0,1,11.5,26c0-.05,0-.11,0-.13S11.67,25.82,11.7,25.88Z"/><path class="cls-2uma" d="M23.61,26c0-.05-.06,0-.09,0s0,0,.06,0,0,0,0,0Zm.08,0a.13.13,0,0,1-.06.15c-.05,0-.11,0-.15,0s0-.15.07-.18S23.64,25.92,23.69,25.94Z"/><path class="cls-2uma" d="M18.14,26.45h0Z"/><path class="cls-2uma" d="M18.08,26.73h0Z"/><path class="cls-2uma" d="M14,27.81a2,2,0,0,1,.89,0,.85.85,0,0,0-.63-.4v0c.32,0,.5.25.74.4,0,.07.06.09.11.11a1.41,1.41,0,0,1,.75.12c-.32-.1-.75,0-1.11-.12s-.43.53-.78.36c.27.1.39-.24.57-.36a6.14,6.14,0,0,0-1.05.09.89.89,0,0,0-.63.14c.06-.17.26-.16.42-.18s.24,0,.27-.09c-.37-.17-.9-.08-1.26-.32a.35.35,0,0,1-.27-.08c.29-.08.5.2.78.21s.73.17,1.1.17a1.16,1.16,0,0,0-.89-.62v0C13.43,27.06,13.7,27.51,14,27.81Z"/><path class="cls-2uma" d="M22.24,27.13v0a1,1,0,0,0-.84.53c.18.13.37,0,.57,0a2.86,2.86,0,0,0,.54-.09c.28,0,.43-.23.72-.18-.42.32-1.08.21-1.55.42.13.1.32.07.47.11a.3.3,0,0,1,.24.14v0c-.23-.27-.56-.08-.83-.25a1.7,1.7,0,0,1-.84,0c0,.16.2.23.27.36s.16,0,.28,0a.28.28,0,0,1-.3,0l-.44-.38c-.38.13-.78,0-1.14.14l0,0a2.23,2.23,0,0,1,.84-.12c.18-.22.42-.52.75-.46v0a.75.75,0,0,0-.65.38,2.68,2.68,0,0,1,.92,0C21.51,27.46,21.79,27.09,22.24,27.13Z"/><polygon class="cls-2uma" points="21.41 27.78 21.37 27.73 21.41 27.73 21.41 27.78"/><path class="cls-2uma" d="M10.58,28.18h0v.08h0s0-.05,0-.08Zm.06,0c0,.09,0,.15-.09.19s-.11-.06-.14-.1a.16.16,0,0,1,.11-.13S10.62,28.09,10.64,28.14Z"/><path class="cls-2uma" d="M24.68,28.25a0,0,0,0,0-.08,0s0,.05.06,0,0,0,0,0Zm.11,0a.19.19,0,0,1-.18.14c0-.05-.14-.1-.07-.17A.15.15,0,0,1,24.78,28.23Z"/><path class="cls-2uma" d="M17.54,28.56c-.06.18.1.33.11.48-.08-.17-.21-.27-.13-.48Z"/><rect class="cls-1uma" x="13.97" y="28.89" width="0.03" height="0.13"/><path class="cls-4uma" d="M17.9,29.34v0c-.05,0-.13,0-.15-.09A.23.23,0,0,1,17.9,29.34Z"/><path class="cls-2uma" d="M16.88,29.89a1.74,1.74,0,0,0-.18.51l0,0c0-.08.11-.15.11-.25a.62.62,0,0,1-.17.4A.81.81,0,0,1,16.88,29.89Z"/><path class="cls-2uma" d="M18.57,30.55a.83.83,0,0,1-.21-.39c.06.06.08.17.15.24a1.13,1.13,0,0,0-.17-.51A.93.93,0,0,1,18.57,30.55Z"/><path class="cls-2uma" d="M16.8,30.55s-.05.12-.13.14S16.75,30.57,16.8,30.55Z"/><polygon class="cls-2uma" points="18.55 30.67 18.4 30.55 18.44 30.55 18.55 30.67"/><path class="cls-2uma" d="M19,30.9a1.05,1.05,0,0,0,.48.28c-.11,0-.31-.07-.44-.15s-.19-.22-.23-.38A1,1,0,0,1,19,30.9Z"/><path class="cls-2uma" d="M16.38,30.67c-.15.26-.35.54-.69.53.15-.1.41-.13.5-.33S16.3,30.7,16.38,30.67Z"/><path class="cls-2uma" d="M6.33,9.11c0,.31,0,.39.42.48l1,.22a.93.93,0,0,1,.84,1.25.91.91,0,0,1-1.22.76l-1.23-.27c-.29-.06-.35,0-.43.28l-.08,0,.24-1.12.07,0c0,.32,0,.38.28.44l1.26.28c.25.05.8.17,1-.51a.74.74,0,0,0-.17-.71A1.06,1.06,0,0,0,7.78,10L6.72,9.77c-.42-.09-.51,0-.59.26l-.07,0,.2-.92Z"/><path class="cls-2uma" d="M8.22,5.62c-.11.23-.16.35.24.6l1.82,1.1,0,.06-2.81.37h0l1.35.82c.36.22.48.19.64-.06l.07,0L9,9.37l-.07,0c.14-.27.13-.38-.24-.6L7.16,7.8c-.26,0-.31.08-.39.22L6.7,8l.36-.59,2.46-.31h0l-1.15-.7c-.4-.24-.48-.16-.64.06l-.07,0,.49-.81Z"/><path class="cls-2uma" d="M10.71,6.67c.24-.25.23-.33,0-.53L9.48,4.85c-.21-.21-.28-.21-.53,0L8.9,4.81,9.76,4,9.81,4c-.2.21-.26.3,0,.54L11,5.85c.22.23.32.19.54,0l.05.05-.86.84Z"/><path class="cls-2uma" d="M13,1.94c-.16.11-.18.18-.14.51l.34,2.41-.05,0-2-1.43c-.33-.24-.41-.24-.58-.16l0-.07.93-.53,0,.07c-.19.12-.25.17-.19.28a1.88,1.88,0,0,0,.36.29l1.21.88-.22-1.58a1.14,1.14,0,0,0-.07-.28c-.08-.14-.21-.08-.35,0l0-.07L13,1.87Z"/><path class="cls-2uma" d="M16.77,3.64l-2.13.45,0-.08c.25-.07.33-.12.27-.43l-.37-1.75c-.07-.31-.17-.32-.42-.28l0-.08L16.18,1l.13.56-.1,0c-.13-.34-.25-.38-.69-.29L15,1.44c-.08,0-.13,0-.1.16l.19.88.61-.13c.35-.07.37-.18.36-.47l.09,0,.19.92-.09,0c-.11-.31-.19-.35-.51-.28l-.61.12.21,1c0,.16,0,.17.62,0s.67-.26.76-.7l.11,0Z"/><path class="cls-2uma" d="M18.25,1.26c0-.12,0-.14.26-.12s.69.07.64.61-.65.53-1,.5l.09-1Zm1.63,2.46a.45.45,0,0,1-.33-.22l-.74-1.09c.21,0,.74-.07.79-.61S19,1,18.64,1L17.53.91V1c.28.05.34.09.31.39l-.15,1.74c0,.3-.05.38-.38.38v.08l1.11.1V3.59c-.32,0-.35-.12-.33-.39l.07-.79h.23l.85,1.32.65.06Z"/><path class="cls-2uma" d="M22.58,2.84l-.09,0A.81.81,0,0,0,22,1.88a.38.38,0,0,0-.52.2c-.22.56,1,1.13.7,1.9a.77.77,0,0,1-1.06.37A3.29,3.29,0,0,1,20.63,4a.13.13,0,0,0-.17.08l-.08,0,.2-.84.09,0a1,1,0,0,0,.51,1A.45.45,0,0,0,21.79,4c.08-.21.07-.37-.35-.91-.27-.34-.44-.6-.3-1a.68.68,0,0,1,.93-.37c.23.09.38.3.47.33A.14.14,0,0,0,22.73,2l.08,0Z"/><path class="cls-2uma" d="M22.55,4.86c.29.19.37.16.53-.08l1-1.48c.17-.25.15-.32-.12-.52l0-.06,1,.67,0,.06c-.25-.16-.35-.19-.53.08L23.42,5c-.18.26-.12.35.12.52l0,.06-1-.67Z"/><path class="cls-2uma" d="M25.05,7.12l-.8-.87.06-.05c.26.26.34.21.56,0l1.49-1.36-.15-.16c-.3-.33-.43-.36-.82-.12l-.07-.07L25.85,4l1.54,1.68-.49.48-.07-.07c.27-.36.25-.5-.05-.82l-.15-.16-1.52,1.4c-.2.19-.23.27,0,.53Z"/><path class="cls-2uma" d="M26.77,7.8,28,7.71l-.78.92-.42-.83Zm0,2.2c-.07-.16-.06-.24.15-.48l1.59-1.93,0-.07-2.15.15a2.82,2.82,0,0,1-.64,0,.27.27,0,0,1-.17-.14l-.07,0,.36.71.07,0c0-.08-.12-.25,0-.32l.15,0,.5,0,.48.94-.27.32a.94.94,0,0,1-.19.18c-.13.07-.2,0-.27-.18l-.07,0,.47.92Z"/><path class="cls-2uma" d="M29,11.87l0-.1a.81.81,0,0,0,.56-.86.38.38,0,0,0-.44-.34c-.6.1-.45,1.45-1.27,1.59a.77.77,0,0,1-.86-.72,3.28,3.28,0,0,1,0-.64.13.13,0,0,0-.15-.1l0-.09.82-.26,0,.09a1,1,0,0,0-.56.94.45.45,0,0,0,.52.4c.23,0,.35-.12.59-.77.15-.4.28-.69.67-.75a.68.68,0,0,1,.8.6,3.22,3.22,0,0,1,0,.58.14.14,0,0,0,.16.12v.08Z"/><path class="cls-2uma" d="M8.94,16.9c-.08-.24-.13-.33-.44-.25l-1.74.43c-.3.07-.32.17-.27.43l-.07,0-.27-1.1.07,0c.09.3.16.34.48.26l1.76-.43h0L6,15.77v-.05l1.9-1.5h0l-1.57.38c-.4.1-.47.2-.41.49l-.07,0-.23-.92.07,0c.09.29.17.36.6.26L7.86,14c.31-.07.32-.16.26-.46l.07,0,.19.78L6.63,15.72l2.19.38.19.78Z"/><path class="cls-2uma" d="M8.31,18.76l1.18-.25-.65,1-.53-.77Zm.33,2.17c-.09-.15-.09-.22.08-.5L10,18.31l0-.07-2.11.43a2.76,2.76,0,0,1-.64.08.27.27,0,0,1-.19-.12l-.06,0,.45.66.06,0c0-.07-.16-.23,0-.32a.44.44,0,0,1,.14-.06l.49-.12.6.87L8.51,20a.94.94,0,0,1-.17.21c-.12.08-.2,0-.29-.15l-.06,0,.58.85Z"/><path class="cls-2uma" d="M11.89,20.45c-.23-.16-.32-.2-.52.06L10.19,22c-.1.13,0,.17.22.38.48.37.69.52,1.2.24l.08.06-.58.44L9.39,21.79l0-.06c.21.15.31.17.5-.07L11,20.25c.2-.25.13-.33-.05-.5l0-.06.9.7Z"/><path class="cls-2uma" d="M13.38,23.15l.82-.88.06,1.2-.88-.32Zm1.53,1.59c-.16-.07-.2-.13-.22-.46l-.15-2.5-.08,0L13,23.33a2.82,2.82,0,0,1-.47.44.27.27,0,0,1-.22,0l0,.07.75.28L13,24c-.08,0-.26-.09-.2-.25a.45.45,0,0,1,.08-.13l.34-.38,1,.37,0,.42a.9.9,0,0,1,0,.27c-.05.14-.18.1-.32,0l0,.07,1,.36Z"/><path class="cls-2uma" d="M18.31,23.28a.89.89,0,0,0-1.47-.57,1.25,1.25,0,0,0-.38,1c0,.86.42,1.23.93,1.25a1.26,1.26,0,0,0,.93-.36l.07.08a1.34,1.34,0,0,1-1.12.46A1.29,1.29,0,0,1,16,23.66a1.34,1.34,0,0,1,1.44-1.33,3.18,3.18,0,0,1,.7.17.18.18,0,0,0,.19-.12h.08v.91Z"/><path class="cls-2uma" d="M19.47,24.88c.34-.07.37-.15.31-.43l-.34-1.76c-.06-.29-.12-.33-.45-.28l0-.07,1.18-.23,0,.08c-.29.07-.38.12-.32.43l.34,1.76c.06.31.16.33.46.28l0,.08L19.48,25Z"/><path class="cls-2uma" d="M23.28,23.74l-1.07.49,0-.07c.33-.17.3-.26.18-.53l-.84-1.84-.2.09c-.4.18-.47.3-.37.74l-.09,0L20.6,22l2.07-.95.31.62-.09,0c-.26-.37-.39-.39-.8-.2l-.2.09.86,1.88c.11.25.19.3.5.17Z"/><path class="cls-2uma" d="M24.4,21.81,24,20.66l1.07.55-.71.6Zm2.13-.54c-.14.11-.22.11-.5,0l-2.25-1.1-.06.05.64,2.06a2.82,2.82,0,0,1,.14.63.27.27,0,0,1-.1.2l0,.06.61-.52,0-.06c-.06.05-.21.18-.32,0a.47.47,0,0,1-.07-.14L24.46,22l.81-.68.38.19a1,1,0,0,1,.22.15c.1.11,0,.2-.12.3l0,.06.79-.66Z"/><path class="cls-2uma" d="M26.59,16.67c-.11.23-.16.35.25.6l1.82,1.09,0,.06-2.81.38h0l1.35.81c.36.21.48.19.64-.06l.07,0-.49.81-.07,0c.14-.27.13-.38-.24-.6l-1.53-.92c-.26,0-.31.08-.39.22l-.07,0,.36-.59,2.46-.32h0l-1.16-.7c-.4-.24-.48-.16-.64.07l-.07,0,.49-.81Z"/><path class="cls-2uma" d="M28.37,16l-1-.7,1.19-.21-.21.91Zm1.38-1.72c-.05.17-.11.22-.42.28L26.86,15l0,.08,1.75,1.26a2.81,2.81,0,0,1,.49.41.27.27,0,0,1,0,.22l.07,0,.18-.78-.07,0c0,.08-.06.27-.23.23a.45.45,0,0,1-.14-.07l-.42-.29.23-1,.41-.08a.93.93,0,0,1,.27,0c.15,0,.12.16.09.31l.08,0,.23-1Z"/><path class="cls-5uma" d="M44.58,8.71h.62V12A4.71,4.71,0,0,1,45,13.33a1.56,1.56,0,0,1-.58.83,1.79,1.79,0,0,1-1.08.3A1.69,1.69,0,0,1,42,13.92,3.09,3.09,0,0,1,41.54,12V8.71h.62V12a3.66,3.66,0,0,0,.12,1.11,1,1,0,0,0,.39.52,1.17,1.17,0,0,0,.66.18,1.15,1.15,0,0,0,1-.37,2.47,2.47,0,0,0,.3-1.45Z"/><polygon class="cls-5uma" points="46.21 14.38 46.21 8.71 46.84 8.71 49.28 13.16 49.28 8.71 49.87 8.71 49.87 14.38 49.24 14.38 46.8 9.92 46.8 14.38 46.21 14.38"/><rect class="cls-6" x="51.03" y="8.71" width="0.62" height="5.67"/><path class="cls-5uma" d="M54,14.38l-1.8-5.67h.67l1.21,4.12c.09.32.17.63.24.93.07-.31.16-.62.25-.93l1.26-4.12h.63l-1.82,5.67Z"/><polygon class="cls-5uma" points="57.06 14.38 57.06 8.71 60.42 8.71 60.42 9.38 57.67 9.38 57.67 11.11 60.24 11.11 60.24 11.78 57.67 11.78 57.67 13.71 60.53 13.71 60.53 14.38 57.06 14.38"/><path class="cls-5uma" d="M62,11.21h1.32a1.6,1.6,0,0,0,.66-.11.79.79,0,0,0,.36-.33,1,1,0,0,0,.13-.52.9.9,0,0,0-.25-.67,1,1,0,0,0-.74-.25H62v1.88Zm-.62,3.17V8.71h2.06a2.19,2.19,0,0,1,1,.16,1.23,1.23,0,0,1,.5.53,1.8,1.8,0,0,1,.2.86,1.44,1.44,0,0,1-1.31,1.55,1.58,1.58,0,0,1,.39.31,3.92,3.92,0,0,1,.48.72l.81,1.54H64.7l-.62-1.18a7.41,7.41,0,0,0-.54-.93,1.09,1.09,0,0,0-.36-.32,1.12,1.12,0,0,0-.48-.08H62v2.52Z"/><path class="cls-5uma" d="M65.85,12.56l.58-.06a1.69,1.69,0,0,0,.21.73,1.18,1.18,0,0,0,.47.42,1.49,1.49,0,0,0,.69.16,1.24,1.24,0,0,0,.85-.27.89.89,0,0,0,.3-.7.86.86,0,0,0-.11-.44.83.83,0,0,0-.33-.31,6.12,6.12,0,0,0-1-.34,3.42,3.42,0,0,1-.94-.39,1.38,1.38,0,0,1-.43-.5,1.48,1.48,0,0,1-.15-.69A1.52,1.52,0,0,1,66.48,9a1.64,1.64,0,0,1,1.2-.44,1.94,1.94,0,0,1,.91.21,1.47,1.47,0,0,1,.6.59,2,2,0,0,1,.23.9l-.59.05a1.22,1.22,0,0,0-.33-.82,1.12,1.12,0,0,0-.8-.27,1.19,1.19,0,0,0-.79.23.76.76,0,0,0-.28.61.7.7,0,0,0,.2.53,2.38,2.38,0,0,0,.9.38,6.19,6.19,0,0,1,1,.33,1.55,1.55,0,0,1,.64.57,1.59,1.59,0,0,1,.22.84,1.78,1.78,0,0,1-.23.89,1.54,1.54,0,0,1-.62.61,2,2,0,0,1-.94.21A1.86,1.86,0,0,1,66.38,14,2,2,0,0,1,65.85,12.56Z"/><rect class="cls-6" x="70.51" y="8.71" width="0.62" height="5.67"/><path class="cls-5uma" d="M72.8,13.71h1a1.71,1.71,0,0,0,.91-.2,1.22,1.22,0,0,0,.48-.63,3.88,3.88,0,0,0,.22-1.38,3.21,3.21,0,0,0-.23-1.35,1.28,1.28,0,0,0-.6-.66,2,2,0,0,0-.79-.11h-1v4.33Zm-.61.67V8.71h1.6a3,3,0,0,1,.91.1,1.55,1.55,0,0,1,.7.5,2.6,2.6,0,0,1,.46.91,4.47,4.47,0,0,1,.17,1.3,4.19,4.19,0,0,1-.28,1.63,2,2,0,0,1-.72,1,2.14,2.14,0,0,1-1.16.28Z"/><path class="cls-5uma" d="M77.72,12h1.57l-.48-1.57q-.23-.72-.33-1.18a8.12,8.12,0,0,1-.25,1.08L77.72,12Zm-1.34,2.33,1.79-5.67h.66l1.9,5.67H80l-.54-1.72H77.54L77,14.38Z"/><path class="cls-5uma" d="M81.81,13.71h1a1.71,1.71,0,0,0,.91-.2,1.21,1.21,0,0,0,.47-.63,3.84,3.84,0,0,0,.22-1.38,3.21,3.21,0,0,0-.23-1.35,1.28,1.28,0,0,0-.6-.66,2,2,0,0,0-.79-.11h-1v4.33Zm-.62.67V8.71H82.8a3,3,0,0,1,.9.1,1.53,1.53,0,0,1,.7.5,2.57,2.57,0,0,1,.46.91,4.54,4.54,0,0,1,.17,1.3,4.19,4.19,0,0,1-.28,1.63,2,2,0,0,1-.72,1,2.14,2.14,0,0,1-1.16.28Z"/><path class="cls-5uma" d="M42.14,21.63h1a1.7,1.7,0,0,0,.91-.2,1.23,1.23,0,0,0,.48-.63,3.87,3.87,0,0,0,.22-1.38,3.21,3.21,0,0,0-.23-1.35,1.27,1.27,0,0,0-.6-.66,2,2,0,0,0-.79-.11h-1v4.33Zm-.61.67V16.63h1.6a3,3,0,0,1,.91.1,1.55,1.55,0,0,1,.7.5,2.6,2.6,0,0,1,.46.91,4.47,4.47,0,0,1,.17,1.3,4.19,4.19,0,0,1-.28,1.63,2,2,0,0,1-.72,1,2.14,2.14,0,0,1-1.16.28Z"/><polygon class="cls-5uma" points="46.24 22.3 46.24 16.63 49.6 16.63 49.6 17.3 46.85 17.3 46.85 19.03 49.42 19.03 49.42 19.7 46.85 19.7 46.85 21.63 49.71 21.63 49.71 22.3 46.24 22.3"/><path class="cls-5uma" d="M52.34,22.29V16.63h.92l1.1,4,.22.84c.05-.21.14-.51.25-.91l1.11-3.94h.83v5.67h-.59V17.55l-1.35,4.74h-.55l-1.35-4.82v4.82Z"/><path class="cls-5uma" d="M58.78,16.24l.42-1.08h.74l-.7,1.08ZM58.6,20h1.57l-.48-1.57c-.15-.48-.26-.87-.33-1.17a8.46,8.46,0,0,1-.25,1.08L58.6,20Zm-1.34,2.33L59,16.63h.66l1.9,5.67h-.7l-.54-1.72H58.42l-.51,1.72Z"/><polygon class="cls-5uma" points="62.06 22.3 62.06 16.63 62.68 16.63 62.68 21.63 64.97 21.63 64.97 22.3 62.06 22.3"/><path class="cls-5uma" d="M66.54,20h1.57l-.48-1.57q-.22-.72-.33-1.17a8.47,8.47,0,0,1-.25,1.08L66.54,20ZM65.2,22.29,67,16.63h.66l1.9,5.67h-.7l-.54-1.72H66.36l-.51,1.72Z"/><path class="cls-5uma" d="M72.23,20.07v-.66h2v2.1a3.41,3.41,0,0,1-.94.66,2.35,2.35,0,0,1-1,.22,2.22,2.22,0,0,1-1.21-.34,2.33,2.33,0,0,1-.84-1,3.63,3.63,0,0,1-.31-1.57,3.89,3.89,0,0,1,.31-1.62,2.3,2.3,0,0,1,.82-1,2.17,2.17,0,0,1,1.2-.33,2,2,0,0,1,.89.19,1.67,1.67,0,0,1,.63.54,2.52,2.52,0,0,1,.37,1l-.55.19a2.09,2.09,0,0,0-.28-.72,1.16,1.16,0,0,0-.45-.37,1.39,1.39,0,0,0-.63-.14,1.52,1.52,0,0,0-.87.25,1.68,1.68,0,0,0-.59.76,3.2,3.2,0,0,0-.22,1.26,2.6,2.6,0,0,0,.48,1.7,1.54,1.54,0,0,0,1.24.57,1.79,1.79,0,0,0,.75-.17,1.91,1.91,0,0,0,.6-.41V20.07Z"/><path class="cls-5uma" d="M75.92,20H77.5L77,18.4q-.23-.72-.33-1.17a8.47,8.47,0,0,1-.25,1.08L75.92,20Zm-1.34,2.33,1.79-5.67H77l1.9,5.67h-.7l-.54-1.72H75.74l-.51,1.72Z"/><path class="cls-2uma" d="M1.16,8.37l0,0,.06,0S1.19,8.36,1.16,8.37Z"/><circle class="cls-1uma" cx="17.74" cy="13.02" r="8.52"/><path class="cls-4uma" d="M20.11,8.14c-.05,0-.08.1-.07.17l0,0,0-.06s0,.05,0,.06l0-.06a1.72,1.72,0,0,0,.18.3c.33-.3.69-.16,1.12-.19s.71.24.83.61c.06.08.2.06.21.18s.18.2.3.24a.31.31,0,0,1,.11.17c-.14,0-.21-.11-.34-.09s-.25-.11-.38-.06l0,0s-.14-.08-.17,0a1.27,1.27,0,0,0,.47.08.92.92,0,0,0-.86.39c-.09.13.16.22,0,.32l-.06-.07c-.08.06,0,.11,0,.17s0,0,0,0l0-.09c0,.14.19.13.17.28,0,0,0,0,0,0v0s0-.1-.09-.13l-.09,0c.06.21.28.53.25.82a2.57,2.57,0,0,1,.09.48c0,.16-.05.39,0,.51a.23.23,0,0,0-.06.21c-.07.26-.37.46-.4.65s0,.2-.17.18,0-.05,0-.07c-.22.2-.19.61-.52.78.07,0,0,.11-.07.17a1.46,1.46,0,0,1-1.13.53c-.09,0-.18.09-.27,0,0,.09-.16,0-.19.08l0,0,0,0,0,0a1.09,1.09,0,0,1-.57,0s.08,0,.07-.06h-.19c0-.1-.06-.06-.15-.12-.19.11-.39-.15-.54.06l-.06,0,0,0c-.08,0-.19.12-.3,0l0,0c0,.06,0-.09-.09,0s-.14,0-.21.07-.11,0-.17.08l0,0c-.05.07-.14,0-.19.11-.07-.14-.25-.09-.33-.13l0,0c.05.08.19.1.25.15s.54,0,.76-.09l0,0h0l0,0a.11.11,0,0,0,.11,0s0,0,0,0c-.18.13-.44.08-.65.12.05.15.38,0,.23.25l0,0c-.05.08-.44-.33-.46.09a.89.89,0,0,1-.13.42l.09,0s0-.11.08-.11,0,.07.07.11l0,0s-.08.09,0,.09h.07s0,.05,0,.06l0-.17,0,0,0,0,0,0a4.11,4.11,0,0,1,0-.47c.07,0,.16,0,.21.11a.16.16,0,0,0,.11.15c.05,0,0-.07,0-.11s.06,0,0,.06l0,0,0,0,0,0,.15.15c-.06,0-.08-.06-.12-.06s.06.14.11.21a.41.41,0,0,1,.17.21c.17.29.51-.05.63.21.15,0,.2.27.39.17.21.13.46.17.63.36l0,0,0,.06a1.53,1.53,0,0,1-.69-.14s0,0,0,0-.18-.1-.11-.15c-.1-.14-.35,0-.33-.25-.06,0-.13-.11-.19-.08.12.15,0,.32.15.47,0,0,0,0,0,0s.08.1.13,0l0,0,.21.12,0,0,0,0s0,0,0,0l0,0a1.66,1.66,0,0,0,.95.39s0,0,0,0,.11,0,.14.06v0a5.27,5.27,0,0,1-1.77-.25l0,0c-.07,0,0-.14,0-.17s.12-.15.06-.24,0-.05-.06-.08c-.65.84-1.55.61-2.49.59l0,0c.2-.18.52-.18.76-.32a5.22,5.22,0,0,1-1.22-.06c.24-.16.6-.11.84-.27.29,0,.48-.24.78-.21,0-.06.07-.08.12-.09l0,0c0-.12.27-.08.12-.24l-.08,0,0,0c-.08.05-.18.17-.29.13s0,0,0,.06a.41.41,0,0,1-.18,0l0,0,0,0s.06,0,.11,0,0,0,0,0,.1-.09.15-.12-.11,0-.15,0,.05,0,.08-.06-.23,0-.38,0a3.69,3.69,0,0,0-.61.21c-.07-.22.17-.2.27-.32s.31-.22.32-.42c.05,0,.12,0,.17,0s-.14,0-.21,0-.08-.16-.15-.24,0,0,0-.06-.13-.05-.19-.08.11.05.17,0a1.11,1.11,0,0,0-.71,0l0,0c-.22.17-.45.2-.63.4l0,0s-.11.18-.23.13l0,0,0,0c-.09,0-.22,0-.25.11l0,0,0,0-.19,0s0,0,0,0,0,.05-.07.08v0s-.05,0-.08,0-.06,0-.06.07-.19,0-.25.06.07,0,.11,0l-.09.07,0,0a2.79,2.79,0,0,0-.53.32c-.08.07-.19.12-.24.19s-.05,0-.06,0v.06c-.18-.13-.25.16-.42.09,0,0,0,0,0,0s-.18,0-.25,0c.11,0,0-.07.06-.11l0,0,0,0s0,0,0,0l-.08-.09,0,0,0,0s0,0,0,0h0V16.5s0,0,0,0a.2.2,0,0,0,.09-.25h-.06s0,0,0,0l0,0s.12,0,.12,0-.21-.11-.33-.06-.1,0-.13,0l0,.06,0-.11,0,0s.11-.06,0-.11-.14.07-.11,0,.06,0,.09,0-.06,0-.09,0,.14-.06.19-.13,0,.07,0,.09.08-.2.21-.19.25,0,.19-.17c.15,0,.24-.13.38-.12s.13,0,.21-.07l0,0s0,.05.09,0l0,0c.1.06.06-.1.13-.13s0,0,0,0-.11,0-.17,0a.45.45,0,0,1-.15,0c0-.12-.09,0-.12,0,0,.1-.17.06-.24.12l0,0c-.1-.06-.18,0-.25.06s.18-.05.25-.12l0,0c.05-.1.28-.14.42-.21a.46.46,0,0,1,.53,0s0,0,0,0v0h-.07s0,0,0,0v0c-.05,0-.14,0-.17.11s0,.09,0,.11l.07-.06v0c.06,0,.18-.08.21,0,.07-.14.09.11.17,0s0,0,0,0v0c0,.08.11,0,.19,0s0,0,0-.06,0,0,.06,0,0,0,0,0,.13-.13.18-.17l0,0,0-.08s0,0,0,.06.11,0,.11-.09-.06-.06-.08,0c0-.16-.14,0-.19-.11s-.11,0-.12,0l-.07,0s.11,0,.13-.06c0,.11.09,0,.15,0a2.86,2.86,0,0,1,.82-.06s.1,0,.15-.06c.45-.14,1,.1,1.43,0l0-.06s.06,0,.11,0,0-.05.08,0v0c.1-.05.11.07.19-.06l0,0c-.05.05-.11.16-.21.14l.06.09c.05,0,0,0,0,0,.19.2.34-.11.54,0,0,0,.1,0,.15,0l0,0c-.16-.1-.33-.07-.47-.13v0l0,0c.05,0,.05-.18.17-.12l0,0c.07-.07.25-.07.34-.11l0,0a0,0,0,0,0,0,0l.07-.08c-.11-.07-.41.05-.39-.11l-.14,0c-.11,0,0,.1,0,.12l0-.06c-.05,0,0,.08-.11,0s-.05,0-.08.06c-.13-.17-.42.05-.59-.11a.36.36,0,0,0-.25,0c-.07,0-.13-.08-.17,0a.39.39,0,0,0,.23.11c-.35,0-.31.13-.69.09l0,.06c-.05,0,0,0,0,0a.37.37,0,0,0-.32,0l0,0h-1s.13-.11.23-.11l-.15,0s.12-.08.17,0,0,0,0,0,0,.07.09,0l0,0s-.05,0,0-.09.27-.1.36-.18.1,0,.15,0,.37,0,.46-.12l0,0,0,0s.06,0,.11,0,.13,0,.18-.09L15,14c0-.1.1-.05.11-.12l0,.06.09-.06v0s.05,0,.08,0,0,.05,0,.08l0,0,.09-.09s0,0,0,0v0c.1,0,.05.14.15,0-.08-.23-.25.08-.36-.11.09,0,.18.06.21,0a.34.34,0,0,0-.29,0s0,0,0,0a.07.07,0,0,0,0,.06v0c-.15,0-.14-.09-.29,0s0,0,0,0,0,0-.06,0l0,0,0,0c-.06,0,0-.1-.12-.06s-.13.07-.17.17h0l0,0,0,0a5.84,5.84,0,0,0-1.49.42.74.74,0,0,0-.15,0s0,0,0,0-.07,0-.09-.07c-.18,0-.25.23-.44.25l-.09.09c0,.06.06,0,.11,0s-.12.1-.18.17.15,0,.21,0,0,.06,0,.08l-.06,0s0-.05,0-.08,0,.06-.06.1-.11-.05-.15,0-.19,0-.19.13l-.54.23c-.1-.1-.14,0-.25,0s0,.06,0,.1l0,0c0,.18.17.16.3.14s.15-.05.21,0h0v0h0s0,0,0,0l-.09.08,0,0c-.08,0-.15.19-.27.11s0,0,0,0-.11.12-.17,0,0-.66.11-.95l.23-.12-.06,0,.17.06c0,.1,0,.11,0,.18l.08,0s0,.07-.06.11a2.19,2.19,0,0,0,.63-.36s0,0,0,0l0,0,0,0a.09.09,0,0,1-.12.06s.07,0,.08,0-.07,0-.06,0,.24-.14.32-.23l0,0c0-.14.18-.15.27-.23l0,0a.4.4,0,0,0,.21-.11l.18-.06s0,0,0,0,0,0,.06,0,0-.05,0-.06l.13,0,0,0s.08,0,.11-.06l0,0s0,0,0,0v0c-.12,0,0,.14-.18,0s.1,0,.15-.1l0,0,0,0s0,0,0-.06,0,0,0,0l.09,0s0,0,0,0,0-.07,0-.09c.59-.31,1.12-.75,1.7-1.05a2.45,2.45,0,0,1,.81-.51,15.53,15.53,0,0,0,1.87-1.3,1.21,1.21,0,0,0,.74-.15c.13-.08.17,0,.3-.06l0,0a1.22,1.22,0,0,0,.49-.21c.17,0,.19-.09.4-.1s.27-.06.21-.21l0,0s0,0,0,0a1.76,1.76,0,0,1-.3-.36c0-.05,0-.12,0-.17s0,.05.06,0-.06-.09,0-.13,0,0,0,0-.12-.15-.06-.25.05-.07.08-.11l0,.06c0-.08.1-.11.06-.21l0,0c.05-.16.18-.24.25-.38l0,0C20,8.24,20,8.1,20.11,8.14Z"/><path class="cls-2uma" d="M21.41,9c.1,0,.2.11.13.23s-.16,0-.21.07-.16-.06-.15-.15.19-.11.25-.17Z"/><path class="cls-2uma" d="M22.28,9.09s-.08,0-.1.06S22.2,9.06,22.28,9.09Z"/><path class="cls-2uma" d="M21.08,9.17s-.05,0,0,.09l0,0,0-.06a.09.09,0,0,1,0,.11s0,0,0,0l0,0L21,9.23c.09,0,0-.06.07-.11S21.07,9.16,21.08,9.17Z"/><path class="cls-2uma" d="M22.34,9.23c.1,0,.06,0,.12.09a0,0,0,0,0,0,0s.09,0,.11.11-.18,0-.3-.06,0,0,0-.06l-.08,0,0,0-.06-.08C22.21,9.19,22.27,9.35,22.34,9.23Z"/><polygon class="cls-2uma" points="21.23 9.36 21.2 9.3 21.23 9.3 21.23 9.36"/><rect class="cls-1uma" x="22.4" y="9.27" width="0.04" height="0.04"/><path class="cls-4uma" d="M22.11,11.28c-.13.08-.08-.12-.12-.19a.65.65,0,0,1-.09-.27A.81.81,0,0,1,22.11,11.28Z"/><path class="cls-4uma" d="M22.09,11.34s0,0,0,0,0,.11,0,.15l0-.19Z"/><polygon class="cls-4uma" points="22.11 12 22.09 11.89 22.11 11.93 22.11 12"/><path class="cls-2uma" d="M21.71,12.81l0,0Z"/><path class="cls-2uma" d="M21.65,12.9l0,.1Z"/><path class="cls-2uma" d="M14.38,12.95h0Z"/><polygon class="cls-2uma" points="14.18 13.01 14.18 12.98 14.24 12.98 14.18 13.01"/><rect class="cls-1uma" x="14.02" y="13.03" width="0.03" height="0.04"/><path class="cls-2uma" d="M13.91,13.13s-.06,0-.09,0l0,0c0,.07-.11,0-.15.11s-.08,0-.12,0l0,0,0,0s.17,0,.13-.06S13.82,13.13,13.91,13.13Z"/><rect class="cls-1uma" x="21.35" y="13.22" width="0.02" height="0.02"/><path class="cls-2uma" d="M13.43,13.4a.05.05,0,0,0,0,0s0,0,0-.06l0,0,0,0,.17-.09S13.43,13.37,13.43,13.4Z"/><path class="cls-2uma" d="M13.51,13.3l0,.07Z"/><rect class="cls-1uma" x="13.07" y="13.44" width="0.04" height="0.04"/><polygon class="cls-2uma" points="13.53 13.7 13.55 13.68 13.6 13.68 13.53 13.7"/><path class="cls-2uma" d="M12.8,14s.23-.07.25-.19c0,.1.13,0,.18,0a.68.68,0,0,1,.21-.11Z"/><path class="cls-2uma" d="M13.07,13.75h0Z"/><path class="cls-2uma" d="M20.82,13.83s-.06.05-.06.09l0,0,0,0c-.08.09-.18.1-.27.15s.06-.11.12-.15l0,0,0,0,0,0,.11,0,0,0,0,0,.06-.06S20.79,13.82,20.82,13.83Z"/><rect class="cls-1uma" x="12.96" y="13.8" width="0.04" height="0.03"/><polygon class="cls-2uma" points="15.09 13.97 15.09 13.93 15.13 13.97 15.09 13.97"/><path class="cls-2uma" d="M15.26,14h-.09l0,0A.07.07,0,0,0,15.26,14Z"/><path class="cls-4uma" d="M11.8,14.21l-.06.06Z"/><path class="cls-2uma" d="M14.74,14.27a.22.22,0,0,1-.24,0v0A.62.62,0,0,1,14.74,14.27Z"/><path class="cls-4uma" d="M13.64,14.25c-.08,0,0,.11-.13.09S13.54,14.2,13.64,14.25Z"/><path class="cls-2uma" d="M16.67,14.25h0Z"/><rect class="cls-1uma" x="13.79" y="14.32" width="0.02" height="0.04"/><rect class="cls-3uma" x="15.91" y="14.44" width="0.02" height="0.02"/><path class="cls-4uma" d="M13.22,14.46h0Z"/><path class="cls-4uma" d="M15.64,14.46h0Z"/><path class="cls-4uma" d="M16,14.46h0Z"/><path class="cls-4uma" d="M15.3,14.48s-.11.1-.12,0Z"/><polygon class="cls-4uma" points="13.17 14.54 13.23 14.53 13.3 14.54 13.17 14.54"/><rect class="cls-3uma" x="13.3" y="14.55" width="0.04" height="0.04"/><path class="cls-2uma" d="M19.2,14.71c-.06,0-.2.14-.32.06s-.05.11-.12.11l0,0,0,0v0c.07,0,.11,0,.17-.06l0,0c.05.07.09-.09.14,0A.19.19,0,0,1,19.2,14.71Z"/><path class="cls-2uma" d="M19.54,14.69c0,.07-.06.05-.09.08h-.06l.09,0,0,0Z"/><path class="cls-2uma" d="M19.6,14.69h0Z"/><path class="cls-2uma" d="M15.54,14.77c.1,0,.09.13,0,.19s-.09-.05-.07,0h0a.07.07,0,0,0,0,0s0,0,.06,0-.1,0-.08-.18C15.46,14.77,15.51,14.8,15.54,14.77Z"/><path class="cls-2uma" d="M15.9,14.74l0,0Z"/><path class="cls-2uma" d="M18.55,14.74s-.05,0-.06,0v0Z"/><path class="cls-2uma" d="M14.29,14.76c0,.07-.07,0-.11,0l0,0Z"/><polygon class="cls-2uma" points="15.76 14.77 15.75 14.76 15.79 14.76 15.76 14.77"/><path class="cls-2uma" d="M14.53,14.84c.08,0-.12,0,0,.11s.11,0,.17-.07-.07.1,0,.18l0,0s0,0,0,0h.06c-.2.07-.53-.07-.61.19,0,0-.05,0-.07,0l0,0,0,0c0-.09.12-.15.13-.27s.26,0,.33,0a.17.17,0,0,0-.17-.11c0-.07,0,0,0-.09s.09,0,.12,0S14.49,14.85,14.53,14.84Z"/><path class="cls-4uma" d="M19.65,14.82h0Z"/><rect class="cls-3uma" x="17.62" y="14.83" width="0.04" height="0.04"/><path class="cls-4uma" d="M19.29,14.88h0Z"/><path class="cls-4uma" d="M17.22,14.91h0Z"/><path class="cls-2uma" d="M13.7,14.92h0Z"/><rect class="cls-1uma" x="14.39" y="14.93" width="0.03" height="0.04"/><path class="cls-4uma" d="M13.37,15h0Z"/><path class="cls-2uma" d="M16.35,15l.07,0Z"/><rect class="cls-1uma" x="13.66" y="15" width="0.04" height="0.03"/><rect class="cls-1uma" x="13.47" y="15.08" width="0.03" height="0.03"/><path class="cls-2uma" d="M13.16,15.28c0,.1-.18,0-.18.12,0,0,0,0,0-.08l.12,0h0v0h0v0Z"/><path class="cls-2uma" d="M16.46,15.54a.1.1,0,0,0,0,.11l-.18.17s0,0,0-.06l0,0A1.25,1.25,0,0,1,16,16l-.15,0c.11-.11.13-.26.24-.38l0,0c.09,0,.11-.16.13-.25S16.41,15.42,16.46,15.54Z"/><rect class="cls-3uma" x="17.41" y="15.32" width="0.03" height="0.03"/><polygon class="cls-4uma" points="17.43 15.45 17.43 15.41 17.45 15.43 17.43 15.45"/><path class="cls-4uma" d="M17.87,15.49l.13.17a0,0,0,0,0,0,0s0,.05.08,0l0,0s0,.08,0,.11l0,0c-.08,0,.06.17,0,.25l0,0s0,0,0,.06l0,0,0,0c-.06,0-.16-.11-.24-.08l0,0s0,.06.06,0c-.16-.19-.3-.25-.21-.53.07,0,.18-.11.21,0Z"/><polygon class="cls-2uma" points="11.57 15.64 11.61 15.62 11.64 15.64 11.57 15.64"/><path class="cls-4uma" d="M21.83,15.62s0,0,0,.07v-.07Z"/><path class="cls-4uma" d="M10.92,15.64l0,.08Z"/><path class="cls-4uma" d="M23.05,15.72c.07,0,.18.08.24,0,.16.14.4.12.53.3a.22.22,0,0,1-.17,0c-.11.09-.36,0-.47.08l.15.06c-.34.05-.66.15-1,.17a3.66,3.66,0,0,1,.87-.36s0,0,0,0,.07-.17,0-.21a1.74,1.74,0,0,1-.57.12l-.06.06s.07,0,.11,0-.18.13-.3.17l0,0s-.06,0-.09,0,0,0,0,0l0,0s0-.11.08-.06,0,.05.06,0l0,0a.1.1,0,0,0-.11-.07,1.26,1.26,0,0,1,.63-.21l0,0Z"/><rect class="cls-1uma" x="13.74" y="15.67" width="0.03" height="0.04"/><path class="cls-2uma" d="M13.7,15.83l0,0s0,0,0,0,0,0-.06,0l0,0,.06.07Z"/><polygon class="cls-4uma" points="21.73 15.77 21.75 15.72 21.75 15.75 21.73 15.77"/><rect class="cls-3uma" x="16.76" y="15.71" width="0.04" height="0.04"/><path class="cls-4uma" d="M22.18,15.85l0,0,.11.09c0,.05,0,0,0,0s0,0,0,.07-.06,0-.08,0,0,0,0,.06l0,0a.2.2,0,0,1,0,.11l-.08.08s-.12.08-.17,0-.2.06-.3.09a.5.5,0,0,1,.33-.1s0-.1,0-.13,0,0,0,0v0c0-.05-.09,0-.15,0a.58.58,0,0,1-.48.15.25.25,0,0,0-.21-.07l0,0s0,0,0,.06a.41.41,0,0,1-.35,0l.08-.08,0,0c.26-.29.63-.18.86-.46.17.09.31-.11.44,0Z"/><path class="cls-4uma" d="M11.07,15.87l0,0,.08,0S11.11,15.88,11.07,15.87Z"/><rect class="cls-1uma" x="13.59" y="15.8" width="0.04" height="0.03"/><path class="cls-4uma" d="M16.84,15.85l0,.06Z"/><path class="cls-2uma" d="M18,16s0-.09-.08-.07l0,0A.08.08,0,0,1,18,16Z"/><rect class="cls-1uma" x="11.7" y="15.91" width="0.03" height="0.03"/><path class="cls-4uma" d="M20,16s0,.05-.06.08a.71.71,0,0,0,.25.11c0,.09-.1,0-.09.09s.18,0,.15.09.19,0,.26,0a0,0,0,0,1,0,0c.05-.07.18.07.21-.06h.09c0,.14-.15.16-.25.24s-.37-.18-.63-.13l-.11-.17c.16,0,0-.15.19-.12v0Z"/><path class="cls-2uma" d="M22.15,16c.1,0,0,0,0,0Z"/><path class="cls-4uma" d="M19.79,16.08l0,0,0,0,0-.06S19.82,16.07,19.79,16.08Z"/><polygon class="cls-2uma" points="21.94 16.13 22.11 16.04 22.13 16.06 21.94 16.13"/><polygon class="cls-2uma" points="16.67 16.13 16.71 16.06 16.71 16.08 16.67 16.13"/><rect class="cls-1uma" x="13.19" y="16.09" width="0.04" height="0.04"/><path class="cls-2uma" d="M15.72,16.13s-.05,0-.08,0S15.69,16.13,15.72,16.13Z"/><path class="cls-4uma" d="M11.58,16.28c.07,0-.13,0-.07.06s0-.1,0-.1l0-.06S11.53,16.25,11.58,16.28Z"/><polygon class="cls-2uma" points="15.45 16.21 15.43 16.17 15.49 16.17 15.45 16.21"/><path class="cls-4uma" d="M23.9,16.29c-.22,0-.32.12-.53.11,0,0,.14,0,.15.11l0,0c.05.12.17,0,.23.09s.1,0,.13-.06-.13.07-.19.12l0,0s0,0,0,0l-.06-.08c-.05.06-.17,0-.25.06s0-.05,0-.06l0,0,0,0h0v0c-.11-.06-.24,0-.33,0s-.14-.07-.23,0l.06.06,0,0a.25.25,0,0,0,.28,0c-.07.1-.3,0-.3.13a.09.09,0,0,0-.11-.07l0,0s0,0,.06,0-.06,0-.09,0-.07.1-.15.12l0,0c0,.09,0,0,0,0s-.08.1,0,.13a1.85,1.85,0,0,1-.65.08c.06.06.21.06.27.09l-.48.11c0-.06-.13,0-.11,0s.35-.15.33-.32c.18,0,.11-.23.3-.15,0-.07.05-.06.06-.11a.16.16,0,0,0,.24-.08.21.21,0,0,0,.14-.09s0,0,0,0l.06-.06c0-.08-.1.07-.11,0s.05-.06.11-.08.11.17.13,0a1.38,1.38,0,0,0,.74-.14s0-.05-.06,0A1.15,1.15,0,0,1,23.9,16.29Z"/><rect class="cls-1uma" x="23.52" y="16.16" width="0.04" height="0.03"/><path class="cls-2uma" d="M20,16.21h0Z"/><path class="cls-4uma" d="M15.13,16.4l-.53.11c0-.07.17,0,.24-.11h-.24c.16-.07.34-.07.47-.17S15.11,16.34,15.13,16.4Z"/><path class="cls-4uma" d="M12.95,16.35l0,0Z"/><path class="cls-4uma" d="M24.45,16.42l0,0,0,0,.06.08,0,0s0,0,0,0l.11,0a1.73,1.73,0,0,0-.36,0c0,.05,0-.12-.08,0s0,.05,0,.06h.06a.1.1,0,0,0-.11.06,0,0,0,0,0,0,0c-.06.05-.12,0-.19-.08l0,0s0,0,0,0h-.06c0-.07.19,0,.17-.09,0,0,0,.07,0,.09s0,.05.06,0,.14-.12.09-.21l0,0C24.24,16.42,24.36,16.32,24.45,16.42Z"/><path class="cls-4uma" d="M20.17,16.56l-.1-.06s.05.06.08,0,0-.05,0-.08l.08,0Z"/><path class="cls-4uma" d="M13.05,16.44,13,16.5Z"/><rect class="cls-1uma" x="23.33" y="16.41" width="0.03" height="0.03"/><polygon class="cls-4uma" points="20.4 16.48 20.32 16.46 20.38 16.46 20.4 16.48"/><path class="cls-4uma" d="M22.13,16.49c-.06.05.08.11,0,.17s-.42.16-.61.27a3.7,3.7,0,0,1-.59-.11c.11-.11.18.08.3,0s-.22,0-.3,0l0,0c-.1,0-.13,0-.21-.08.37.06.7,0,1.07.1,0-.08,0-.16-.08-.18s-.18,0-.24,0A1.89,1.89,0,0,1,22.13,16.49Z"/><rect class="cls-3uma" x="22.34" y="16.46" width="0.02" height="0.05"/><path class="cls-4uma" d="M22.21,16.59l0,0s.11,0,.09-.08A.09.09,0,0,1,22.21,16.59Z"/><rect class="cls-3uma" x="20.64" y="16.48" width="0.03" height="0.03"/><polygon class="cls-2uma" points="23.4 16.55 23.37 16.5 23.4 16.5 23.4 16.55"/><path class="cls-2uma" d="M23.44,16.5h0Z"/><polygon class="cls-4uma" points="14.39 16.56 14.48 16.53 14.56 16.53 14.39 16.56"/><path class="cls-4uma" d="M21.35,16.55h-.17S21.31,16.52,21.35,16.55Z"/><path class="cls-2uma" d="M22,16.64s-.11,0-.11,0Z"/><rect class="cls-1uma" x="12.39" y="16.6" width="0.04" height="0.04"/><polygon class="cls-2uma" points="22.74 16.76 22.72 16.71 22.74 16.71 22.74 16.76"/><rect class="cls-3uma" x="23.98" y="16.74" width="0.02" height="0.02"/><path class="cls-4uma" d="M21.89,16.85s0,0,0,0h0v0Z"/><path class="cls-4uma" d="M23.2,16.88s.05,0,.09,0,0,0,0,.06.09.11,0,.15l-.06.06.08.09c.08,0,0-.12.11-.17l0,0,0,0,0,0s0,0,0,0c0,.15.08,0,.12.11s0,0,0,0l0,0a.08.08,0,0,1,0,.13,0,0,0,0,0,0,0l0,0s.08.07.11,0h0l-.06,0,0,0s-.05-.08-.09,0-.12,0-.11.09,0,.08-.1,0,0,0-.06,0l0,0s0-.07,0-.12,0,0-.06,0l0,0-.07.06,0,0c-.13-.05-.14.18-.3.12l.06,0c-.09,0,0-.08-.08-.08l0,.06-.09-.11c0,.08-.09.06-.14.06l0,0s.07,0,.09,0l0,0a.93.93,0,0,1,.27,0s0-.06,0-.11-.35,0-.19-.18l0,0s0,0,0,0,0-.05,0-.06h-.06s0,0,0,0l0,0a.07.07,0,0,0,0-.06,4.07,4.07,0,0,1,.44-.11Z"/><path class="cls-4uma" d="M23.56,16.91c-.08,0-.1.07-.15.11l0-.11C23.44,16.9,23.51,16.83,23.56,16.91Z"/><path class="cls-4uma" d="M24.15,16.86s-.07.05-.12,0S24.11,16.86,24.15,16.86Z"/><rect class="cls-3uma" x="19.41" y="16.9" width="0.04" height="0.03"/><path class="cls-2uma" d="M22.36,16.92h0Z"/><polygon class="cls-2uma" points="23.05 16.99 23.05 16.93 23.08 16.99 23.05 16.99"/><path class="cls-2uma" d="M23,17.07h0s0,0,0,0h-.08L23,17l0,0C22.95,17,23,17,23,17.07Z"/><path class="cls-4uma" d="M23.56,17l.11,0Z"/><rect class="cls-1uma" x="22.36" y="16.99" width="0.03" height="0.04"/><path class="cls-4uma" d="M21.17,17h0l0,0c.05.05.14.05.21.08a1,1,0,0,1-.4.13s0-.05,0-.07,0,.05,0,0,0,0,0,0l.25-.06c-.05-.06-.14,0-.21,0s.13-.16.18,0Z"/><path class="cls-4uma" d="M21.58,17c0,.07,0,0-.06,0Z"/><path class="cls-4uma" d="M22.61,17h-.06s0,0,.06,0Z"/><path class="cls-2uma" d="M23.25,17l0,0Z"/><polygon class="cls-4uma" points="21.44 17.12 21.52 17.07 21.47 17.12 21.44 17.12"/><path class="cls-2uma" d="M22.95,17.16s-.09-.07,0-.09Z"/><rect class="cls-3uma" x="22.57" y="17.08" width="0.04" height="0.04"/><path class="cls-4uma" d="M22.68,17.12l.06,0Z"/><polygon class="cls-2uma" points="23.04 17.14 22.99 17.12 23.02 17.12 23.04 17.14"/><path class="cls-4uma" d="M24.39,17.22s-.11,0-.18,0l-.11-.08C24.24,17.15,24.33,17.11,24.39,17.22Z"/><rect class="cls-1uma" x="22.93" y="17.17" width="0.04" height="0.03"/><path class="cls-2uma" d="M23.56,17.3H23.5l0,0S23.57,17.29,23.56,17.3Z"/><path class="cls-4uma" d="M22,17.3l0,0Z"/><path class="cls-4uma" d="M22.4,17.3h0Z"/><path class="cls-2uma" d="M23,17.33h0Z"/><polygon class="cls-4uma" points="22.53 17.41 22.53 17.35 22.57 17.35 22.53 17.41"/><rect class="cls-1uma" x="23.04" y="17.36" width="0.03" height="0.04"/><rect class="cls-3uma" x="22.57" y="17.44" width="0.04" height="0.04"/><path class="cls-4uma" d="M22.89,17.54l0,0,0,0-.06-.06s0,0,0-.06S22.83,17.55,22.89,17.54Z"/><path class="cls-2uma" d="M23.12,17.51l-.07,0s0,0,.07,0Z"/><path class="cls-4uma" d="M23.5,17.71h0s0,0,0,0Z"/></g></g></svg>