<svg width="571.0549560546875px" height="167.60249023437498px" xmlns="http://www.w3.org/2000/svg" viewBox="-35.52747802734376 -8.801245117187491 571.0549560546875 167.60249023437498" style="background: rgba(0, 0, 0, 0);" preserveAspectRatio="xMidYMid"><defs><filter id="editing-offset"><feFlood flood-color="#f00" flood-opacity="0.5" result="c1"></feFlood><feFlood flood-color="#0f0" flood-opacity="0.5" result="c2"></feFlood><feFlood flood-color="#00f" flood-opacity="0.5" result="c3"></feFlood><feComposite operator="in" in="c1" in2="SourceAlpha" result="text-c1"></feComposite><feComposite operator="in" in="c2" in2="SourceAlpha" result="text-c2"></feComposite><feComposite operator="in" in="c3" in2="SourceAlpha" result="text-c3"></feComposite><feOffset in="text-c1" dx="-10" dy="0" result="text1"></feOffset><feOffset in="text-c2" dx="10" dy="0" result="text2"></feOffset><feOffset in="text-c3" dx="0" dy="0" result="text3"></feOffset><feMerge><feMergeNode in="text1"></feMergeNode><feMergeNode in="text2"></feMergeNode><feMergeNode in="text3"></feMergeNode></feMerge></filter></defs><g filter="url(#editing-offset)"><g transform="translate(47.049996852874756, 104.15999984741211)"><path d="M59.85-57.69L65.52 0L59.04 0L57.69-17.55L54.63-46.26L54-46.26L37.98-6.66L32.04-6.66L16.83-46.26L16.11-46.26L13.05-18.09L11.52 0L5.40 0L11.43-57.69L19.62-57.69L22.59-48.87L35.10-16.02L35.64-16.02L48.78-49.41L51.75-57.69L59.85-57.69ZM85.86-44.82L85.59-14.04L85.77 0L79.11 0L79.38-13.50L79.11-44.82L85.86-44.82ZM118.35-45.27L118.35-45.27Q125.82-45.27 131.31-42.12L131.31-42.12L130.05-35.91L129.24-35.64L129.24-35.64Q126.99-37.53 124.02-38.61L124.02-38.61L124.02-38.61Q121.05-39.69 117.63-39.69L117.63-39.69L117.63-39.69Q110.97-39.69 107.46-35.41L107.46-35.41L107.46-35.41Q103.95-31.14 103.95-22.68L103.95-22.68L103.95-22.68Q103.95-14.13 107.46-9.63L107.46-9.63L107.46-9.63Q110.97-5.13 117.63-5.13L117.63-5.13L117.63-5.13Q120.87-5.13 124.15-6.25L124.15-6.25L124.15-6.25Q127.44-7.38 130.05-9.27L130.05-9.27L130.86-9L130.23-2.79L130.23-2.79Q124.11 0.54 117.36 0.54L117.36 0.54L117.36 0.54Q107.46 0.54 102.15-5.35L102.15-5.35L102.15-5.35Q96.84-11.25 96.84-22.14L96.84-22.14L96.84-22.14Q96.84-33.21 102.46-39.24L102.46-39.24L102.46-39.24Q108.09-45.27 118.35-45.27L118.35-45.27ZM162.99-18.09L162.99-18.09Q168.48-9.72 175.14-1.62L175.14-1.62L175.05-0.72L175.05-0.72Q171.27 0.45 168.84 0.63L168.84 0.63L167.67-0.09L167.67-0.09Q160.83-10.44 157.32-16.38L157.32-16.38L148.86-16.29L148.86-14.04L149.04 0L142.38 0L142.65-13.50L142.38-44.82L157.68-44.91L157.68-44.91Q164.79-44.91 168.62-41.58L168.62-41.58L168.62-41.58Q172.44-38.25 172.44-31.95L172.44-31.95L172.44-31.95Q172.44-27.36 169.97-23.76L169.97-23.76L169.97-23.76Q167.49-20.16 162.99-18.09L162.99-18.09ZM149.04-39.42L148.95-21.87L157.41-21.60L157.41-21.60Q165.42-23.85 165.42-31.41L165.42-31.41L165.42-31.41Q165.42-35.37 163.08-37.35L163.08-37.35L163.08-37.35Q160.74-39.33 155.97-39.51L155.97-39.51L149.04-39.42ZM203.76-45.36L203.76-45.36Q213.57-45.36 218.84-39.60L218.84-39.60L218.84-39.60Q224.10-33.84 224.10-23.31L224.10-23.31L224.10-23.31Q224.10-11.88 218.48-5.63L218.48-5.63L218.48-5.63Q212.85 0.63 202.41 0.63L202.41 0.63L202.41 0.63Q192.69 0.63 187.38-5.26L187.38-5.26L187.38-5.26Q182.07-11.16 182.07-22.05L182.07-22.05L182.07-22.05Q182.07-33.21 187.74-39.28L187.74-39.28L187.74-39.28Q193.41-45.36 203.76-45.36L203.76-45.36ZM203.13-39.69L203.13-39.69Q196.02-39.69 192.56-35.64L192.56-35.64L192.56-35.64Q189.09-31.59 189.09-22.86L189.09-22.86L189.09-22.86Q189.09-13.50 192.51-9.27L192.51-9.27L192.51-9.27Q195.93-5.04 202.95-5.04L202.95-5.04L202.95-5.04Q210.15-5.04 213.66-9.18L213.66-9.18L213.66-9.18Q217.17-13.32 217.17-22.14L217.17-22.14L217.17-22.14Q217.17-31.23 213.71-35.46L213.71-35.46L213.71-35.46Q210.24-39.69 203.13-39.69L203.13-39.69ZM249.48-45.27L249.48-45.27Q254.97-45.27 260.46-43.11L260.46-43.11L259.29-36.45L258.21-36.18L258.21-36.18Q255.69-38.16 253.44-39.10L253.44-39.10L253.44-39.10Q251.19-40.05 248.76-40.05L248.76-40.05L248.76-40.05Q244.89-40.05 242.64-38.02L242.64-38.02L242.64-38.02Q240.39-36 240.39-33.39L240.39-33.39L240.39-33.39Q240.39-30.78 242.59-29.16L242.59-29.16L242.59-29.16Q244.80-27.54 249.39-25.56L249.39-25.56L249.39-25.56Q253.44-23.76 255.83-22.32L255.83-22.32L255.83-22.32Q258.21-20.88 259.97-18.50L259.97-18.50L259.97-18.50Q261.72-16.11 261.72-12.69L261.72-12.69L261.72-12.69Q261.72-9.18 259.83-6.17L259.83-6.17L259.83-6.17Q257.94-3.15 254.30-1.30L254.30-1.30L254.30-1.30Q250.65 0.54 245.61 0.54L245.61 0.54L245.61 0.54Q242.46 0.54 239.00-0.22L239.00-0.22L239.00-0.22Q235.53-0.99 232.56-2.52L232.56-2.52L233.37-9.63L234.27-9.99L234.27-9.99Q236.79-7.47 240.16-6.08L240.16-6.08L240.16-6.08Q243.54-4.68 246.42-4.68L246.42-4.68L246.42-4.68Q250.20-4.68 252.63-6.71L252.63-6.71L252.63-6.71Q255.06-8.73 255.06-11.61L255.06-11.61L255.06-11.61Q255.06-14.31 252.86-15.93L252.86-15.93L252.86-15.93Q250.65-17.55 245.97-19.71L245.97-19.71L245.97-19.71Q242.10-21.42 239.63-22.86L239.63-22.86L239.63-22.86Q237.15-24.30 235.44-26.68L235.44-26.68L235.44-26.68Q233.73-29.07 233.73-32.49L233.73-32.49L233.73-32.49Q233.73-36.09 235.66-38.97L235.66-38.97L235.66-38.97Q237.60-41.85 241.16-43.56L241.16-43.56L241.16-43.56Q244.71-45.27 249.48-45.27L249.48-45.27ZM281.25-44.82L280.98-14.04L281.16 0L274.50 0L274.77-13.50L274.50-44.82L281.25-44.82ZM324.54-44.82L324.90-44.28L324.45-38.61L316.08-39.24L311.58-39.24L311.31-14.04L311.58 0L304.83 0L305.10-13.50L304.92-39.24L300.42-39.24L291.87-38.61L291.33-39.24L291.87-44.82L324.54-44.82ZM351.27-5.40L363.24-5.76L363.78-5.22L363.15 0L335.88 0L336.15-13.50L335.88-44.82L363.33-44.82L363.78-44.28L363.24-39.06L351.90-39.42L342.54-39.33L342.45-25.74L351.36-25.65L359.19-25.92L359.64-25.29L359.10-19.98L350.82-20.25L342.45-20.16L342.36-14.04L342.45-5.49L351.27-5.40ZM388.26-45.27L388.26-45.27Q393.75-45.27 399.24-43.11L399.24-43.11L398.07-36.45L396.99-36.18L396.99-36.18Q394.47-38.16 392.22-39.10L392.22-39.10L392.22-39.10Q389.97-40.05 387.54-40.05L387.54-40.05L387.54-40.05Q383.67-40.05 381.42-38.02L381.42-38.02L381.42-38.02Q379.17-36 379.17-33.39L379.17-33.39L379.17-33.39Q379.17-30.78 381.37-29.16L381.37-29.16L381.37-29.16Q383.58-27.54 388.17-25.56L388.17-25.56L388.17-25.56Q392.22-23.76 394.60-22.32L394.60-22.32L394.60-22.32Q396.99-20.88 398.74-18.50L398.74-18.50L398.74-18.50Q400.50-16.11 400.50-12.69L400.50-12.69L400.50-12.69Q400.50-9.18 398.61-6.17L398.61-6.17L398.61-6.17Q396.72-3.15 393.07-1.30L393.07-1.30L393.07-1.30Q389.43 0.54 384.39 0.54L384.39 0.54L384.39 0.54Q381.24 0.54 377.77-0.22L377.77-0.22L377.77-0.22Q374.31-0.99 371.34-2.52L371.34-2.52L372.15-9.63L373.05-9.99L373.05-9.99Q375.57-7.47 378.94-6.08L378.94-6.08L378.94-6.08Q382.32-4.68 385.20-4.68L385.20-4.68L385.20-4.68Q388.98-4.68 391.41-6.71L391.41-6.71L391.41-6.71Q393.84-8.73 393.84-11.61L393.84-11.61L393.84-11.61Q393.84-14.31 391.63-15.93L391.63-15.93L391.63-15.93Q389.43-17.55 384.75-19.71L384.75-19.71L384.75-19.71Q380.88-21.42 378.40-22.86L378.40-22.86L378.40-22.86Q375.93-24.30 374.22-26.68L374.22-26.68L374.22-26.68Q372.51-29.07 372.51-32.49L372.51-32.49L372.51-32.49Q372.51-36.09 374.44-38.97L374.44-38.97L374.44-38.97Q376.38-41.85 379.93-43.56L379.93-43.56L379.93-43.56Q383.49-45.27 388.26-45.27L388.26-45.27Z"></path></g></g><style>text {
  font-size: 64px;
  font-family: Arial Black;
  dominant-baseline: central;
  text-anchor: middle;
}</style></svg>